G04 #@! TF.GenerationSoftware,KiCad,Pcbnew,5.0.0-fee4fd1~66~ubuntu18.04.1*
G04 #@! TF.CreationDate,2018-11-16T02:20:25-05:00*
G04 #@! TF.ProjectId,plugboard,706C7567626F6172642E6B696361645F,rev?*
G04 #@! TF.SameCoordinates,Original*
G04 #@! TF.FileFunction,Profile,NP*
%FSLAX46Y46*%
G04 Gerber Fmt 4.6, Leading zero omitted, Abs format (unit mm)*
G04 Created by KiCad (PCBNEW 5.0.0-fee4fd1~66~ubuntu18.04.1) date Fri Nov 16 02:20:25 2018*
%MOMM*%
%LPD*%
G01*
G04 APERTURE LIST*
%ADD10C,0.200000*%
G04 APERTURE END LIST*
D10*
X171512469Y-131210000D02*
G75*
G03X171512469Y-131210000I-3175000J0D01*
G01*
X171156684Y-106210000D02*
G75*
G03X171156684Y-106210000I-3175000J0D01*
G01*
X142935889Y-131210000D02*
G75*
G03X142935889Y-131210000I-3175000J0D01*
G01*
X142038148Y-106210000D02*
G75*
G03X142038148Y-106210000I-3175000J0D01*
G01*
X186268389Y-176130000D02*
G75*
G03X186268389Y-176130000I-1587500J0D01*
G01*
X96428389Y-176130000D02*
G75*
G03X96428389Y-176130000I-1587500J0D01*
G01*
X189760889Y-181210000D02*
X189760889Y-81210000D01*
X96428389Y-86290000D02*
G75*
G03X96428389Y-86290000I-1587500J0D01*
G01*
X186268389Y-86290000D02*
G75*
G03X186268389Y-86290000I-1587500J0D01*
G01*
X186268389Y-176130000D02*
G75*
G03X186268389Y-176130000I-1587500J0D01*
G01*
X113871199Y-106210000D02*
G75*
G03X113871199Y-106210000I-3175000J0D01*
G01*
X89760889Y-181210000D02*
X189760889Y-181210000D01*
X171077486Y-156210000D02*
G75*
G03X171077486Y-156210000I-3175000J0D01*
G01*
X189760889Y-81210000D02*
X89760889Y-81210000D01*
X141958950Y-156210000D02*
G75*
G03X141958950Y-156210000I-3175000J0D01*
G01*
X142935889Y-131210000D02*
G75*
G03X142935889Y-131210000I-3175000J0D01*
G01*
X186268389Y-86290000D02*
G75*
G03X186268389Y-86290000I-1587500J0D01*
G01*
X89760889Y-81210000D02*
X89760889Y-181210000D01*
X114226983Y-131210000D02*
G75*
G03X114226983Y-131210000I-3175000J0D01*
G01*
X171156684Y-106210000D02*
G75*
G03X171156684Y-106210000I-3175000J0D01*
G01*
X113871199Y-106210000D02*
G75*
G03X113871199Y-106210000I-3175000J0D01*
G01*
X96428389Y-86290000D02*
G75*
G03X96428389Y-86290000I-1587500J0D01*
G01*
X113792000Y-156210000D02*
G75*
G03X113792000Y-156210000I-3175000J0D01*
G01*
X96428389Y-176130000D02*
G75*
G03X96428389Y-176130000I-1587500J0D01*
G01*
X142038148Y-106210000D02*
G75*
G03X142038148Y-106210000I-3175000J0D01*
G01*
X141958950Y-156210000D02*
G75*
G03X141958950Y-156210000I-3175000J0D01*
G01*
X114226983Y-131210000D02*
G75*
G03X114226983Y-131210000I-3175000J0D01*
G01*
X171512469Y-131210000D02*
G75*
G03X171512469Y-131210000I-3175000J0D01*
G01*
X171077486Y-156210000D02*
G75*
G03X171077486Y-156210000I-3175000J0D01*
G01*
X113792000Y-156210000D02*
G75*
G03X113792000Y-156210000I-3175000J0D01*
G01*
M02*
