G04 #@! TF.GenerationSoftware,KiCad,Pcbnew,5.0.0-fee4fd1~66~ubuntu18.04.1*
G04 #@! TF.CreationDate,2018-11-16T02:20:25-05:00*
G04 #@! TF.ProjectId,plugboard,706C7567626F6172642E6B696361645F,rev?*
G04 #@! TF.SameCoordinates,Original*
G04 #@! TF.FileFunction,Paste,Top*
G04 #@! TF.FilePolarity,Positive*
%FSLAX46Y46*%
G04 Gerber Fmt 4.6, Leading zero omitted, Abs format (unit mm)*
G04 Created by KiCad (PCBNEW 5.0.0-fee4fd1~66~ubuntu18.04.1) date Fri Nov 16 02:20:25 2018*
%MOMM*%
%LPD*%
G01*
G04 APERTURE LIST*
%ADD10R,1.250000X1.000000*%
%ADD11R,1.300000X0.700000*%
%ADD12R,0.700000X1.300000*%
%ADD13R,1.473200X0.279400*%
%ADD14R,0.279400X1.473200*%
G04 APERTURE END LIST*
D10*
G04 #@! TO.C,C1*
X130175000Y-96663000D03*
X130175000Y-98663000D03*
G04 #@! TD*
D11*
G04 #@! TO.C,R1*
X105410000Y-176972000D03*
X105410000Y-175072000D03*
G04 #@! TD*
G04 #@! TO.C,R2*
X108122720Y-176972000D03*
X108122720Y-175072000D03*
G04 #@! TD*
G04 #@! TO.C,R3*
X110835440Y-176972000D03*
X110835440Y-175072000D03*
G04 #@! TD*
G04 #@! TO.C,R4*
X113548160Y-176972000D03*
X113548160Y-175072000D03*
G04 #@! TD*
G04 #@! TO.C,R5*
X116260880Y-176972000D03*
X116260880Y-175072000D03*
G04 #@! TD*
G04 #@! TO.C,R6*
X118973600Y-176972000D03*
X118973600Y-175072000D03*
G04 #@! TD*
G04 #@! TO.C,R7*
X121686320Y-175072000D03*
X121686320Y-176972000D03*
G04 #@! TD*
G04 #@! TO.C,R8*
X124399040Y-175072000D03*
X124399040Y-176972000D03*
G04 #@! TD*
G04 #@! TO.C,R9*
X127111760Y-176972000D03*
X127111760Y-175072000D03*
G04 #@! TD*
G04 #@! TO.C,R10*
X129824480Y-175072000D03*
X129824480Y-176972000D03*
G04 #@! TD*
G04 #@! TO.C,R11*
X132537200Y-175072000D03*
X132537200Y-176972000D03*
G04 #@! TD*
G04 #@! TO.C,R12*
X135249920Y-176972000D03*
X135249920Y-175072000D03*
G04 #@! TD*
G04 #@! TO.C,R13*
X137962640Y-176972000D03*
X137962640Y-175072000D03*
G04 #@! TD*
G04 #@! TO.C,R14*
X140675360Y-176972000D03*
X140675360Y-175072000D03*
G04 #@! TD*
G04 #@! TO.C,R15*
X143388080Y-176972000D03*
X143388080Y-175072000D03*
G04 #@! TD*
G04 #@! TO.C,R16*
X146100800Y-175072000D03*
X146100800Y-176972000D03*
G04 #@! TD*
G04 #@! TO.C,R17*
X148813520Y-175072000D03*
X148813520Y-176972000D03*
G04 #@! TD*
G04 #@! TO.C,R18*
X151526240Y-176972000D03*
X151526240Y-175072000D03*
G04 #@! TD*
G04 #@! TO.C,R19*
X154238960Y-175072000D03*
X154238960Y-176972000D03*
G04 #@! TD*
G04 #@! TO.C,R20*
X156951680Y-175072000D03*
X156951680Y-176972000D03*
G04 #@! TD*
G04 #@! TO.C,R21*
X159664400Y-175072000D03*
X159664400Y-176972000D03*
G04 #@! TD*
G04 #@! TO.C,R22*
X162377120Y-176972000D03*
X162377120Y-175072000D03*
G04 #@! TD*
G04 #@! TO.C,R23*
X165089840Y-175072000D03*
X165089840Y-176972000D03*
G04 #@! TD*
G04 #@! TO.C,R24*
X167802560Y-175072000D03*
X167802560Y-176972000D03*
G04 #@! TD*
G04 #@! TO.C,R25*
X170515280Y-176972000D03*
X170515280Y-175072000D03*
G04 #@! TD*
G04 #@! TO.C,R26*
X173228000Y-176972000D03*
X173228000Y-175072000D03*
G04 #@! TD*
G04 #@! TO.C,R27*
X105283000Y-170106662D03*
X105283000Y-168206662D03*
G04 #@! TD*
G04 #@! TO.C,R28*
X108005880Y-168206662D03*
X108005880Y-170106662D03*
G04 #@! TD*
G04 #@! TO.C,R29*
X110728760Y-168206662D03*
X110728760Y-170106662D03*
G04 #@! TD*
G04 #@! TO.C,R30*
X127066040Y-168206662D03*
X127066040Y-170106662D03*
G04 #@! TD*
G04 #@! TO.C,R31*
X129788920Y-170106662D03*
X129788920Y-168206662D03*
G04 #@! TD*
G04 #@! TO.C,R32*
X132511800Y-170106662D03*
X132511800Y-168206662D03*
G04 #@! TD*
G04 #@! TO.C,R33*
X151571960Y-170106662D03*
X151571960Y-168206662D03*
G04 #@! TD*
G04 #@! TO.C,R34*
X154294840Y-170106662D03*
X154294840Y-168206662D03*
G04 #@! TD*
G04 #@! TO.C,R35*
X157017720Y-168206662D03*
X157017720Y-170106662D03*
G04 #@! TD*
G04 #@! TO.C,R36*
X99462165Y-93279000D03*
X99462165Y-91379000D03*
G04 #@! TD*
G04 #@! TO.C,R37*
X101792850Y-93279000D03*
X101792850Y-91379000D03*
G04 #@! TD*
G04 #@! TO.C,R38*
X104123535Y-91379000D03*
X104123535Y-93279000D03*
G04 #@! TD*
G04 #@! TO.C,R39*
X119614371Y-93245672D03*
X119614371Y-91345672D03*
G04 #@! TD*
G04 #@! TO.C,R40*
X121945056Y-93245672D03*
X121945056Y-91345672D03*
G04 #@! TD*
G04 #@! TO.C,R41*
X124402741Y-95023672D03*
X124402741Y-93123672D03*
G04 #@! TD*
G04 #@! TO.C,R42*
X158912275Y-93533000D03*
X158912275Y-91633000D03*
G04 #@! TD*
G04 #@! TO.C,R43*
X161242960Y-91633000D03*
X161242960Y-93533000D03*
G04 #@! TD*
G04 #@! TO.C,R44*
X163573645Y-93533000D03*
X163573645Y-91633000D03*
G04 #@! TD*
D12*
G04 #@! TO.C,R45*
X126934000Y-97663000D03*
X125034000Y-97663000D03*
G04 #@! TD*
D11*
G04 #@! TO.C,R46*
X113451640Y-170106662D03*
X113451640Y-168206662D03*
G04 #@! TD*
G04 #@! TO.C,R47*
X116174520Y-170106662D03*
X116174520Y-168206662D03*
G04 #@! TD*
G04 #@! TO.C,R48*
X135234680Y-168206662D03*
X135234680Y-170106662D03*
G04 #@! TD*
G04 #@! TO.C,R49*
X137957560Y-168206662D03*
X137957560Y-170106662D03*
G04 #@! TD*
G04 #@! TO.C,R50*
X140680440Y-168206662D03*
X140680440Y-170106662D03*
G04 #@! TD*
G04 #@! TO.C,R51*
X159740600Y-170106662D03*
X159740600Y-168206662D03*
G04 #@! TD*
G04 #@! TO.C,R52*
X162463480Y-168206662D03*
X162463480Y-170106662D03*
G04 #@! TD*
G04 #@! TO.C,R53*
X165186360Y-170106662D03*
X165186360Y-168206662D03*
G04 #@! TD*
G04 #@! TO.C,R54*
X106997495Y-91379000D03*
X106997495Y-93279000D03*
G04 #@! TD*
G04 #@! TO.C,R55*
X109328180Y-91379000D03*
X109328180Y-93279000D03*
G04 #@! TD*
G04 #@! TO.C,R56*
X127533865Y-93030000D03*
X127533865Y-94930000D03*
G04 #@! TD*
G04 #@! TO.C,R57*
X129864550Y-94930000D03*
X129864550Y-93030000D03*
G04 #@! TD*
G04 #@! TO.C,R58*
X132195235Y-93030000D03*
X132195235Y-94930000D03*
G04 #@! TD*
G04 #@! TO.C,R59*
X166275920Y-93660000D03*
X166275920Y-91760000D03*
G04 #@! TD*
G04 #@! TO.C,R60*
X168606605Y-91760000D03*
X168606605Y-93660000D03*
G04 #@! TD*
G04 #@! TO.C,R61*
X170937290Y-93660000D03*
X170937290Y-91760000D03*
G04 #@! TD*
G04 #@! TO.C,R62*
X118897400Y-168206662D03*
X118897400Y-170106662D03*
G04 #@! TD*
G04 #@! TO.C,R63*
X121620280Y-168206662D03*
X121620280Y-170106662D03*
G04 #@! TD*
G04 #@! TO.C,R64*
X124343160Y-170106662D03*
X124343160Y-168206662D03*
G04 #@! TD*
G04 #@! TO.C,R65*
X143403320Y-170106662D03*
X143403320Y-168206662D03*
G04 #@! TD*
G04 #@! TO.C,R66*
X146126200Y-170106662D03*
X146126200Y-168206662D03*
G04 #@! TD*
G04 #@! TO.C,R67*
X148849080Y-168206662D03*
X148849080Y-170106662D03*
G04 #@! TD*
G04 #@! TO.C,R68*
X167909240Y-168206662D03*
X167909240Y-170106662D03*
G04 #@! TD*
G04 #@! TO.C,R69*
X170632120Y-170106662D03*
X170632120Y-168206662D03*
G04 #@! TD*
G04 #@! TO.C,R70*
X173355000Y-170106662D03*
X173355000Y-168206662D03*
G04 #@! TD*
G04 #@! TO.C,R71*
X112075140Y-91379000D03*
X112075140Y-93279000D03*
G04 #@! TD*
G04 #@! TO.C,R72*
X114405825Y-93279000D03*
X114405825Y-91379000D03*
G04 #@! TD*
G04 #@! TO.C,R73*
X116736510Y-91379000D03*
X116736510Y-93279000D03*
G04 #@! TD*
G04 #@! TO.C,R74*
X150563195Y-93660000D03*
X150563195Y-91760000D03*
G04 #@! TD*
G04 #@! TO.C,R75*
X152893880Y-93660000D03*
X152893880Y-91760000D03*
G04 #@! TD*
G04 #@! TO.C,R76*
X155224565Y-91760000D03*
X155224565Y-93660000D03*
G04 #@! TD*
G04 #@! TO.C,R77*
X174065250Y-93533000D03*
X174065250Y-91633000D03*
G04 #@! TD*
G04 #@! TO.C,R78*
X176395935Y-91633000D03*
X176395935Y-93533000D03*
G04 #@! TD*
G04 #@! TO.C,R79*
X178726620Y-91633000D03*
X178726620Y-93533000D03*
G04 #@! TD*
D12*
G04 #@! TO.C,R80*
X123637000Y-121113305D03*
X125537000Y-121113305D03*
G04 #@! TD*
G04 #@! TO.C,R81*
X123637000Y-123444000D03*
X125537000Y-123444000D03*
G04 #@! TD*
D13*
G04 #@! TO.C,U1*
X135585200Y-85642000D03*
X135585200Y-86141999D03*
X135585200Y-86642001D03*
X135585200Y-87142000D03*
X135585200Y-87641999D03*
X135585200Y-88142000D03*
X135585200Y-88642000D03*
X135585200Y-89142001D03*
X135585200Y-89642000D03*
X135585200Y-90141999D03*
X135585200Y-90642001D03*
X135585200Y-91142000D03*
D14*
X136950000Y-92506800D03*
X137449999Y-92506800D03*
X137950001Y-92506800D03*
X138450000Y-92506800D03*
X138949999Y-92506800D03*
X139450000Y-92506800D03*
X139950000Y-92506800D03*
X140450001Y-92506800D03*
X140950000Y-92506800D03*
X141449999Y-92506800D03*
X141950001Y-92506800D03*
X142450000Y-92506800D03*
D13*
X143814800Y-91142000D03*
X143814800Y-90642001D03*
X143814800Y-90141999D03*
X143814800Y-89642000D03*
X143814800Y-89142001D03*
X143814800Y-88642000D03*
X143814800Y-88142000D03*
X143814800Y-87641999D03*
X143814800Y-87142000D03*
X143814800Y-86642001D03*
X143814800Y-86141999D03*
X143814800Y-85642000D03*
D14*
X142450000Y-84277200D03*
X141950001Y-84277200D03*
X141449999Y-84277200D03*
X140950000Y-84277200D03*
X140450001Y-84277200D03*
X139950000Y-84277200D03*
X139450000Y-84277200D03*
X138949999Y-84277200D03*
X138450000Y-84277200D03*
X137950001Y-84277200D03*
X137449999Y-84277200D03*
X136950000Y-84277200D03*
G04 #@! TD*
M02*
