M48
INCH,TZ
T1C0.0120
T2C0.0400
T3C0.0450
T4C0.1250
T5C0.2600
%
G90
G05
T1
X39450Y-33850
X39710Y-47600
X39900Y-48100
X40100Y-34150
X42150Y-34550
X44200Y-34800
X45042Y-35050
X46900Y-47300
X46900Y-48310
X47100Y-35450
X47200Y-47300
X47200Y-48310
X48010Y-35660
X48550Y-38100
X48800Y-38450
X50450Y-35910
X50650Y-38650
X50650Y-47500
X51400Y-36156
X51800Y-38090
X53050Y-41350
X54250Y-40150
X56700Y-36156
X58200Y-38100
X58600Y-36400
X59750Y-36550
X61900Y-36700
X62133Y-37004
X64895Y-37214
X65400Y-37400
X68150Y-37610
X68550Y-37800
T2
X48850Y-39550
X48850Y-40550
X48850Y-41550
X49850Y-39550
X49850Y-40550
X49850Y-41550
X48900Y-43800
X48900Y-44800
X48900Y-45800
X49900Y-43800
X49900Y-44800
X49900Y-45800
T3
X36500Y-34995
X36500Y-36846
X36500Y-38696
X36500Y-40546
X36500Y-42397
X36500Y-44247
X36500Y-46098
X36500Y-47948
X36500Y-49798
X36500Y-51649
X36500Y-53499
X36500Y-55350
X36500Y-57200
X36500Y-59050
X36500Y-60901
X36500Y-62751
X36500Y-64602
X36500Y-66452
X36500Y-68302
X73800Y-35099
X73800Y-36950
X73800Y-38800
X73800Y-40650
X73800Y-42501
X73800Y-44351
X73800Y-46202
X73800Y-48052
X73800Y-49902
X73800Y-51753
X73800Y-53603
X73800Y-55454
X73800Y-57304
X73800Y-59154
X73800Y-61005
X73800Y-62855
X73800Y-64706
X73800Y-66556
X73800Y-68406
T4
X63600Y-42760
X64260Y-39960
X65880Y-44300
X67060Y-39300
X68600Y-41580
X41250Y-52610
X41910Y-49810
X43530Y-54150
X44710Y-49150
X46250Y-51430
X63760Y-52610
X64420Y-49810
X66040Y-54150
X67220Y-49150
X68760Y-51430
X52550Y-52610
X53210Y-49810
X54830Y-54150
X56010Y-49150
X57550Y-51430
X63600Y-62460
X64260Y-59660
X65880Y-64000
X67060Y-59000
X68600Y-61280
X41000Y-62460
X41660Y-59660
X43280Y-64000
X44460Y-59000
X46000Y-61280
X52150Y-62410
X52810Y-59610
X54430Y-63950
X55610Y-58950
X57150Y-61230
X41080Y-42760
X41740Y-39960
X43360Y-44300
X44540Y-39300
X46080Y-41580
X52150Y-42760
X52810Y-39960
X54430Y-44300
X55610Y-39300
X57150Y-41580
T5
X66100Y-61500
X54650Y-61450
X43580Y-41800
X54650Y-41800
X66100Y-41800
X43750Y-51650
X66260Y-51650
X55050Y-51650
X43500Y-61500
T0
M30
