G04 #@! TF.GenerationSoftware,KiCad,Pcbnew,5.0.0-fee4fd1~66~ubuntu18.04.1*
G04 #@! TF.CreationDate,2018-11-16T02:20:25-05:00*
G04 #@! TF.ProjectId,plugboard,706C7567626F6172642E6B696361645F,rev?*
G04 #@! TF.SameCoordinates,Original*
G04 #@! TF.FileFunction,Legend,Top*
G04 #@! TF.FilePolarity,Positive*
%FSLAX46Y46*%
G04 Gerber Fmt 4.6, Leading zero omitted, Abs format (unit mm)*
G04 Created by KiCad (PCBNEW 5.0.0-fee4fd1~66~ubuntu18.04.1) date Fri Nov 16 02:20:25 2018*
%MOMM*%
%LPD*%
G01*
G04 APERTURE LIST*
%ADD10C,0.300000*%
%ADD11C,0.120000*%
%ADD12C,0.152400*%
%ADD13C,0.150000*%
G04 APERTURE END LIST*
D10*
X99612142Y-83966857D02*
X100112142Y-83966857D01*
X100326428Y-84752571D02*
X99612142Y-84752571D01*
X99612142Y-83252571D01*
X100326428Y-83252571D01*
X100969285Y-83752571D02*
X100969285Y-84752571D01*
X100969285Y-83895428D02*
X101040714Y-83824000D01*
X101183571Y-83752571D01*
X101397857Y-83752571D01*
X101540714Y-83824000D01*
X101612142Y-83966857D01*
X101612142Y-84752571D01*
X102326428Y-84752571D02*
X102326428Y-83752571D01*
X102326428Y-83252571D02*
X102255000Y-83324000D01*
X102326428Y-83395428D01*
X102397857Y-83324000D01*
X102326428Y-83252571D01*
X102326428Y-83395428D01*
X103683571Y-83752571D02*
X103683571Y-84966857D01*
X103612142Y-85109714D01*
X103540714Y-85181142D01*
X103397857Y-85252571D01*
X103183571Y-85252571D01*
X103040714Y-85181142D01*
X103683571Y-84681142D02*
X103540714Y-84752571D01*
X103255000Y-84752571D01*
X103112142Y-84681142D01*
X103040714Y-84609714D01*
X102969285Y-84466857D01*
X102969285Y-84038285D01*
X103040714Y-83895428D01*
X103112142Y-83824000D01*
X103255000Y-83752571D01*
X103540714Y-83752571D01*
X103683571Y-83824000D01*
X104397857Y-84752571D02*
X104397857Y-83752571D01*
X104397857Y-83895428D02*
X104469285Y-83824000D01*
X104612142Y-83752571D01*
X104826428Y-83752571D01*
X104969285Y-83824000D01*
X105040714Y-83966857D01*
X105040714Y-84752571D01*
X105040714Y-83966857D02*
X105112142Y-83824000D01*
X105255000Y-83752571D01*
X105469285Y-83752571D01*
X105612142Y-83824000D01*
X105683571Y-83966857D01*
X105683571Y-84752571D01*
X107040714Y-84752571D02*
X107040714Y-83966857D01*
X106969285Y-83824000D01*
X106826428Y-83752571D01*
X106540714Y-83752571D01*
X106397857Y-83824000D01*
X107040714Y-84681142D02*
X106897857Y-84752571D01*
X106540714Y-84752571D01*
X106397857Y-84681142D01*
X106326428Y-84538285D01*
X106326428Y-84395428D01*
X106397857Y-84252571D01*
X106540714Y-84181142D01*
X106897857Y-84181142D01*
X107040714Y-84109714D01*
X108897857Y-84752571D02*
X108897857Y-83252571D01*
X109469285Y-83252571D01*
X109612142Y-83324000D01*
X109683571Y-83395428D01*
X109755000Y-83538285D01*
X109755000Y-83752571D01*
X109683571Y-83895428D01*
X109612142Y-83966857D01*
X109469285Y-84038285D01*
X108897857Y-84038285D01*
X110612142Y-84752571D02*
X110469285Y-84681142D01*
X110397857Y-84538285D01*
X110397857Y-83252571D01*
X111826428Y-83752571D02*
X111826428Y-84752571D01*
X111183571Y-83752571D02*
X111183571Y-84538285D01*
X111255000Y-84681142D01*
X111397857Y-84752571D01*
X111612142Y-84752571D01*
X111755000Y-84681142D01*
X111826428Y-84609714D01*
X113183571Y-83752571D02*
X113183571Y-84966857D01*
X113112142Y-85109714D01*
X113040714Y-85181142D01*
X112897857Y-85252571D01*
X112683571Y-85252571D01*
X112540714Y-85181142D01*
X113183571Y-84681142D02*
X113040714Y-84752571D01*
X112755000Y-84752571D01*
X112612142Y-84681142D01*
X112540714Y-84609714D01*
X112469285Y-84466857D01*
X112469285Y-84038285D01*
X112540714Y-83895428D01*
X112612142Y-83824000D01*
X112755000Y-83752571D01*
X113040714Y-83752571D01*
X113183571Y-83824000D01*
X113897857Y-84752571D02*
X113897857Y-83252571D01*
X113897857Y-83824000D02*
X114040714Y-83752571D01*
X114326428Y-83752571D01*
X114469285Y-83824000D01*
X114540714Y-83895428D01*
X114612142Y-84038285D01*
X114612142Y-84466857D01*
X114540714Y-84609714D01*
X114469285Y-84681142D01*
X114326428Y-84752571D01*
X114040714Y-84752571D01*
X113897857Y-84681142D01*
X115469285Y-84752571D02*
X115326428Y-84681142D01*
X115255000Y-84609714D01*
X115183571Y-84466857D01*
X115183571Y-84038285D01*
X115255000Y-83895428D01*
X115326428Y-83824000D01*
X115469285Y-83752571D01*
X115683571Y-83752571D01*
X115826428Y-83824000D01*
X115897857Y-83895428D01*
X115969285Y-84038285D01*
X115969285Y-84466857D01*
X115897857Y-84609714D01*
X115826428Y-84681142D01*
X115683571Y-84752571D01*
X115469285Y-84752571D01*
X117255000Y-84752571D02*
X117255000Y-83966857D01*
X117183571Y-83824000D01*
X117040714Y-83752571D01*
X116755000Y-83752571D01*
X116612142Y-83824000D01*
X117255000Y-84681142D02*
X117112142Y-84752571D01*
X116755000Y-84752571D01*
X116612142Y-84681142D01*
X116540714Y-84538285D01*
X116540714Y-84395428D01*
X116612142Y-84252571D01*
X116755000Y-84181142D01*
X117112142Y-84181142D01*
X117255000Y-84109714D01*
X117969285Y-84752571D02*
X117969285Y-83752571D01*
X117969285Y-84038285D02*
X118040714Y-83895428D01*
X118112142Y-83824000D01*
X118255000Y-83752571D01*
X118397857Y-83752571D01*
X119540714Y-84752571D02*
X119540714Y-83252571D01*
X119540714Y-84681142D02*
X119397857Y-84752571D01*
X119112142Y-84752571D01*
X118969285Y-84681142D01*
X118897857Y-84609714D01*
X118826428Y-84466857D01*
X118826428Y-84038285D01*
X118897857Y-83895428D01*
X118969285Y-83824000D01*
X119112142Y-83752571D01*
X119397857Y-83752571D01*
X119540714Y-83824000D01*
X104364571Y-179574000D02*
X105078857Y-179574000D01*
X104221714Y-180002571D02*
X104721714Y-178502571D01*
X105221714Y-180002571D01*
X105935999Y-180002571D02*
X105793142Y-179931142D01*
X105721714Y-179788285D01*
X105721714Y-178502571D01*
X106507428Y-179002571D02*
X106507428Y-180502571D01*
X106507428Y-179074000D02*
X106650285Y-179002571D01*
X106935999Y-179002571D01*
X107078857Y-179074000D01*
X107150285Y-179145428D01*
X107221714Y-179288285D01*
X107221714Y-179716857D01*
X107150285Y-179859714D01*
X107078857Y-179931142D01*
X106935999Y-180002571D01*
X106650285Y-180002571D01*
X106507428Y-179931142D01*
X107864571Y-180002571D02*
X107864571Y-178502571D01*
X108507428Y-180002571D02*
X108507428Y-179216857D01*
X108435999Y-179074000D01*
X108293142Y-179002571D01*
X108078857Y-179002571D01*
X107935999Y-179074000D01*
X107864571Y-179145428D01*
X109864571Y-180002571D02*
X109864571Y-179216857D01*
X109793142Y-179074000D01*
X109650285Y-179002571D01*
X109364571Y-179002571D01*
X109221714Y-179074000D01*
X109864571Y-179931142D02*
X109721714Y-180002571D01*
X109364571Y-180002571D01*
X109221714Y-179931142D01*
X109150285Y-179788285D01*
X109150285Y-179645428D01*
X109221714Y-179502571D01*
X109364571Y-179431142D01*
X109721714Y-179431142D01*
X109864571Y-179359714D01*
X110578857Y-180002571D02*
X110578857Y-178502571D01*
X110578857Y-179074000D02*
X110721714Y-179002571D01*
X111007428Y-179002571D01*
X111150285Y-179074000D01*
X111221714Y-179145428D01*
X111293142Y-179288285D01*
X111293142Y-179716857D01*
X111221714Y-179859714D01*
X111150285Y-179931142D01*
X111007428Y-180002571D01*
X110721714Y-180002571D01*
X110578857Y-179931142D01*
X112507428Y-179931142D02*
X112364571Y-180002571D01*
X112078857Y-180002571D01*
X111935999Y-179931142D01*
X111864571Y-179788285D01*
X111864571Y-179216857D01*
X111935999Y-179074000D01*
X112078857Y-179002571D01*
X112364571Y-179002571D01*
X112507428Y-179074000D01*
X112578857Y-179216857D01*
X112578857Y-179359714D01*
X111864571Y-179502571D01*
X113007428Y-179002571D02*
X113578857Y-179002571D01*
X113221714Y-178502571D02*
X113221714Y-179788285D01*
X113293142Y-179931142D01*
X113435999Y-180002571D01*
X113578857Y-180002571D01*
X116078857Y-180002571D02*
X115578857Y-179288285D01*
X115221714Y-180002571D02*
X115221714Y-178502571D01*
X115793142Y-178502571D01*
X115935999Y-178574000D01*
X116007428Y-178645428D01*
X116078857Y-178788285D01*
X116078857Y-179002571D01*
X116007428Y-179145428D01*
X115935999Y-179216857D01*
X115793142Y-179288285D01*
X115221714Y-179288285D01*
X117293142Y-179931142D02*
X117150285Y-180002571D01*
X116864571Y-180002571D01*
X116721714Y-179931142D01*
X116650285Y-179788285D01*
X116650285Y-179216857D01*
X116721714Y-179074000D01*
X116864571Y-179002571D01*
X117150285Y-179002571D01*
X117293142Y-179074000D01*
X117364571Y-179216857D01*
X117364571Y-179359714D01*
X116650285Y-179502571D01*
X117935999Y-179931142D02*
X118078857Y-180002571D01*
X118364571Y-180002571D01*
X118507428Y-179931142D01*
X118578857Y-179788285D01*
X118578857Y-179716857D01*
X118507428Y-179574000D01*
X118364571Y-179502571D01*
X118150285Y-179502571D01*
X118007428Y-179431142D01*
X117935999Y-179288285D01*
X117935999Y-179216857D01*
X118007428Y-179074000D01*
X118150285Y-179002571D01*
X118364571Y-179002571D01*
X118507428Y-179074000D01*
X119221714Y-180002571D02*
X119221714Y-179002571D01*
X119221714Y-178502571D02*
X119150285Y-178574000D01*
X119221714Y-178645428D01*
X119293142Y-178574000D01*
X119221714Y-178502571D01*
X119221714Y-178645428D01*
X119864571Y-179931142D02*
X120007428Y-180002571D01*
X120293142Y-180002571D01*
X120435999Y-179931142D01*
X120507428Y-179788285D01*
X120507428Y-179716857D01*
X120435999Y-179574000D01*
X120293142Y-179502571D01*
X120078857Y-179502571D01*
X119935999Y-179431142D01*
X119864571Y-179288285D01*
X119864571Y-179216857D01*
X119935999Y-179074000D01*
X120078857Y-179002571D01*
X120293142Y-179002571D01*
X120435999Y-179074000D01*
X120935999Y-179002571D02*
X121507428Y-179002571D01*
X121150285Y-178502571D02*
X121150285Y-179788285D01*
X121221714Y-179931142D01*
X121364571Y-180002571D01*
X121507428Y-180002571D01*
X122221714Y-180002571D02*
X122078857Y-179931142D01*
X122007428Y-179859714D01*
X121936000Y-179716857D01*
X121936000Y-179288285D01*
X122007428Y-179145428D01*
X122078857Y-179074000D01*
X122221714Y-179002571D01*
X122436000Y-179002571D01*
X122578857Y-179074000D01*
X122650285Y-179145428D01*
X122721714Y-179288285D01*
X122721714Y-179716857D01*
X122650285Y-179859714D01*
X122578857Y-179931142D01*
X122436000Y-180002571D01*
X122221714Y-180002571D01*
X123364571Y-180002571D02*
X123364571Y-179002571D01*
X123364571Y-179288285D02*
X123436000Y-179145428D01*
X123507428Y-179074000D01*
X123650285Y-179002571D01*
X123793142Y-179002571D01*
X126150285Y-180002571D02*
X125436000Y-180002571D01*
X125436000Y-178502571D01*
X126650285Y-180002571D02*
X126650285Y-179002571D01*
X126650285Y-178502571D02*
X126578857Y-178574000D01*
X126650285Y-178645428D01*
X126721714Y-178574000D01*
X126650285Y-178502571D01*
X126650285Y-178645428D01*
X127364571Y-179002571D02*
X127364571Y-180002571D01*
X127364571Y-179145428D02*
X127435999Y-179074000D01*
X127578857Y-179002571D01*
X127793142Y-179002571D01*
X127935999Y-179074000D01*
X128007428Y-179216857D01*
X128007428Y-180002571D01*
X129293142Y-179931142D02*
X129150285Y-180002571D01*
X128864571Y-180002571D01*
X128721714Y-179931142D01*
X128650285Y-179788285D01*
X128650285Y-179216857D01*
X128721714Y-179074000D01*
X128864571Y-179002571D01*
X129150285Y-179002571D01*
X129293142Y-179074000D01*
X129364571Y-179216857D01*
X129364571Y-179359714D01*
X128650285Y-179502571D01*
X131578857Y-180574000D02*
X131507428Y-180502571D01*
X131364571Y-180288285D01*
X131293142Y-180145428D01*
X131221714Y-179931142D01*
X131150285Y-179574000D01*
X131150285Y-179288285D01*
X131221714Y-178931142D01*
X131293142Y-178716857D01*
X131364571Y-178574000D01*
X131507428Y-178359714D01*
X131578857Y-178288285D01*
X132935999Y-180002571D02*
X132078857Y-180002571D01*
X132507428Y-180002571D02*
X132507428Y-178502571D01*
X132364571Y-178716857D01*
X132221714Y-178859714D01*
X132078857Y-178931142D01*
X133578857Y-180002571D02*
X133578857Y-178502571D01*
X134436000Y-180002571D02*
X133793142Y-179145428D01*
X134436000Y-178502571D02*
X133578857Y-179359714D01*
X136507428Y-178502571D02*
X136793142Y-178502571D01*
X136936000Y-178574000D01*
X137078857Y-178716857D01*
X137150285Y-179002571D01*
X137150285Y-179502571D01*
X137078857Y-179788285D01*
X136936000Y-179931142D01*
X136793142Y-180002571D01*
X136507428Y-180002571D01*
X136364571Y-179931142D01*
X136221714Y-179788285D01*
X136150285Y-179502571D01*
X136150285Y-179002571D01*
X136221714Y-178716857D01*
X136364571Y-178574000D01*
X136507428Y-178502571D01*
X137793142Y-180002571D02*
X137793142Y-178502571D01*
X138436000Y-180002571D02*
X138436000Y-179216857D01*
X138364571Y-179074000D01*
X138221714Y-179002571D01*
X138007428Y-179002571D01*
X137864571Y-179074000D01*
X137793142Y-179145428D01*
X139150285Y-180002571D02*
X139150285Y-179002571D01*
X139150285Y-179145428D02*
X139221714Y-179074000D01*
X139364571Y-179002571D01*
X139578857Y-179002571D01*
X139721714Y-179074000D01*
X139793142Y-179216857D01*
X139793142Y-180002571D01*
X139793142Y-179216857D02*
X139864571Y-179074000D01*
X140007428Y-179002571D01*
X140221714Y-179002571D01*
X140364571Y-179074000D01*
X140436000Y-179216857D01*
X140436000Y-180002571D01*
X141007428Y-180574000D02*
X141078857Y-180502571D01*
X141221714Y-180288285D01*
X141293142Y-180145428D01*
X141364571Y-179931142D01*
X141436000Y-179574000D01*
X141436000Y-179288285D01*
X141364571Y-178931142D01*
X141293142Y-178716857D01*
X141221714Y-178574000D01*
X141078857Y-178359714D01*
X141007428Y-178288285D01*
X174407285Y-90594571D02*
X173609000Y-90594571D01*
X174008142Y-90594571D02*
X174008142Y-89094571D01*
X173875095Y-89308857D01*
X173742047Y-89451714D01*
X173609000Y-89523142D01*
X176003857Y-89237428D02*
X176070380Y-89166000D01*
X176203428Y-89094571D01*
X176536047Y-89094571D01*
X176669095Y-89166000D01*
X176735619Y-89237428D01*
X176802142Y-89380285D01*
X176802142Y-89523142D01*
X176735619Y-89737428D01*
X175937333Y-90594571D01*
X176802142Y-90594571D01*
X178332190Y-89094571D02*
X179197000Y-89094571D01*
X178731333Y-89666000D01*
X178930904Y-89666000D01*
X179063952Y-89737428D01*
X179130476Y-89808857D01*
X179197000Y-89951714D01*
X179197000Y-90308857D01*
X179130476Y-90451714D01*
X179063952Y-90523142D01*
X178930904Y-90594571D01*
X178531761Y-90594571D01*
X178398714Y-90523142D01*
X178332190Y-90451714D01*
X166787285Y-90594571D02*
X165989000Y-90594571D01*
X166388142Y-90594571D02*
X166388142Y-89094571D01*
X166255095Y-89308857D01*
X166122047Y-89451714D01*
X165989000Y-89523142D01*
X168383857Y-89237428D02*
X168450380Y-89166000D01*
X168583428Y-89094571D01*
X168916047Y-89094571D01*
X169049095Y-89166000D01*
X169115619Y-89237428D01*
X169182142Y-89380285D01*
X169182142Y-89523142D01*
X169115619Y-89737428D01*
X168317333Y-90594571D01*
X169182142Y-90594571D01*
X170712190Y-89094571D02*
X171577000Y-89094571D01*
X171111333Y-89666000D01*
X171310904Y-89666000D01*
X171443952Y-89737428D01*
X171510476Y-89808857D01*
X171577000Y-89951714D01*
X171577000Y-90308857D01*
X171510476Y-90451714D01*
X171443952Y-90523142D01*
X171310904Y-90594571D01*
X170911761Y-90594571D01*
X170778714Y-90523142D01*
X170712190Y-90451714D01*
X159294285Y-90467571D02*
X158496000Y-90467571D01*
X158895142Y-90467571D02*
X158895142Y-88967571D01*
X158762095Y-89181857D01*
X158629047Y-89324714D01*
X158496000Y-89396142D01*
X160890857Y-89110428D02*
X160957380Y-89039000D01*
X161090428Y-88967571D01*
X161423047Y-88967571D01*
X161556095Y-89039000D01*
X161622619Y-89110428D01*
X161689142Y-89253285D01*
X161689142Y-89396142D01*
X161622619Y-89610428D01*
X160824333Y-90467571D01*
X161689142Y-90467571D01*
X163219190Y-88967571D02*
X164084000Y-88967571D01*
X163618333Y-89539000D01*
X163817904Y-89539000D01*
X163950952Y-89610428D01*
X164017476Y-89681857D01*
X164084000Y-89824714D01*
X164084000Y-90181857D01*
X164017476Y-90324714D01*
X163950952Y-90396142D01*
X163817904Y-90467571D01*
X163418761Y-90467571D01*
X163285714Y-90396142D01*
X163219190Y-90324714D01*
X150912285Y-90467571D02*
X150114000Y-90467571D01*
X150513142Y-90467571D02*
X150513142Y-88967571D01*
X150380095Y-89181857D01*
X150247047Y-89324714D01*
X150114000Y-89396142D01*
X152508857Y-89110428D02*
X152575380Y-89039000D01*
X152708428Y-88967571D01*
X153041047Y-88967571D01*
X153174095Y-89039000D01*
X153240619Y-89110428D01*
X153307142Y-89253285D01*
X153307142Y-89396142D01*
X153240619Y-89610428D01*
X152442333Y-90467571D01*
X153307142Y-90467571D01*
X154837190Y-88967571D02*
X155702000Y-88967571D01*
X155236333Y-89539000D01*
X155435904Y-89539000D01*
X155568952Y-89610428D01*
X155635476Y-89681857D01*
X155702000Y-89824714D01*
X155702000Y-90181857D01*
X155635476Y-90324714D01*
X155568952Y-90396142D01*
X155435904Y-90467571D01*
X155036761Y-90467571D01*
X154903714Y-90396142D01*
X154837190Y-90324714D01*
X128052285Y-91991571D02*
X127254000Y-91991571D01*
X127653142Y-91991571D02*
X127653142Y-90491571D01*
X127520095Y-90705857D01*
X127387047Y-90848714D01*
X127254000Y-90920142D01*
X129648857Y-90634428D02*
X129715380Y-90563000D01*
X129848428Y-90491571D01*
X130181047Y-90491571D01*
X130314095Y-90563000D01*
X130380619Y-90634428D01*
X130447142Y-90777285D01*
X130447142Y-90920142D01*
X130380619Y-91134428D01*
X129582333Y-91991571D01*
X130447142Y-91991571D01*
X131977190Y-90491571D02*
X132842000Y-90491571D01*
X132376333Y-91063000D01*
X132575904Y-91063000D01*
X132708952Y-91134428D01*
X132775476Y-91205857D01*
X132842000Y-91348714D01*
X132842000Y-91705857D01*
X132775476Y-91848714D01*
X132708952Y-91920142D01*
X132575904Y-91991571D01*
X132176761Y-91991571D01*
X132043714Y-91920142D01*
X131977190Y-91848714D01*
X123994333Y-90491571D02*
X124859142Y-90491571D01*
X124393476Y-91063000D01*
X124593047Y-91063000D01*
X124726095Y-91134428D01*
X124792619Y-91205857D01*
X124859142Y-91348714D01*
X124859142Y-91705857D01*
X124792619Y-91848714D01*
X124726095Y-91920142D01*
X124593047Y-91991571D01*
X124193904Y-91991571D01*
X124060857Y-91920142D01*
X123994333Y-91848714D01*
X119978714Y-90213571D02*
X119180428Y-90213571D01*
X119579571Y-90213571D02*
X119579571Y-88713571D01*
X119446523Y-88927857D01*
X119313476Y-89070714D01*
X119180428Y-89142142D01*
X121575285Y-88856428D02*
X121641809Y-88785000D01*
X121774857Y-88713571D01*
X122107476Y-88713571D01*
X122240523Y-88785000D01*
X122307047Y-88856428D01*
X122373571Y-88999285D01*
X122373571Y-89142142D01*
X122307047Y-89356428D01*
X121508761Y-90213571D01*
X122373571Y-90213571D01*
X112431285Y-90213571D02*
X111633000Y-90213571D01*
X112032142Y-90213571D02*
X112032142Y-88713571D01*
X111899095Y-88927857D01*
X111766047Y-89070714D01*
X111633000Y-89142142D01*
X114027857Y-88856428D02*
X114094380Y-88785000D01*
X114227428Y-88713571D01*
X114560047Y-88713571D01*
X114693095Y-88785000D01*
X114759619Y-88856428D01*
X114826142Y-88999285D01*
X114826142Y-89142142D01*
X114759619Y-89356428D01*
X113961333Y-90213571D01*
X114826142Y-90213571D01*
X116356190Y-88713571D02*
X117221000Y-88713571D01*
X116755333Y-89285000D01*
X116954904Y-89285000D01*
X117087952Y-89356428D01*
X117154476Y-89427857D01*
X117221000Y-89570714D01*
X117221000Y-89927857D01*
X117154476Y-90070714D01*
X117087952Y-90142142D01*
X116954904Y-90213571D01*
X116555761Y-90213571D01*
X116422714Y-90142142D01*
X116356190Y-90070714D01*
X106480428Y-88729428D02*
X106546952Y-88658000D01*
X106680000Y-88586571D01*
X107012619Y-88586571D01*
X107145666Y-88658000D01*
X107212190Y-88729428D01*
X107278714Y-88872285D01*
X107278714Y-89015142D01*
X107212190Y-89229428D01*
X106413904Y-90086571D01*
X107278714Y-90086571D01*
X108808761Y-88586571D02*
X109673571Y-88586571D01*
X109207904Y-89158000D01*
X109407476Y-89158000D01*
X109540523Y-89229428D01*
X109607047Y-89300857D01*
X109673571Y-89443714D01*
X109673571Y-89800857D01*
X109607047Y-89943714D01*
X109540523Y-90015142D01*
X109407476Y-90086571D01*
X109008333Y-90086571D01*
X108875285Y-90015142D01*
X108808761Y-89943714D01*
X99858285Y-90340571D02*
X99060000Y-90340571D01*
X99459142Y-90340571D02*
X99459142Y-88840571D01*
X99326095Y-89054857D01*
X99193047Y-89197714D01*
X99060000Y-89269142D01*
X101454857Y-88983428D02*
X101521380Y-88912000D01*
X101654428Y-88840571D01*
X101987047Y-88840571D01*
X102120095Y-88912000D01*
X102186619Y-88983428D01*
X102253142Y-89126285D01*
X102253142Y-89269142D01*
X102186619Y-89483428D01*
X101388333Y-90340571D01*
X102253142Y-90340571D01*
X103783190Y-88840571D02*
X104648000Y-88840571D01*
X104182333Y-89412000D01*
X104381904Y-89412000D01*
X104514952Y-89483428D01*
X104581476Y-89554857D01*
X104648000Y-89697714D01*
X104648000Y-90054857D01*
X104581476Y-90197714D01*
X104514952Y-90269142D01*
X104381904Y-90340571D01*
X103982761Y-90340571D01*
X103849714Y-90269142D01*
X103783190Y-90197714D01*
X105754714Y-172947390D02*
X104847571Y-172947390D01*
X105301142Y-172947390D02*
X105301142Y-171321790D01*
X105149952Y-171554019D01*
X104998761Y-171708838D01*
X104847571Y-171786247D01*
X107569000Y-171476609D02*
X107644595Y-171399200D01*
X107795785Y-171321790D01*
X108173761Y-171321790D01*
X108324952Y-171399200D01*
X108400547Y-171476609D01*
X108476142Y-171631428D01*
X108476142Y-171786247D01*
X108400547Y-172018476D01*
X107493404Y-172947390D01*
X108476142Y-172947390D01*
X110214833Y-171321790D02*
X111197571Y-171321790D01*
X110668404Y-171941066D01*
X110895190Y-171941066D01*
X111046380Y-172018476D01*
X111121976Y-172095885D01*
X111197571Y-172250704D01*
X111197571Y-172637752D01*
X111121976Y-172792571D01*
X111046380Y-172869980D01*
X110895190Y-172947390D01*
X110441619Y-172947390D01*
X110290428Y-172869980D01*
X110214833Y-172792571D01*
X113011857Y-171476609D02*
X113087452Y-171399200D01*
X113238642Y-171321790D01*
X113616619Y-171321790D01*
X113767809Y-171399200D01*
X113843404Y-171476609D01*
X113919000Y-171631428D01*
X113919000Y-171786247D01*
X113843404Y-172018476D01*
X112936261Y-172947390D01*
X113919000Y-172947390D01*
X115657690Y-171321790D02*
X116640428Y-171321790D01*
X116111261Y-171941066D01*
X116338047Y-171941066D01*
X116489238Y-172018476D01*
X116564833Y-172095885D01*
X116640428Y-172250704D01*
X116640428Y-172637752D01*
X116564833Y-172792571D01*
X116489238Y-172869980D01*
X116338047Y-172947390D01*
X115884476Y-172947390D01*
X115733285Y-172869980D01*
X115657690Y-172792571D01*
X119361857Y-172947390D02*
X118454714Y-172947390D01*
X118908285Y-172947390D02*
X118908285Y-171321790D01*
X118757095Y-171554019D01*
X118605904Y-171708838D01*
X118454714Y-171786247D01*
X121176142Y-171476609D02*
X121251738Y-171399200D01*
X121402928Y-171321790D01*
X121780904Y-171321790D01*
X121932095Y-171399200D01*
X122007690Y-171476609D01*
X122083285Y-171631428D01*
X122083285Y-171786247D01*
X122007690Y-172018476D01*
X121100547Y-172947390D01*
X122083285Y-172947390D01*
X123821976Y-171321790D02*
X124804714Y-171321790D01*
X124275547Y-171941066D01*
X124502333Y-171941066D01*
X124653523Y-172018476D01*
X124729119Y-172095885D01*
X124804714Y-172250704D01*
X124804714Y-172637752D01*
X124729119Y-172792571D01*
X124653523Y-172869980D01*
X124502333Y-172947390D01*
X124048761Y-172947390D01*
X123897571Y-172869980D01*
X123821976Y-172792571D01*
X127526142Y-172947390D02*
X126619000Y-172947390D01*
X127072571Y-172947390D02*
X127072571Y-171321790D01*
X126921380Y-171554019D01*
X126770190Y-171708838D01*
X126619000Y-171786247D01*
X129340428Y-171476609D02*
X129416023Y-171399200D01*
X129567214Y-171321790D01*
X129945190Y-171321790D01*
X130096380Y-171399200D01*
X130171976Y-171476609D01*
X130247571Y-171631428D01*
X130247571Y-171786247D01*
X130171976Y-172018476D01*
X129264833Y-172947390D01*
X130247571Y-172947390D01*
X131986261Y-171321790D02*
X132969000Y-171321790D01*
X132439833Y-171941066D01*
X132666619Y-171941066D01*
X132817809Y-172018476D01*
X132893404Y-172095885D01*
X132969000Y-172250704D01*
X132969000Y-172637752D01*
X132893404Y-172792571D01*
X132817809Y-172869980D01*
X132666619Y-172947390D01*
X132213047Y-172947390D01*
X132061857Y-172869980D01*
X131986261Y-172792571D01*
X135690428Y-172947390D02*
X134783285Y-172947390D01*
X135236857Y-172947390D02*
X135236857Y-171321790D01*
X135085666Y-171554019D01*
X134934476Y-171708838D01*
X134783285Y-171786247D01*
X137504714Y-171476609D02*
X137580309Y-171399200D01*
X137731500Y-171321790D01*
X138109476Y-171321790D01*
X138260666Y-171399200D01*
X138336261Y-171476609D01*
X138411857Y-171631428D01*
X138411857Y-171786247D01*
X138336261Y-172018476D01*
X137429119Y-172947390D01*
X138411857Y-172947390D01*
X140150547Y-171321790D02*
X141133285Y-171321790D01*
X140604119Y-171941066D01*
X140830904Y-171941066D01*
X140982095Y-172018476D01*
X141057690Y-172095885D01*
X141133285Y-172250704D01*
X141133285Y-172637752D01*
X141057690Y-172792571D01*
X140982095Y-172869980D01*
X140830904Y-172947390D01*
X140377333Y-172947390D01*
X140226142Y-172869980D01*
X140150547Y-172792571D01*
X143854714Y-172947390D02*
X142947571Y-172947390D01*
X143401142Y-172947390D02*
X143401142Y-171321790D01*
X143249952Y-171554019D01*
X143098761Y-171708838D01*
X142947571Y-171786247D01*
X145669000Y-171476609D02*
X145744595Y-171399200D01*
X145895785Y-171321790D01*
X146273761Y-171321790D01*
X146424952Y-171399200D01*
X146500547Y-171476609D01*
X146576142Y-171631428D01*
X146576142Y-171786247D01*
X146500547Y-172018476D01*
X145593404Y-172947390D01*
X146576142Y-172947390D01*
X148314833Y-171321790D02*
X149297571Y-171321790D01*
X148768404Y-171941066D01*
X148995190Y-171941066D01*
X149146380Y-172018476D01*
X149221976Y-172095885D01*
X149297571Y-172250704D01*
X149297571Y-172637752D01*
X149221976Y-172792571D01*
X149146380Y-172869980D01*
X148995190Y-172947390D01*
X148541619Y-172947390D01*
X148390428Y-172869980D01*
X148314833Y-172792571D01*
X152019000Y-172947390D02*
X151111857Y-172947390D01*
X151565428Y-172947390D02*
X151565428Y-171321790D01*
X151414238Y-171554019D01*
X151263047Y-171708838D01*
X151111857Y-171786247D01*
X153833285Y-171476609D02*
X153908880Y-171399200D01*
X154060071Y-171321790D01*
X154438047Y-171321790D01*
X154589238Y-171399200D01*
X154664833Y-171476609D01*
X154740428Y-171631428D01*
X154740428Y-171786247D01*
X154664833Y-172018476D01*
X153757690Y-172947390D01*
X154740428Y-172947390D01*
X156479119Y-171321790D02*
X157461857Y-171321790D01*
X156932690Y-171941066D01*
X157159476Y-171941066D01*
X157310666Y-172018476D01*
X157386261Y-172095885D01*
X157461857Y-172250704D01*
X157461857Y-172637752D01*
X157386261Y-172792571D01*
X157310666Y-172869980D01*
X157159476Y-172947390D01*
X156705904Y-172947390D01*
X156554714Y-172869980D01*
X156479119Y-172792571D01*
X160183285Y-172947390D02*
X159276142Y-172947390D01*
X159729714Y-172947390D02*
X159729714Y-171321790D01*
X159578523Y-171554019D01*
X159427333Y-171708838D01*
X159276142Y-171786247D01*
X161997571Y-171476609D02*
X162073166Y-171399200D01*
X162224357Y-171321790D01*
X162602333Y-171321790D01*
X162753523Y-171399200D01*
X162829119Y-171476609D01*
X162904714Y-171631428D01*
X162904714Y-171786247D01*
X162829119Y-172018476D01*
X161921976Y-172947390D01*
X162904714Y-172947390D01*
X164643404Y-171321790D02*
X165626142Y-171321790D01*
X165096976Y-171941066D01*
X165323761Y-171941066D01*
X165474952Y-172018476D01*
X165550547Y-172095885D01*
X165626142Y-172250704D01*
X165626142Y-172637752D01*
X165550547Y-172792571D01*
X165474952Y-172869980D01*
X165323761Y-172947390D01*
X164870190Y-172947390D01*
X164719000Y-172869980D01*
X164643404Y-172792571D01*
X168347571Y-172947390D02*
X167440428Y-172947390D01*
X167894000Y-172947390D02*
X167894000Y-171321790D01*
X167742809Y-171554019D01*
X167591619Y-171708838D01*
X167440428Y-171786247D01*
X170161857Y-171476609D02*
X170237452Y-171399200D01*
X170388642Y-171321790D01*
X170766619Y-171321790D01*
X170917809Y-171399200D01*
X170993404Y-171476609D01*
X171068999Y-171631428D01*
X171068999Y-171786247D01*
X170993404Y-172018476D01*
X170086261Y-172947390D01*
X171068999Y-172947390D01*
X172807690Y-171321790D02*
X173790428Y-171321790D01*
X173261261Y-171941066D01*
X173488047Y-171941066D01*
X173639238Y-172018476D01*
X173714833Y-172095885D01*
X173790428Y-172250704D01*
X173790428Y-172637752D01*
X173714833Y-172792571D01*
X173639238Y-172869980D01*
X173488047Y-172947390D01*
X173034476Y-172947390D01*
X172883285Y-172869980D01*
X172807690Y-172792571D01*
D11*
G04 #@! TO.C,C1*
X131025000Y-98163000D02*
X131025000Y-97163000D01*
X129325000Y-97163000D02*
X129325000Y-98163000D01*
G04 #@! TO.C,R1*
X106290000Y-175422000D02*
X106290000Y-176622000D01*
X104530000Y-176622000D02*
X104530000Y-175422000D01*
G04 #@! TO.C,R2*
X109002720Y-175422000D02*
X109002720Y-176622000D01*
X107242720Y-176622000D02*
X107242720Y-175422000D01*
G04 #@! TO.C,R3*
X111715440Y-175422000D02*
X111715440Y-176622000D01*
X109955440Y-176622000D02*
X109955440Y-175422000D01*
G04 #@! TO.C,R4*
X114428160Y-175422000D02*
X114428160Y-176622000D01*
X112668160Y-176622000D02*
X112668160Y-175422000D01*
G04 #@! TO.C,R5*
X117140880Y-175422000D02*
X117140880Y-176622000D01*
X115380880Y-176622000D02*
X115380880Y-175422000D01*
G04 #@! TO.C,R6*
X119853600Y-175422000D02*
X119853600Y-176622000D01*
X118093600Y-176622000D02*
X118093600Y-175422000D01*
G04 #@! TO.C,R7*
X120806320Y-176622000D02*
X120806320Y-175422000D01*
X122566320Y-175422000D02*
X122566320Y-176622000D01*
G04 #@! TO.C,R8*
X123519040Y-176622000D02*
X123519040Y-175422000D01*
X125279040Y-175422000D02*
X125279040Y-176622000D01*
G04 #@! TO.C,R9*
X127991760Y-175422000D02*
X127991760Y-176622000D01*
X126231760Y-176622000D02*
X126231760Y-175422000D01*
G04 #@! TO.C,R10*
X128944480Y-176622000D02*
X128944480Y-175422000D01*
X130704480Y-175422000D02*
X130704480Y-176622000D01*
G04 #@! TO.C,R11*
X131657200Y-176622000D02*
X131657200Y-175422000D01*
X133417200Y-175422000D02*
X133417200Y-176622000D01*
G04 #@! TO.C,R12*
X136129920Y-175422000D02*
X136129920Y-176622000D01*
X134369920Y-176622000D02*
X134369920Y-175422000D01*
G04 #@! TO.C,R13*
X138842640Y-175422000D02*
X138842640Y-176622000D01*
X137082640Y-176622000D02*
X137082640Y-175422000D01*
G04 #@! TO.C,R14*
X141555360Y-175422000D02*
X141555360Y-176622000D01*
X139795360Y-176622000D02*
X139795360Y-175422000D01*
G04 #@! TO.C,R15*
X144268080Y-175422000D02*
X144268080Y-176622000D01*
X142508080Y-176622000D02*
X142508080Y-175422000D01*
G04 #@! TO.C,R16*
X145220800Y-176622000D02*
X145220800Y-175422000D01*
X146980800Y-175422000D02*
X146980800Y-176622000D01*
G04 #@! TO.C,R17*
X147933520Y-176622000D02*
X147933520Y-175422000D01*
X149693520Y-175422000D02*
X149693520Y-176622000D01*
G04 #@! TO.C,R18*
X152406240Y-175422000D02*
X152406240Y-176622000D01*
X150646240Y-176622000D02*
X150646240Y-175422000D01*
G04 #@! TO.C,R19*
X153358960Y-176622000D02*
X153358960Y-175422000D01*
X155118960Y-175422000D02*
X155118960Y-176622000D01*
G04 #@! TO.C,R20*
X156071680Y-176622000D02*
X156071680Y-175422000D01*
X157831680Y-175422000D02*
X157831680Y-176622000D01*
G04 #@! TO.C,R21*
X158784400Y-176622000D02*
X158784400Y-175422000D01*
X160544400Y-175422000D02*
X160544400Y-176622000D01*
G04 #@! TO.C,R22*
X163257120Y-175422000D02*
X163257120Y-176622000D01*
X161497120Y-176622000D02*
X161497120Y-175422000D01*
G04 #@! TO.C,R23*
X164209840Y-176622000D02*
X164209840Y-175422000D01*
X165969840Y-175422000D02*
X165969840Y-176622000D01*
G04 #@! TO.C,R24*
X166922560Y-176622000D02*
X166922560Y-175422000D01*
X168682560Y-175422000D02*
X168682560Y-176622000D01*
G04 #@! TO.C,R25*
X171395280Y-175422000D02*
X171395280Y-176622000D01*
X169635280Y-176622000D02*
X169635280Y-175422000D01*
G04 #@! TO.C,R26*
X174108000Y-175422000D02*
X174108000Y-176622000D01*
X172348000Y-176622000D02*
X172348000Y-175422000D01*
G04 #@! TO.C,R27*
X106163000Y-168556662D02*
X106163000Y-169756662D01*
X104403000Y-169756662D02*
X104403000Y-168556662D01*
G04 #@! TO.C,R28*
X107125880Y-169756662D02*
X107125880Y-168556662D01*
X108885880Y-168556662D02*
X108885880Y-169756662D01*
G04 #@! TO.C,R29*
X109848760Y-169756662D02*
X109848760Y-168556662D01*
X111608760Y-168556662D02*
X111608760Y-169756662D01*
G04 #@! TO.C,R30*
X126186040Y-169756662D02*
X126186040Y-168556662D01*
X127946040Y-168556662D02*
X127946040Y-169756662D01*
G04 #@! TO.C,R31*
X130668920Y-168556662D02*
X130668920Y-169756662D01*
X128908920Y-169756662D02*
X128908920Y-168556662D01*
G04 #@! TO.C,R32*
X133391800Y-168556662D02*
X133391800Y-169756662D01*
X131631800Y-169756662D02*
X131631800Y-168556662D01*
G04 #@! TO.C,R33*
X152451960Y-168556662D02*
X152451960Y-169756662D01*
X150691960Y-169756662D02*
X150691960Y-168556662D01*
G04 #@! TO.C,R34*
X155174840Y-168556662D02*
X155174840Y-169756662D01*
X153414840Y-169756662D02*
X153414840Y-168556662D01*
G04 #@! TO.C,R35*
X156137720Y-169756662D02*
X156137720Y-168556662D01*
X157897720Y-168556662D02*
X157897720Y-169756662D01*
G04 #@! TO.C,R36*
X100342165Y-91729000D02*
X100342165Y-92929000D01*
X98582165Y-92929000D02*
X98582165Y-91729000D01*
G04 #@! TO.C,R37*
X102672850Y-91729000D02*
X102672850Y-92929000D01*
X100912850Y-92929000D02*
X100912850Y-91729000D01*
G04 #@! TO.C,R38*
X103243535Y-92929000D02*
X103243535Y-91729000D01*
X105003535Y-91729000D02*
X105003535Y-92929000D01*
G04 #@! TO.C,R39*
X120494371Y-91695672D02*
X120494371Y-92895672D01*
X118734371Y-92895672D02*
X118734371Y-91695672D01*
G04 #@! TO.C,R40*
X122825056Y-91695672D02*
X122825056Y-92895672D01*
X121065056Y-92895672D02*
X121065056Y-91695672D01*
G04 #@! TO.C,R41*
X125282741Y-93473672D02*
X125282741Y-94673672D01*
X123522741Y-94673672D02*
X123522741Y-93473672D01*
G04 #@! TO.C,R42*
X159792275Y-91983000D02*
X159792275Y-93183000D01*
X158032275Y-93183000D02*
X158032275Y-91983000D01*
G04 #@! TO.C,R43*
X160362960Y-93183000D02*
X160362960Y-91983000D01*
X162122960Y-91983000D02*
X162122960Y-93183000D01*
G04 #@! TO.C,R44*
X164453645Y-91983000D02*
X164453645Y-93183000D01*
X162693645Y-93183000D02*
X162693645Y-91983000D01*
G04 #@! TO.C,R45*
X125384000Y-96783000D02*
X126584000Y-96783000D01*
X126584000Y-98543000D02*
X125384000Y-98543000D01*
G04 #@! TO.C,R46*
X114331640Y-168556662D02*
X114331640Y-169756662D01*
X112571640Y-169756662D02*
X112571640Y-168556662D01*
G04 #@! TO.C,R47*
X117054520Y-168556662D02*
X117054520Y-169756662D01*
X115294520Y-169756662D02*
X115294520Y-168556662D01*
G04 #@! TO.C,R48*
X134354680Y-169756662D02*
X134354680Y-168556662D01*
X136114680Y-168556662D02*
X136114680Y-169756662D01*
G04 #@! TO.C,R49*
X137077560Y-169756662D02*
X137077560Y-168556662D01*
X138837560Y-168556662D02*
X138837560Y-169756662D01*
G04 #@! TO.C,R50*
X139800440Y-169756662D02*
X139800440Y-168556662D01*
X141560440Y-168556662D02*
X141560440Y-169756662D01*
G04 #@! TO.C,R51*
X160620600Y-168556662D02*
X160620600Y-169756662D01*
X158860600Y-169756662D02*
X158860600Y-168556662D01*
G04 #@! TO.C,R52*
X161583480Y-169756662D02*
X161583480Y-168556662D01*
X163343480Y-168556662D02*
X163343480Y-169756662D01*
G04 #@! TO.C,R53*
X166066360Y-168556662D02*
X166066360Y-169756662D01*
X164306360Y-169756662D02*
X164306360Y-168556662D01*
G04 #@! TO.C,R54*
X106117495Y-92929000D02*
X106117495Y-91729000D01*
X107877495Y-91729000D02*
X107877495Y-92929000D01*
G04 #@! TO.C,R55*
X108448180Y-92929000D02*
X108448180Y-91729000D01*
X110208180Y-91729000D02*
X110208180Y-92929000D01*
G04 #@! TO.C,R56*
X126653865Y-94580000D02*
X126653865Y-93380000D01*
X128413865Y-93380000D02*
X128413865Y-94580000D01*
G04 #@! TO.C,R57*
X130744550Y-93380000D02*
X130744550Y-94580000D01*
X128984550Y-94580000D02*
X128984550Y-93380000D01*
G04 #@! TO.C,R58*
X131315235Y-94580000D02*
X131315235Y-93380000D01*
X133075235Y-93380000D02*
X133075235Y-94580000D01*
G04 #@! TO.C,R59*
X167155920Y-92110000D02*
X167155920Y-93310000D01*
X165395920Y-93310000D02*
X165395920Y-92110000D01*
G04 #@! TO.C,R60*
X167726605Y-93310000D02*
X167726605Y-92110000D01*
X169486605Y-92110000D02*
X169486605Y-93310000D01*
G04 #@! TO.C,R61*
X171817290Y-92110000D02*
X171817290Y-93310000D01*
X170057290Y-93310000D02*
X170057290Y-92110000D01*
G04 #@! TO.C,R62*
X118017400Y-169756662D02*
X118017400Y-168556662D01*
X119777400Y-168556662D02*
X119777400Y-169756662D01*
G04 #@! TO.C,R63*
X120740280Y-169756662D02*
X120740280Y-168556662D01*
X122500280Y-168556662D02*
X122500280Y-169756662D01*
G04 #@! TO.C,R64*
X125223160Y-168556662D02*
X125223160Y-169756662D01*
X123463160Y-169756662D02*
X123463160Y-168556662D01*
G04 #@! TO.C,R65*
X144283320Y-168556662D02*
X144283320Y-169756662D01*
X142523320Y-169756662D02*
X142523320Y-168556662D01*
G04 #@! TO.C,R66*
X147006200Y-168556662D02*
X147006200Y-169756662D01*
X145246200Y-169756662D02*
X145246200Y-168556662D01*
G04 #@! TO.C,R67*
X147969080Y-169756662D02*
X147969080Y-168556662D01*
X149729080Y-168556662D02*
X149729080Y-169756662D01*
G04 #@! TO.C,R68*
X167029240Y-169756662D02*
X167029240Y-168556662D01*
X168789240Y-168556662D02*
X168789240Y-169756662D01*
G04 #@! TO.C,R69*
X171512120Y-168556662D02*
X171512120Y-169756662D01*
X169752120Y-169756662D02*
X169752120Y-168556662D01*
G04 #@! TO.C,R70*
X174235000Y-168556662D02*
X174235000Y-169756662D01*
X172475000Y-169756662D02*
X172475000Y-168556662D01*
G04 #@! TO.C,R71*
X111195140Y-92929000D02*
X111195140Y-91729000D01*
X112955140Y-91729000D02*
X112955140Y-92929000D01*
G04 #@! TO.C,R72*
X115285825Y-91729000D02*
X115285825Y-92929000D01*
X113525825Y-92929000D02*
X113525825Y-91729000D01*
G04 #@! TO.C,R73*
X115856510Y-92929000D02*
X115856510Y-91729000D01*
X117616510Y-91729000D02*
X117616510Y-92929000D01*
G04 #@! TO.C,R74*
X151443195Y-92110000D02*
X151443195Y-93310000D01*
X149683195Y-93310000D02*
X149683195Y-92110000D01*
G04 #@! TO.C,R75*
X153773880Y-92110000D02*
X153773880Y-93310000D01*
X152013880Y-93310000D02*
X152013880Y-92110000D01*
G04 #@! TO.C,R76*
X154344565Y-93310000D02*
X154344565Y-92110000D01*
X156104565Y-92110000D02*
X156104565Y-93310000D01*
G04 #@! TO.C,R77*
X174945250Y-91983000D02*
X174945250Y-93183000D01*
X173185250Y-93183000D02*
X173185250Y-91983000D01*
G04 #@! TO.C,R78*
X175515935Y-93183000D02*
X175515935Y-91983000D01*
X177275935Y-91983000D02*
X177275935Y-93183000D01*
G04 #@! TO.C,R79*
X177846620Y-93183000D02*
X177846620Y-91983000D01*
X179606620Y-91983000D02*
X179606620Y-93183000D01*
G04 #@! TO.C,R80*
X125187000Y-121993305D02*
X123987000Y-121993305D01*
X123987000Y-120233305D02*
X125187000Y-120233305D01*
G04 #@! TO.C,R81*
X125187000Y-124324000D02*
X123987000Y-124324000D01*
X123987000Y-122564000D02*
X125187000Y-122564000D01*
D12*
G04 #@! TO.C,U1*
X136067800Y-92024200D02*
X136477560Y-92024200D01*
X143332200Y-92024200D02*
X143332200Y-91614440D01*
X143332200Y-84759800D02*
X142922440Y-84759800D01*
X136067800Y-84759800D02*
X136067800Y-85169560D01*
X136067800Y-91614440D02*
X136067800Y-92024200D01*
X142922440Y-92024200D02*
X143332200Y-92024200D01*
X143332200Y-85169560D02*
X143332200Y-84759800D01*
X136477560Y-84759800D02*
X136067800Y-84759800D01*
X134340600Y-89951499D02*
X134340600Y-90332499D01*
X134340600Y-90332499D02*
X134594600Y-90332499D01*
X134594600Y-90332499D02*
X134594600Y-89951499D01*
X134594600Y-89951499D02*
X134340600Y-89951499D01*
X140259501Y-93497400D02*
X140259501Y-93751400D01*
X140259501Y-93751400D02*
X140640501Y-93751400D01*
X140640501Y-93751400D02*
X140640501Y-93497400D01*
X140640501Y-93497400D02*
X140259501Y-93497400D01*
X145059400Y-88451499D02*
X145059400Y-88832500D01*
X145059400Y-88832500D02*
X144805400Y-88832500D01*
X144805400Y-88832500D02*
X144805400Y-88451499D01*
X144805400Y-88451499D02*
X145059400Y-88451499D01*
X140759500Y-83286600D02*
X140759500Y-83032600D01*
X140759500Y-83032600D02*
X141140500Y-83032600D01*
X141140500Y-83032600D02*
X141140500Y-83286600D01*
X141140500Y-83286600D02*
X140759500Y-83286600D01*
G04 #@! TO.C,C1*
D13*
X132032142Y-97829666D02*
X132079761Y-97877285D01*
X132127380Y-98020142D01*
X132127380Y-98115380D01*
X132079761Y-98258238D01*
X131984523Y-98353476D01*
X131889285Y-98401095D01*
X131698809Y-98448714D01*
X131555952Y-98448714D01*
X131365476Y-98401095D01*
X131270238Y-98353476D01*
X131175000Y-98258238D01*
X131127380Y-98115380D01*
X131127380Y-98020142D01*
X131175000Y-97877285D01*
X131222619Y-97829666D01*
X132127380Y-96877285D02*
X132127380Y-97448714D01*
X132127380Y-97163000D02*
X131127380Y-97163000D01*
X131270238Y-97258238D01*
X131365476Y-97353476D01*
X131413095Y-97448714D01*
G04 #@! TO.C,R45*
X122166142Y-98242380D02*
X121832809Y-97766190D01*
X121594714Y-98242380D02*
X121594714Y-97242380D01*
X121975666Y-97242380D01*
X122070904Y-97290000D01*
X122118523Y-97337619D01*
X122166142Y-97432857D01*
X122166142Y-97575714D01*
X122118523Y-97670952D01*
X122070904Y-97718571D01*
X121975666Y-97766190D01*
X121594714Y-97766190D01*
X123023285Y-97575714D02*
X123023285Y-98242380D01*
X122785190Y-97194761D02*
X122547095Y-97909047D01*
X123166142Y-97909047D01*
X124023285Y-97242380D02*
X123547095Y-97242380D01*
X123499476Y-97718571D01*
X123547095Y-97670952D01*
X123642333Y-97623333D01*
X123880428Y-97623333D01*
X123975666Y-97670952D01*
X124023285Y-97718571D01*
X124070904Y-97813809D01*
X124070904Y-98051904D01*
X124023285Y-98147142D01*
X123975666Y-98194761D01*
X123880428Y-98242380D01*
X123642333Y-98242380D01*
X123547095Y-98194761D01*
X123499476Y-98147142D01*
G04 #@! TO.C,R80*
X126992142Y-121565685D02*
X126658809Y-121089495D01*
X126420714Y-121565685D02*
X126420714Y-120565685D01*
X126801666Y-120565685D01*
X126896904Y-120613305D01*
X126944523Y-120660924D01*
X126992142Y-120756162D01*
X126992142Y-120899019D01*
X126944523Y-120994257D01*
X126896904Y-121041876D01*
X126801666Y-121089495D01*
X126420714Y-121089495D01*
X127563571Y-120994257D02*
X127468333Y-120946638D01*
X127420714Y-120899019D01*
X127373095Y-120803781D01*
X127373095Y-120756162D01*
X127420714Y-120660924D01*
X127468333Y-120613305D01*
X127563571Y-120565685D01*
X127754047Y-120565685D01*
X127849285Y-120613305D01*
X127896904Y-120660924D01*
X127944523Y-120756162D01*
X127944523Y-120803781D01*
X127896904Y-120899019D01*
X127849285Y-120946638D01*
X127754047Y-120994257D01*
X127563571Y-120994257D01*
X127468333Y-121041876D01*
X127420714Y-121089495D01*
X127373095Y-121184733D01*
X127373095Y-121375209D01*
X127420714Y-121470447D01*
X127468333Y-121518066D01*
X127563571Y-121565685D01*
X127754047Y-121565685D01*
X127849285Y-121518066D01*
X127896904Y-121470447D01*
X127944523Y-121375209D01*
X127944523Y-121184733D01*
X127896904Y-121089495D01*
X127849285Y-121041876D01*
X127754047Y-120994257D01*
X128563571Y-120565685D02*
X128658809Y-120565685D01*
X128754047Y-120613305D01*
X128801666Y-120660924D01*
X128849285Y-120756162D01*
X128896904Y-120946638D01*
X128896904Y-121184733D01*
X128849285Y-121375209D01*
X128801666Y-121470447D01*
X128754047Y-121518066D01*
X128658809Y-121565685D01*
X128563571Y-121565685D01*
X128468333Y-121518066D01*
X128420714Y-121470447D01*
X128373095Y-121375209D01*
X128325476Y-121184733D01*
X128325476Y-120946638D01*
X128373095Y-120756162D01*
X128420714Y-120660924D01*
X128468333Y-120613305D01*
X128563571Y-120565685D01*
G04 #@! TO.C,R81*
X126992142Y-124023380D02*
X126658809Y-123547190D01*
X126420714Y-124023380D02*
X126420714Y-123023380D01*
X126801666Y-123023380D01*
X126896904Y-123071000D01*
X126944523Y-123118619D01*
X126992142Y-123213857D01*
X126992142Y-123356714D01*
X126944523Y-123451952D01*
X126896904Y-123499571D01*
X126801666Y-123547190D01*
X126420714Y-123547190D01*
X127563571Y-123451952D02*
X127468333Y-123404333D01*
X127420714Y-123356714D01*
X127373095Y-123261476D01*
X127373095Y-123213857D01*
X127420714Y-123118619D01*
X127468333Y-123071000D01*
X127563571Y-123023380D01*
X127754047Y-123023380D01*
X127849285Y-123071000D01*
X127896904Y-123118619D01*
X127944523Y-123213857D01*
X127944523Y-123261476D01*
X127896904Y-123356714D01*
X127849285Y-123404333D01*
X127754047Y-123451952D01*
X127563571Y-123451952D01*
X127468333Y-123499571D01*
X127420714Y-123547190D01*
X127373095Y-123642428D01*
X127373095Y-123832904D01*
X127420714Y-123928142D01*
X127468333Y-123975761D01*
X127563571Y-124023380D01*
X127754047Y-124023380D01*
X127849285Y-123975761D01*
X127896904Y-123928142D01*
X127944523Y-123832904D01*
X127944523Y-123642428D01*
X127896904Y-123547190D01*
X127849285Y-123499571D01*
X127754047Y-123451952D01*
X128896904Y-124023380D02*
X128325476Y-124023380D01*
X128611190Y-124023380D02*
X128611190Y-123023380D01*
X128515952Y-123166238D01*
X128420714Y-123261476D01*
X128325476Y-123309095D01*
G04 #@! TO.C,U1*
X138938095Y-87844380D02*
X138938095Y-88653904D01*
X138985714Y-88749142D01*
X139033333Y-88796761D01*
X139128571Y-88844380D01*
X139319047Y-88844380D01*
X139414285Y-88796761D01*
X139461904Y-88749142D01*
X139509523Y-88653904D01*
X139509523Y-87844380D01*
X140509523Y-88844380D02*
X139938095Y-88844380D01*
X140223809Y-88844380D02*
X140223809Y-87844380D01*
X140128571Y-87987238D01*
X140033333Y-88082476D01*
X139938095Y-88130095D01*
X143510333Y-84240666D02*
X143986523Y-84240666D01*
X143415095Y-84526380D02*
X143748428Y-83526380D01*
X144081761Y-84526380D01*
X144415095Y-84526380D02*
X144415095Y-83526380D01*
X144653190Y-83526380D01*
X144796047Y-83574000D01*
X144891285Y-83669238D01*
X144938904Y-83764476D01*
X144986523Y-83954952D01*
X144986523Y-84097809D01*
X144938904Y-84288285D01*
X144891285Y-84383523D01*
X144796047Y-84478761D01*
X144653190Y-84526380D01*
X144415095Y-84526380D01*
X145938904Y-83574000D02*
X145843666Y-83526380D01*
X145700809Y-83526380D01*
X145557952Y-83574000D01*
X145462714Y-83669238D01*
X145415095Y-83764476D01*
X145367476Y-83954952D01*
X145367476Y-84097809D01*
X145415095Y-84288285D01*
X145462714Y-84383523D01*
X145557952Y-84478761D01*
X145700809Y-84526380D01*
X145796047Y-84526380D01*
X145938904Y-84478761D01*
X145986523Y-84431142D01*
X145986523Y-84097809D01*
X145796047Y-84097809D01*
X146319857Y-83526380D02*
X146986523Y-83526380D01*
X146557952Y-84526380D01*
X147272238Y-83526380D02*
X147891285Y-83526380D01*
X147557952Y-83907333D01*
X147700809Y-83907333D01*
X147796047Y-83954952D01*
X147843666Y-84002571D01*
X147891285Y-84097809D01*
X147891285Y-84335904D01*
X147843666Y-84431142D01*
X147796047Y-84478761D01*
X147700809Y-84526380D01*
X147415095Y-84526380D01*
X147319857Y-84478761D01*
X147272238Y-84431142D01*
X148272238Y-83621619D02*
X148319857Y-83574000D01*
X148415095Y-83526380D01*
X148653190Y-83526380D01*
X148748428Y-83574000D01*
X148796047Y-83621619D01*
X148843666Y-83716857D01*
X148843666Y-83812095D01*
X148796047Y-83954952D01*
X148224619Y-84526380D01*
X148843666Y-84526380D01*
X134213600Y-84463380D02*
X134213600Y-84701476D01*
X133975504Y-84606238D02*
X134213600Y-84701476D01*
X134451695Y-84606238D01*
X134070742Y-84891952D02*
X134213600Y-84701476D01*
X134356457Y-84891952D01*
G04 #@! TD*
M02*
