G04 #@! TF.GenerationSoftware,KiCad,Pcbnew,5.0.0-fee4fd1~66~ubuntu18.04.1*
G04 #@! TF.CreationDate,2018-11-16T02:20:25-05:00*
G04 #@! TF.ProjectId,plugboard,706C7567626F6172642E6B696361645F,rev?*
G04 #@! TF.SameCoordinates,Original*
G04 #@! TF.FileFunction,Copper,L2,Bot,Signal*
G04 #@! TF.FilePolarity,Positive*
%FSLAX46Y46*%
G04 Gerber Fmt 4.6, Leading zero omitted, Abs format (unit mm)*
G04 Created by KiCad (PCBNEW 5.0.0-fee4fd1~66~ubuntu18.04.1) date Fri Nov 16 02:20:25 2018*
%MOMM*%
%LPD*%
G01*
G04 APERTURE LIST*
G04 #@! TA.AperFunction,ComponentPad*
%ADD10C,3.556000*%
G04 #@! TD*
G04 #@! TA.AperFunction,ComponentPad*
%ADD11C,6.858000*%
G04 #@! TD*
G04 #@! TA.AperFunction,ComponentPad*
%ADD12C,1.524000*%
G04 #@! TD*
G04 #@! TA.AperFunction,ComponentPad*
%ADD13R,1.400000X1.400000*%
G04 #@! TD*
G04 #@! TA.AperFunction,ComponentPad*
%ADD14C,1.400000*%
G04 #@! TD*
G04 #@! TA.AperFunction,ViaPad*
%ADD15C,0.609600*%
G04 #@! TD*
G04 #@! TA.AperFunction,Conductor*
%ADD16C,0.152400*%
G04 #@! TD*
G04 APERTURE END LIST*
D10*
G04 #@! TO.P,J2,4*
G04 #@! TO.N,N/C*
X141249400Y-99822000D03*
G04 #@! TO.P,J2,1*
G04 #@! TO.N,Net-(J2-Pad1)*
X134137400Y-101498400D03*
G04 #@! TO.P,J2,5*
G04 #@! TO.N,N/C*
X132461000Y-108610400D03*
G04 #@! TO.P,J2,3*
G04 #@! TO.N,Net-(J2-Pad3)*
X145161000Y-105613200D03*
G04 #@! TO.P,J2,2*
G04 #@! TO.N,Net-(J2-Pad2)*
X138252200Y-112522000D03*
D11*
G04 #@! TO.P,J2,0*
G04 #@! TO.N,N/C*
X138811000Y-106172000D03*
G04 #@! TD*
D10*
G04 #@! TO.P,J1,4*
G04 #@! TO.N,N/C*
X113131600Y-99822000D03*
G04 #@! TO.P,J1,1*
G04 #@! TO.N,Net-(J1-Pad1)*
X106019600Y-101498400D03*
G04 #@! TO.P,J1,5*
G04 #@! TO.N,N/C*
X104343200Y-108610400D03*
G04 #@! TO.P,J1,3*
G04 #@! TO.N,Net-(J1-Pad3)*
X117043200Y-105613200D03*
G04 #@! TO.P,J1,2*
G04 #@! TO.N,Net-(J1-Pad2)*
X110134400Y-112522000D03*
D11*
G04 #@! TO.P,J1,0*
G04 #@! TO.N,N/C*
X110693200Y-106172000D03*
G04 #@! TD*
D10*
G04 #@! TO.P,J9,4*
G04 #@! TO.N,N/C*
X141249400Y-149733000D03*
G04 #@! TO.P,J9,1*
G04 #@! TO.N,Net-(J9-Pad1)*
X134137400Y-151409400D03*
G04 #@! TO.P,J9,5*
G04 #@! TO.N,N/C*
X132461000Y-158521400D03*
G04 #@! TO.P,J9,3*
G04 #@! TO.N,Net-(J9-Pad3)*
X145161000Y-155524200D03*
G04 #@! TO.P,J9,2*
G04 #@! TO.N,Net-(J9-Pad2)*
X138252200Y-162433000D03*
D11*
G04 #@! TO.P,J9,0*
G04 #@! TO.N,N/C*
X138811000Y-156083000D03*
G04 #@! TD*
D10*
G04 #@! TO.P,J8,4*
G04 #@! TO.N,N/C*
X112928400Y-149860000D03*
G04 #@! TO.P,J8,1*
G04 #@! TO.N,Net-(J8-Pad1)*
X105816400Y-151536400D03*
G04 #@! TO.P,J8,5*
G04 #@! TO.N,N/C*
X104140000Y-158648400D03*
G04 #@! TO.P,J8,3*
G04 #@! TO.N,Net-(J8-Pad3)*
X116840000Y-155651200D03*
G04 #@! TO.P,J8,2*
G04 #@! TO.N,Net-(J8-Pad2)*
X109931200Y-162560000D03*
D11*
G04 #@! TO.P,J8,0*
G04 #@! TO.N,N/C*
X110490000Y-156210000D03*
G04 #@! TD*
D10*
G04 #@! TO.P,J3,4*
G04 #@! TO.N,N/C*
X170332400Y-99822000D03*
G04 #@! TO.P,J3,1*
G04 #@! TO.N,Net-(J3-Pad1)*
X163220400Y-101498400D03*
G04 #@! TO.P,J3,5*
G04 #@! TO.N,N/C*
X161544000Y-108610400D03*
G04 #@! TO.P,J3,3*
G04 #@! TO.N,Net-(J3-Pad3)*
X174244000Y-105613200D03*
G04 #@! TO.P,J3,2*
G04 #@! TO.N,Net-(J3-Pad2)*
X167335200Y-112522000D03*
D11*
G04 #@! TO.P,J3,0*
G04 #@! TO.N,N/C*
X167894000Y-106172000D03*
G04 #@! TD*
D10*
G04 #@! TO.P,J5,4*
G04 #@! TO.N,N/C*
X142265400Y-124841000D03*
G04 #@! TO.P,J5,1*
G04 #@! TO.N,Net-(J5-Pad1)*
X135153400Y-126517400D03*
G04 #@! TO.P,J5,5*
G04 #@! TO.N,N/C*
X133477000Y-133629400D03*
G04 #@! TO.P,J5,3*
G04 #@! TO.N,Net-(J5-Pad3)*
X146177000Y-130632200D03*
G04 #@! TO.P,J5,2*
G04 #@! TO.N,Net-(J5-Pad2)*
X139268200Y-137541000D03*
D11*
G04 #@! TO.P,J5,0*
G04 #@! TO.N,N/C*
X139827000Y-131191000D03*
G04 #@! TD*
D10*
G04 #@! TO.P,J6,4*
G04 #@! TO.N,N/C*
X170738800Y-124841000D03*
G04 #@! TO.P,J6,1*
G04 #@! TO.N,Net-(J6-Pad1)*
X163626800Y-126517400D03*
G04 #@! TO.P,J6,5*
G04 #@! TO.N,N/C*
X161950400Y-133629400D03*
G04 #@! TO.P,J6,3*
G04 #@! TO.N,Net-(J6-Pad3)*
X174650400Y-130632200D03*
G04 #@! TO.P,J6,2*
G04 #@! TO.N,Net-(J6-Pad2)*
X167741600Y-137541000D03*
D11*
G04 #@! TO.P,J6,0*
G04 #@! TO.N,N/C*
X168300400Y-131191000D03*
G04 #@! TD*
D10*
G04 #@! TO.P,J4,4*
G04 #@! TO.N,N/C*
X113563400Y-124841000D03*
G04 #@! TO.P,J4,1*
G04 #@! TO.N,Net-(J4-Pad1)*
X106451400Y-126517400D03*
G04 #@! TO.P,J4,5*
G04 #@! TO.N,N/C*
X104775000Y-133629400D03*
G04 #@! TO.P,J4,3*
G04 #@! TO.N,Net-(J4-Pad3)*
X117475000Y-130632200D03*
G04 #@! TO.P,J4,2*
G04 #@! TO.N,Net-(J4-Pad2)*
X110566200Y-137541000D03*
D11*
G04 #@! TO.P,J4,0*
G04 #@! TO.N,N/C*
X111125000Y-131191000D03*
G04 #@! TD*
D10*
G04 #@! TO.P,J10,4*
G04 #@! TO.N,N/C*
X170332400Y-149860000D03*
G04 #@! TO.P,J10,1*
G04 #@! TO.N,Net-(J10-Pad1)*
X163220400Y-151536400D03*
G04 #@! TO.P,J10,5*
G04 #@! TO.N,N/C*
X161544000Y-158648400D03*
G04 #@! TO.P,J10,3*
G04 #@! TO.N,Net-(J10-Pad3)*
X174244000Y-155651200D03*
G04 #@! TO.P,J10,2*
G04 #@! TO.N,Net-(J10-Pad2)*
X167335200Y-162560000D03*
D11*
G04 #@! TO.P,J10,0*
G04 #@! TO.N,N/C*
X167894000Y-156210000D03*
G04 #@! TD*
D12*
G04 #@! TO.P,J11,1*
G04 #@! TO.N,/SQ*
X187452000Y-89152000D03*
G04 #@! TO.P,J11,2*
G04 #@! TO.N,/SR*
X187452000Y-93852000D03*
G04 #@! TO.P,J11,3*
G04 #@! TO.N,/SD*
X187452000Y-98552000D03*
G04 #@! TO.P,J11,4*
G04 #@! TO.N,/SP*
X187452000Y-103252000D03*
G04 #@! TO.P,J11,5*
G04 #@! TO.N,/SC*
X187452000Y-107952000D03*
G04 #@! TO.P,J11,6*
G04 #@! TO.N,/SW*
X187452000Y-112652000D03*
G04 #@! TO.P,J11,7*
G04 #@! TO.N,/ST*
X187452000Y-117352000D03*
G04 #@! TO.P,J11,8*
G04 #@! TO.N,/SA*
X187452000Y-122052000D03*
G04 #@! TO.P,J11,9*
G04 #@! TO.N,/SF*
X187452000Y-126752000D03*
G04 #@! TO.P,J11,10*
G04 #@! TO.N,/SY*
X187452000Y-131452000D03*
G04 #@! TO.P,J11,11*
G04 #@! TO.N,/SV*
X187452000Y-136152000D03*
G04 #@! TO.P,J11,12*
G04 #@! TO.N,/SE*
X187452000Y-140852000D03*
G04 #@! TO.P,J11,13*
G04 #@! TO.N,/SZ*
X187452000Y-145552000D03*
G04 #@! TO.P,J11,14*
G04 #@! TO.N,/SS*
X187452000Y-150252000D03*
G04 #@! TO.P,J11,15*
G04 #@! TO.N,/SG*
X187452000Y-154952000D03*
G04 #@! TO.P,J11,16*
G04 #@! TO.N,/SX*
X187452000Y-159652000D03*
G04 #@! TO.P,J11,17*
G04 #@! TO.N,/SB*
X187452000Y-164352000D03*
G04 #@! TO.P,J11,18*
G04 #@! TO.N,VCC*
X187452000Y-169052000D03*
G04 #@! TO.P,J11,19*
G04 #@! TO.N,GND*
X187452000Y-173752000D03*
G04 #@! TD*
D13*
G04 #@! TO.P,P1,1*
G04 #@! TO.N,VCC*
X124206000Y-116332000D03*
D14*
G04 #@! TO.P,P1,2*
G04 #@! TO.N,GND*
X126746000Y-116332000D03*
G04 #@! TO.P,P1,3*
G04 #@! TO.N,/~EN*
X124206000Y-113792000D03*
G04 #@! TO.P,P1,4*
G04 #@! TO.N,GND*
X126746000Y-113792000D03*
G04 #@! TO.P,P1,5*
G04 #@! TO.N,/~CS*
X124206000Y-111252000D03*
G04 #@! TO.P,P1,6*
G04 #@! TO.N,GND*
X126746000Y-111252000D03*
G04 #@! TD*
G04 #@! TO.P,P2,6*
G04 #@! TO.N,/Dout*
X126619000Y-100457000D03*
G04 #@! TO.P,P2,5*
G04 #@! TO.N,/A2*
X124079000Y-100457000D03*
G04 #@! TO.P,P2,4*
G04 #@! TO.N,/A4*
X126619000Y-102997000D03*
G04 #@! TO.P,P2,3*
G04 #@! TO.N,/A1*
X124079000Y-102997000D03*
G04 #@! TO.P,P2,2*
G04 #@! TO.N,/A3*
X126619000Y-105537000D03*
D13*
G04 #@! TO.P,P2,1*
G04 #@! TO.N,/A0*
X124079000Y-105537000D03*
G04 #@! TD*
D12*
G04 #@! TO.P,J7,1*
G04 #@! TO.N,/SQ*
X92710000Y-88888000D03*
G04 #@! TO.P,J7,2*
G04 #@! TO.N,/SR*
X92710000Y-93588000D03*
G04 #@! TO.P,J7,3*
G04 #@! TO.N,/SD*
X92710000Y-98288000D03*
G04 #@! TO.P,J7,4*
G04 #@! TO.N,/SP*
X92710000Y-102988000D03*
G04 #@! TO.P,J7,5*
G04 #@! TO.N,/SC*
X92710000Y-107688000D03*
G04 #@! TO.P,J7,6*
G04 #@! TO.N,/SW*
X92710000Y-112388000D03*
G04 #@! TO.P,J7,7*
G04 #@! TO.N,/ST*
X92710000Y-117088000D03*
G04 #@! TO.P,J7,8*
G04 #@! TO.N,/SA*
X92710000Y-121788000D03*
G04 #@! TO.P,J7,9*
G04 #@! TO.N,/SF*
X92710000Y-126488000D03*
G04 #@! TO.P,J7,10*
G04 #@! TO.N,/SY*
X92710000Y-131188000D03*
G04 #@! TO.P,J7,11*
G04 #@! TO.N,/SV*
X92710000Y-135888000D03*
G04 #@! TO.P,J7,12*
G04 #@! TO.N,/SE*
X92710000Y-140588000D03*
G04 #@! TO.P,J7,13*
G04 #@! TO.N,/SZ*
X92710000Y-145288000D03*
G04 #@! TO.P,J7,14*
G04 #@! TO.N,/SS*
X92710000Y-149988000D03*
G04 #@! TO.P,J7,15*
G04 #@! TO.N,/SG*
X92710000Y-154688000D03*
G04 #@! TO.P,J7,16*
G04 #@! TO.N,/SX*
X92710000Y-159388000D03*
G04 #@! TO.P,J7,17*
G04 #@! TO.N,/SB*
X92710000Y-164088000D03*
G04 #@! TO.P,J7,18*
G04 #@! TO.N,VCC*
X92710000Y-168788000D03*
G04 #@! TO.P,J7,19*
G04 #@! TO.N,GND*
X92710000Y-173488000D03*
G04 #@! TD*
D15*
G04 #@! TO.N,VCC*
X100863400Y-120904000D03*
G04 #@! TO.N,GND*
X101346000Y-122174000D03*
X137795000Y-101981000D03*
X134747000Y-105029000D03*
X128651000Y-98171000D03*
X128651000Y-120650000D03*
G04 #@! TO.N,/Dout*
X123952000Y-97663000D03*
G04 #@! TO.N,Net-(J2-Pad3)*
X123317000Y-96774000D03*
G04 #@! TO.N,Net-(J4-Pad3)*
X119126000Y-120142000D03*
X119126000Y-122707400D03*
G04 #@! TO.N,Net-(J5-Pad3)*
X131572000Y-96748540D03*
X147828000Y-96774000D03*
G04 #@! TO.N,Net-(J8-Pad3)*
X119888000Y-120142000D03*
X119888000Y-122707400D03*
G04 #@! TO.N,/SQ*
X100203000Y-85979000D03*
G04 #@! TO.N,/SP*
X112268000Y-88392000D03*
G04 #@! TO.N,/SW*
X119634000Y-90043000D03*
G04 #@! TO.N,/SA*
X128143000Y-91211400D03*
G04 #@! TO.N,/SY*
X148844000Y-92456000D03*
G04 #@! TO.N,/SE*
X157226000Y-93218000D03*
G04 #@! TO.N,/SS*
X164833877Y-94523825D03*
G04 #@! TO.N,/SX*
X173101000Y-95529400D03*
G04 #@! TO.N,/SR*
X101854000Y-86741000D03*
G04 #@! TO.N,/SD*
X107061000Y-87757000D03*
G04 #@! TO.N,/SC*
X114405825Y-89027000D03*
G04 #@! TO.N,/ST*
X121945056Y-90576400D03*
G04 #@! TO.N,/SF*
X130556000Y-91836150D03*
X144018000Y-91836150D03*
G04 #@! TO.N,/SV*
X151765000Y-92837000D03*
G04 #@! TO.N,/SZ*
X157817873Y-93990425D03*
G04 #@! TO.N,/SG*
X166116000Y-94996000D03*
G04 #@! TO.N,/SB*
X174117000Y-96012000D03*
G04 #@! TD*
D16*
G04 #@! TO.N,VCC*
X100050670Y-161447330D02*
X100050670Y-122072330D01*
X92710000Y-168788000D02*
X100050670Y-161447330D01*
X100050670Y-122072330D02*
X100863400Y-121259600D01*
X100863400Y-121259600D02*
X100863400Y-120904000D01*
X187452000Y-169052000D02*
X178308000Y-159908000D01*
X178308000Y-159908000D02*
X178308000Y-120015000D01*
X178308000Y-120015000D02*
X127762000Y-120015000D01*
X127762000Y-120015000D02*
X124460000Y-116713000D01*
G04 #@! TO.N,GND*
X100355480Y-165842520D02*
X100355480Y-161573586D01*
X92710000Y-173488000D02*
X100355480Y-165842520D01*
X100355480Y-161573586D02*
X100355480Y-123164520D01*
X100355480Y-123164520D02*
X101346000Y-122174000D01*
X126746000Y-113792000D02*
X126746000Y-111125000D01*
X137795000Y-101981000D02*
X134747000Y-105029000D01*
X133985000Y-98171000D02*
X137795000Y-101981000D01*
X128651000Y-98171000D02*
X133985000Y-98171000D01*
X178003190Y-164303190D02*
X178003190Y-121234190D01*
X187452000Y-173752000D02*
X178003190Y-164303190D01*
X129235190Y-121234190D02*
X128651000Y-120650000D01*
X178003190Y-121234190D02*
X129235190Y-121234190D01*
G04 #@! TO.N,/Dout*
X123952000Y-98094052D02*
X126314948Y-100457000D01*
X123952000Y-97663000D02*
X123952000Y-98094052D01*
X126314948Y-100457000D02*
X126746000Y-100457000D01*
G04 #@! TO.N,Net-(J2-Pad3)*
X129135624Y-97866190D02*
X135331190Y-97866190D01*
X123317000Y-96774000D02*
X128043434Y-96774000D01*
X128043434Y-96774000D02*
X129135624Y-97866190D01*
X135730480Y-97866190D02*
X140099290Y-102235000D01*
X135331190Y-97866190D02*
X135730480Y-97866190D01*
X140099290Y-102235000D02*
X141732000Y-102235000D01*
X141732000Y-102235000D02*
X144907000Y-105410000D01*
G04 #@! TO.N,Net-(J4-Pad3)*
X119126000Y-120142000D02*
X119126000Y-122707400D01*
G04 #@! TO.N,Net-(J5-Pad3)*
X131572000Y-96748540D02*
X147802540Y-96748540D01*
X147802540Y-96748540D02*
X147828000Y-96774000D01*
G04 #@! TO.N,Net-(J8-Pad3)*
X119888000Y-120142000D02*
X119888000Y-122707400D01*
G04 #@! TO.N,/SQ*
X97294000Y-88888000D02*
X100203000Y-85979000D01*
X92710000Y-88888000D02*
X97294000Y-88888000D01*
X181651003Y-85979000D02*
X184826003Y-89154000D01*
X100203000Y-85979000D02*
X181651003Y-85979000D01*
X184826003Y-89154000D02*
X187452000Y-89154000D01*
G04 #@! TO.N,/SP*
X112268000Y-88392000D02*
X179959000Y-88392000D01*
X179959000Y-88392000D02*
X185547000Y-93980000D01*
X185547000Y-93980000D02*
X185547000Y-101219000D01*
X185547000Y-101219000D02*
X187452000Y-103124000D01*
X95631000Y-92760066D02*
X99999066Y-88392000D01*
X99999066Y-88392000D02*
X112268000Y-88392000D01*
X92710000Y-102988000D02*
X95631000Y-100067000D01*
X95631000Y-100067000D02*
X95631000Y-92760066D01*
G04 #@! TO.N,/SW*
X119634000Y-90043000D02*
X179832000Y-90043000D01*
X179832000Y-90043000D02*
X184277000Y-94488000D01*
X184277000Y-94488000D02*
X184277000Y-109474000D01*
X184277000Y-109474000D02*
X187452000Y-112649000D01*
X96240620Y-108857380D02*
X96240620Y-93370380D01*
X92710000Y-112388000D02*
X96240620Y-108857380D01*
X99568000Y-90043000D02*
X119634000Y-90043000D01*
X96240620Y-93370380D02*
X99568000Y-90043000D01*
G04 #@! TO.N,/SA*
X128447799Y-90906601D02*
X178282601Y-90906601D01*
X128143000Y-91211400D02*
X128447799Y-90906601D01*
X178282601Y-90906601D02*
X182626000Y-95250000D01*
X182626000Y-95250000D02*
X182626000Y-116967000D01*
X182626000Y-116967000D02*
X187579000Y-121920000D01*
X96850240Y-117647760D02*
X96850240Y-93776760D01*
X92710000Y-121788000D02*
X96850240Y-117647760D01*
X96850240Y-93776760D02*
X99441000Y-91186000D01*
X99466400Y-91211400D02*
X128143000Y-91211400D01*
X99441000Y-91186000D02*
X99466400Y-91211400D01*
G04 #@! TO.N,/SY*
X149148799Y-92151201D02*
X177368201Y-92151201D01*
X148844000Y-92456000D02*
X149148799Y-92151201D01*
X177368201Y-92151201D02*
X181356000Y-96139000D01*
X181356000Y-96139000D02*
X181356000Y-125349000D01*
X181356000Y-125349000D02*
X187452000Y-131445000D01*
X97459860Y-126438140D02*
X97459860Y-94310140D01*
X92710000Y-131188000D02*
X97459860Y-126438140D01*
X99314000Y-92456000D02*
X148844000Y-92456000D01*
X97459860Y-94310140D02*
X99314000Y-92456000D01*
G04 #@! TO.N,/SE*
X98221810Y-135076190D02*
X98221810Y-94410322D01*
X92710000Y-140588000D02*
X98221810Y-135076190D01*
X98221810Y-94410322D02*
X99160132Y-93472000D01*
X156794948Y-93218000D02*
X157226000Y-93218000D01*
X156540948Y-93472000D02*
X156794948Y-93218000D01*
X99160132Y-93472000D02*
X156540948Y-93472000D01*
X157226000Y-93218000D02*
X157606989Y-92837011D01*
X157606989Y-92837011D02*
X176911011Y-92837011D01*
X176911011Y-92837011D02*
X180594000Y-96520000D01*
X180594000Y-96520000D02*
X180594000Y-133985000D01*
X180594000Y-133985000D02*
X187452000Y-140843000D01*
G04 #@! TO.N,/SS*
X157744189Y-94523825D02*
X164833877Y-94523825D01*
X92710000Y-149988000D02*
X98831430Y-143866570D01*
X99506765Y-94295235D02*
X157333249Y-94295235D01*
X98831430Y-143866570D02*
X98831430Y-94970570D01*
X157333249Y-94295235D02*
X157653014Y-94615000D01*
X98831430Y-94970570D02*
X99506765Y-94295235D01*
X157653014Y-94615000D02*
X157744189Y-94523825D01*
X165326155Y-94462599D02*
X177520599Y-94462599D01*
X164833877Y-94523825D02*
X165264929Y-94523825D01*
X165264929Y-94523825D02*
X165326155Y-94462599D01*
X177520599Y-94462599D02*
X179832000Y-96774000D01*
X179832000Y-96774000D02*
X179832000Y-142621000D01*
X179832000Y-142621000D02*
X187579000Y-150368000D01*
G04 #@! TO.N,/SX*
X172669948Y-95529400D02*
X173101000Y-95529400D01*
X92710000Y-159388000D02*
X99441050Y-152656950D01*
X99441050Y-95376950D02*
X99898190Y-94919810D01*
X99898190Y-94919810D02*
X104394744Y-94919810D01*
X99441050Y-152656950D02*
X99441050Y-95376950D01*
X104394744Y-94919810D02*
X105004334Y-95529400D01*
X105004334Y-95529400D02*
X172669948Y-95529400D01*
X173582853Y-95478599D02*
X177520599Y-95478599D01*
X173101000Y-95529400D02*
X173532052Y-95529400D01*
X173532052Y-95529400D02*
X173582853Y-95478599D01*
X177520599Y-95478599D02*
X179070000Y-97028000D01*
X179070000Y-97028000D02*
X179070000Y-151130000D01*
X179070000Y-151130000D02*
X187452000Y-159512000D01*
G04 #@! TO.N,/SR*
X93471999Y-92826001D02*
X94498999Y-92826001D01*
X92710000Y-93588000D02*
X93471999Y-92826001D01*
X100584000Y-86741000D02*
X101854000Y-86741000D01*
X94498999Y-92826001D02*
X100584000Y-86741000D01*
X102158799Y-86436201D02*
X180289201Y-86436201D01*
X101854000Y-86741000D02*
X102158799Y-86436201D01*
X180289201Y-86436201D02*
X187452000Y-93599000D01*
G04 #@! TO.N,/SD*
X107365799Y-87452201D02*
X179781201Y-87452201D01*
X107061000Y-87757000D02*
X107365799Y-87452201D01*
X179781201Y-87452201D02*
X186055000Y-93726000D01*
X186055000Y-93726000D02*
X186055000Y-97155000D01*
X186055000Y-97155000D02*
X187452000Y-98552000D01*
X93471999Y-97526001D02*
X93735999Y-97526001D01*
X92710000Y-98288000D02*
X93471999Y-97526001D01*
X93735999Y-97526001D02*
X95250000Y-96012000D01*
X95250000Y-96012000D02*
X95250000Y-92583000D01*
X97790000Y-90043000D02*
X97917000Y-90043000D01*
X95250000Y-92583000D02*
X97790000Y-90043000D01*
X97917000Y-90043000D02*
X100203000Y-87757000D01*
X100203000Y-87757000D02*
X107061000Y-87757000D01*
G04 #@! TO.N,/SC*
X114710624Y-89331799D02*
X179755799Y-89331799D01*
X114405825Y-89027000D02*
X114710624Y-89331799D01*
X179755799Y-89331799D02*
X184912000Y-94488000D01*
X184912000Y-94488000D02*
X184912000Y-105537000D01*
X184912000Y-105537000D02*
X187325000Y-107950000D01*
X187325000Y-107950000D02*
X187706000Y-107950000D01*
X95935810Y-104462190D02*
X95935810Y-93040190D01*
X92710000Y-107688000D02*
X95935810Y-104462190D01*
X95935810Y-93040190D02*
X99949000Y-89027000D01*
X99949000Y-89027000D02*
X114405825Y-89027000D01*
G04 #@! TO.N,/ST*
X121945056Y-90576400D02*
X179730400Y-90576400D01*
X179730400Y-90576400D02*
X183261000Y-94107000D01*
X183261000Y-94107000D02*
X183261000Y-113030000D01*
X183261000Y-113030000D02*
X187452000Y-117221000D01*
X96545430Y-113252570D02*
X96545430Y-93496636D01*
X92710000Y-117088000D02*
X96545430Y-113252570D01*
X96545430Y-93496636D02*
X99491066Y-90551000D01*
X121514004Y-90576400D02*
X121945056Y-90576400D01*
X119377966Y-90576400D02*
X121514004Y-90576400D01*
X119352566Y-90551000D02*
X119377966Y-90576400D01*
X99491066Y-90551000D02*
X119352566Y-90551000D01*
G04 #@! TO.N,/SF*
X177815150Y-91836150D02*
X181737000Y-95758000D01*
X181737000Y-95758000D02*
X181737000Y-121031000D01*
X181737000Y-121031000D02*
X187325000Y-126619000D01*
X99425850Y-91836150D02*
X130556000Y-91836150D01*
X97155050Y-94106950D02*
X99425850Y-91836150D01*
X92710000Y-126488000D02*
X97155050Y-122042950D01*
X97155050Y-122042950D02*
X97155050Y-94106950D01*
X143891000Y-91836150D02*
X144018000Y-91836150D01*
X143891000Y-91836150D02*
X177815150Y-91836150D01*
X130556000Y-91836150D02*
X143891000Y-91836150D01*
G04 #@! TO.N,/SV*
X152069799Y-92532201D02*
X177114201Y-92532201D01*
X151765000Y-92837000D02*
X152069799Y-92532201D01*
X177114201Y-92532201D02*
X180975000Y-96393000D01*
X180975000Y-96393000D02*
X180975000Y-129667000D01*
X180975000Y-129667000D02*
X187452000Y-136144000D01*
X97917000Y-130681000D02*
X97917000Y-94284066D01*
X92710000Y-135888000D02*
X97917000Y-130681000D01*
X97917000Y-94284066D02*
X99237066Y-92964000D01*
X148562566Y-92964000D02*
X148689566Y-93091000D01*
X99237066Y-92964000D02*
X148562566Y-92964000D01*
X151333948Y-92837000D02*
X151765000Y-92837000D01*
X151079948Y-93091000D02*
X151333948Y-92837000D01*
X148689566Y-93091000D02*
X151079948Y-93091000D01*
G04 #@! TO.N,/SZ*
X98526620Y-139471380D02*
X98526620Y-94767380D01*
X92710000Y-145288000D02*
X98526620Y-139471380D01*
X98526620Y-94767380D02*
X99314000Y-93980000D01*
X99324425Y-93990425D02*
X157817873Y-93990425D01*
X99314000Y-93980000D02*
X99324425Y-93990425D01*
X157817873Y-93990425D02*
X177556425Y-93990425D01*
X177556425Y-93990425D02*
X180213000Y-96647000D01*
X180213000Y-96647000D02*
X180213000Y-138176000D01*
X180213000Y-138176000D02*
X187325000Y-145288000D01*
G04 #@! TO.N,/SG*
X99136240Y-148261760D02*
X99136240Y-95173760D01*
X104521000Y-94615000D02*
X104963226Y-95057226D01*
X165546774Y-95057226D02*
X165557201Y-95046799D01*
X99695000Y-94615000D02*
X104521000Y-94615000D01*
X99136240Y-95173760D02*
X99695000Y-94615000D01*
X92710000Y-154688000D02*
X99136240Y-148261760D01*
X165684948Y-94996000D02*
X165623722Y-95057226D01*
X165623722Y-95057226D02*
X165481000Y-95057226D01*
X166116000Y-94996000D02*
X165684948Y-94996000D01*
X104963226Y-95057226D02*
X165481000Y-95057226D01*
X165481000Y-95057226D02*
X165546774Y-95057226D01*
X166116000Y-94996000D02*
X177546000Y-94996000D01*
X177546000Y-94996000D02*
X179451000Y-96901000D01*
X179451000Y-96901000D02*
X179451000Y-146812000D01*
X179451000Y-146812000D02*
X187579000Y-154940000D01*
G04 #@! TO.N,/SB*
X99745860Y-157052140D02*
X99745860Y-96215140D01*
X92710000Y-164088000D02*
X99745860Y-157052140D01*
X173685948Y-96012000D02*
X174117000Y-96012000D01*
X173482808Y-96215140D02*
X173685948Y-96012000D01*
X99745860Y-96215140D02*
X173482808Y-96215140D01*
X174117000Y-96012000D02*
X177546000Y-96012000D01*
X177546000Y-96012000D02*
X178689000Y-97155000D01*
X178689000Y-97155000D02*
X178689000Y-155448000D01*
X178689000Y-155448000D02*
X187452000Y-164211000D01*
G04 #@! TD*
M02*
