G04 #@! TF.GenerationSoftware,KiCad,Pcbnew,5.0.0-fee4fd1~66~ubuntu18.04.1*
G04 #@! TF.CreationDate,2018-11-16T02:20:25-05:00*
G04 #@! TF.ProjectId,plugboard,706C7567626F6172642E6B696361645F,rev?*
G04 #@! TF.SameCoordinates,Original*
G04 #@! TF.FileFunction,Soldermask,Bot*
G04 #@! TF.FilePolarity,Negative*
%FSLAX46Y46*%
G04 Gerber Fmt 4.6, Leading zero omitted, Abs format (unit mm)*
G04 Created by KiCad (PCBNEW 5.0.0-fee4fd1~66~ubuntu18.04.1) date Fri Nov 16 02:20:25 2018*
%MOMM*%
%LPD*%
G01*
G04 APERTURE LIST*
%ADD10C,0.100000*%
G04 APERTURE END LIST*
D10*
G36*
X187588636Y-173002250D02*
X187674267Y-173019283D01*
X187812942Y-173076724D01*
X187937750Y-173160118D01*
X188043882Y-173266250D01*
X188127276Y-173391058D01*
X188184717Y-173529734D01*
X188214000Y-173676948D01*
X188214000Y-173827052D01*
X188184717Y-173974266D01*
X188127276Y-174112942D01*
X188043882Y-174237750D01*
X187937750Y-174343882D01*
X187937747Y-174343884D01*
X187812942Y-174427276D01*
X187674267Y-174484717D01*
X187625195Y-174494478D01*
X187527052Y-174514000D01*
X187376948Y-174514000D01*
X187278805Y-174494478D01*
X187229733Y-174484717D01*
X187091058Y-174427276D01*
X186966253Y-174343884D01*
X186966250Y-174343882D01*
X186860118Y-174237750D01*
X186776724Y-174112942D01*
X186719283Y-173974266D01*
X186690000Y-173827052D01*
X186690000Y-173676948D01*
X186719283Y-173529734D01*
X186776724Y-173391058D01*
X186860118Y-173266250D01*
X186966250Y-173160118D01*
X187091058Y-173076724D01*
X187229733Y-173019283D01*
X187315364Y-173002250D01*
X187376948Y-172990000D01*
X187527052Y-172990000D01*
X187588636Y-173002250D01*
X187588636Y-173002250D01*
G37*
G36*
X92883195Y-172745522D02*
X92932267Y-172755283D01*
X93070942Y-172812724D01*
X93195750Y-172896118D01*
X93301882Y-173002250D01*
X93385276Y-173127058D01*
X93442717Y-173265734D01*
X93472000Y-173412948D01*
X93472000Y-173563052D01*
X93442717Y-173710266D01*
X93385276Y-173848942D01*
X93301882Y-173973750D01*
X93195750Y-174079882D01*
X93195747Y-174079884D01*
X93070942Y-174163276D01*
X92932267Y-174220717D01*
X92883195Y-174230478D01*
X92785052Y-174250000D01*
X92634948Y-174250000D01*
X92536805Y-174230478D01*
X92487733Y-174220717D01*
X92349058Y-174163276D01*
X92224253Y-174079884D01*
X92224250Y-174079882D01*
X92118118Y-173973750D01*
X92034724Y-173848942D01*
X91977283Y-173710266D01*
X91948000Y-173563052D01*
X91948000Y-173412948D01*
X91977283Y-173265734D01*
X92034724Y-173127058D01*
X92118118Y-173002250D01*
X92224250Y-172896118D01*
X92349058Y-172812724D01*
X92487733Y-172755283D01*
X92536805Y-172745522D01*
X92634948Y-172726000D01*
X92785052Y-172726000D01*
X92883195Y-172745522D01*
X92883195Y-172745522D01*
G37*
G36*
X187588636Y-168302250D02*
X187674267Y-168319283D01*
X187812942Y-168376724D01*
X187937750Y-168460118D01*
X188043882Y-168566250D01*
X188127276Y-168691058D01*
X188184717Y-168829734D01*
X188214000Y-168976948D01*
X188214000Y-169127052D01*
X188184717Y-169274266D01*
X188127276Y-169412942D01*
X188043882Y-169537750D01*
X187937750Y-169643882D01*
X187937747Y-169643884D01*
X187812942Y-169727276D01*
X187674267Y-169784717D01*
X187625195Y-169794478D01*
X187527052Y-169814000D01*
X187376948Y-169814000D01*
X187278805Y-169794478D01*
X187229733Y-169784717D01*
X187091058Y-169727276D01*
X186966253Y-169643884D01*
X186966250Y-169643882D01*
X186860118Y-169537750D01*
X186776724Y-169412942D01*
X186719283Y-169274266D01*
X186690000Y-169127052D01*
X186690000Y-168976948D01*
X186719283Y-168829734D01*
X186776724Y-168691058D01*
X186860118Y-168566250D01*
X186966250Y-168460118D01*
X187091058Y-168376724D01*
X187229733Y-168319283D01*
X187315364Y-168302250D01*
X187376948Y-168290000D01*
X187527052Y-168290000D01*
X187588636Y-168302250D01*
X187588636Y-168302250D01*
G37*
G36*
X92883195Y-168045522D02*
X92932267Y-168055283D01*
X93070942Y-168112724D01*
X93195750Y-168196118D01*
X93301882Y-168302250D01*
X93385276Y-168427058D01*
X93442717Y-168565734D01*
X93472000Y-168712948D01*
X93472000Y-168863052D01*
X93442717Y-169010266D01*
X93385276Y-169148942D01*
X93301882Y-169273750D01*
X93195750Y-169379882D01*
X93195747Y-169379884D01*
X93070942Y-169463276D01*
X92932267Y-169520717D01*
X92883195Y-169530478D01*
X92785052Y-169550000D01*
X92634948Y-169550000D01*
X92536805Y-169530478D01*
X92487733Y-169520717D01*
X92349058Y-169463276D01*
X92224253Y-169379884D01*
X92224250Y-169379882D01*
X92118118Y-169273750D01*
X92034724Y-169148942D01*
X91977283Y-169010266D01*
X91948000Y-168863052D01*
X91948000Y-168712948D01*
X91977283Y-168565734D01*
X92034724Y-168427058D01*
X92118118Y-168302250D01*
X92224250Y-168196118D01*
X92349058Y-168112724D01*
X92487733Y-168055283D01*
X92536805Y-168045522D01*
X92634948Y-168026000D01*
X92785052Y-168026000D01*
X92883195Y-168045522D01*
X92883195Y-168045522D01*
G37*
G36*
X187588636Y-163602250D02*
X187674267Y-163619283D01*
X187812942Y-163676724D01*
X187937750Y-163760118D01*
X188043882Y-163866250D01*
X188043884Y-163866253D01*
X188127276Y-163991058D01*
X188184717Y-164129733D01*
X188185893Y-164135644D01*
X188214000Y-164276948D01*
X188214000Y-164427052D01*
X188184717Y-164574266D01*
X188127276Y-164712942D01*
X188043882Y-164837750D01*
X187937750Y-164943882D01*
X187937747Y-164943884D01*
X187812942Y-165027276D01*
X187674267Y-165084717D01*
X187625195Y-165094478D01*
X187527052Y-165114000D01*
X187376948Y-165114000D01*
X187278805Y-165094478D01*
X187229733Y-165084717D01*
X187091058Y-165027276D01*
X186966253Y-164943884D01*
X186966250Y-164943882D01*
X186860118Y-164837750D01*
X186776724Y-164712942D01*
X186719283Y-164574266D01*
X186690000Y-164427052D01*
X186690000Y-164276948D01*
X186718107Y-164135644D01*
X186719283Y-164129733D01*
X186776724Y-163991058D01*
X186860116Y-163866253D01*
X186860118Y-163866250D01*
X186966250Y-163760118D01*
X187091058Y-163676724D01*
X187229733Y-163619283D01*
X187315364Y-163602250D01*
X187376948Y-163590000D01*
X187527052Y-163590000D01*
X187588636Y-163602250D01*
X187588636Y-163602250D01*
G37*
G36*
X92883195Y-163345522D02*
X92932267Y-163355283D01*
X93045530Y-163402198D01*
X93070942Y-163412724D01*
X93195750Y-163496118D01*
X93301882Y-163602250D01*
X93301884Y-163602253D01*
X93385276Y-163727058D01*
X93421315Y-163814063D01*
X93442717Y-163865734D01*
X93471144Y-164008644D01*
X93472000Y-164012950D01*
X93472000Y-164163050D01*
X93442717Y-164310267D01*
X93394344Y-164427050D01*
X93385276Y-164448942D01*
X93301882Y-164573750D01*
X93195750Y-164679882D01*
X93195747Y-164679884D01*
X93070942Y-164763276D01*
X92932267Y-164820717D01*
X92883195Y-164830478D01*
X92785052Y-164850000D01*
X92634948Y-164850000D01*
X92536805Y-164830478D01*
X92487733Y-164820717D01*
X92349058Y-164763276D01*
X92224253Y-164679884D01*
X92224250Y-164679882D01*
X92118118Y-164573750D01*
X92034724Y-164448942D01*
X92025656Y-164427050D01*
X91977283Y-164310267D01*
X91948000Y-164163050D01*
X91948000Y-164012950D01*
X91948857Y-164008644D01*
X91977283Y-163865734D01*
X91998686Y-163814063D01*
X92034724Y-163727058D01*
X92118116Y-163602253D01*
X92118118Y-163602250D01*
X92224250Y-163496118D01*
X92349058Y-163412724D01*
X92374470Y-163402198D01*
X92487733Y-163355283D01*
X92536805Y-163345522D01*
X92634948Y-163326000D01*
X92785052Y-163326000D01*
X92883195Y-163345522D01*
X92883195Y-163345522D01*
G37*
G36*
X167853823Y-160850327D02*
X168177398Y-160984356D01*
X168468612Y-161178939D01*
X168716261Y-161426588D01*
X168910844Y-161717802D01*
X169044873Y-162041377D01*
X169113200Y-162384881D01*
X169113200Y-162735119D01*
X169044873Y-163078623D01*
X168910844Y-163402198D01*
X168716261Y-163693412D01*
X168468612Y-163941061D01*
X168177398Y-164135644D01*
X167853823Y-164269673D01*
X167510319Y-164338000D01*
X167160081Y-164338000D01*
X166816577Y-164269673D01*
X166493002Y-164135644D01*
X166201788Y-163941061D01*
X165954139Y-163693412D01*
X165759556Y-163402198D01*
X165625527Y-163078623D01*
X165557200Y-162735119D01*
X165557200Y-162384881D01*
X165625527Y-162041377D01*
X165759556Y-161717802D01*
X165954139Y-161426588D01*
X166201788Y-161178939D01*
X166493002Y-160984356D01*
X166816577Y-160850327D01*
X167160081Y-160782000D01*
X167510319Y-160782000D01*
X167853823Y-160850327D01*
X167853823Y-160850327D01*
G37*
G36*
X110449823Y-160850327D02*
X110773398Y-160984356D01*
X111064612Y-161178939D01*
X111312261Y-161426588D01*
X111506844Y-161717802D01*
X111640873Y-162041377D01*
X111709200Y-162384881D01*
X111709200Y-162735119D01*
X111640873Y-163078623D01*
X111506844Y-163402198D01*
X111312261Y-163693412D01*
X111064612Y-163941061D01*
X110773398Y-164135644D01*
X110449823Y-164269673D01*
X110106319Y-164338000D01*
X109756081Y-164338000D01*
X109412577Y-164269673D01*
X109089002Y-164135644D01*
X108797788Y-163941061D01*
X108550139Y-163693412D01*
X108355556Y-163402198D01*
X108221527Y-163078623D01*
X108153200Y-162735119D01*
X108153200Y-162384881D01*
X108221527Y-162041377D01*
X108355556Y-161717802D01*
X108550139Y-161426588D01*
X108797788Y-161178939D01*
X109089002Y-160984356D01*
X109412577Y-160850327D01*
X109756081Y-160782000D01*
X110106319Y-160782000D01*
X110449823Y-160850327D01*
X110449823Y-160850327D01*
G37*
G36*
X138770823Y-160723327D02*
X139094398Y-160857356D01*
X139385612Y-161051939D01*
X139633261Y-161299588D01*
X139827844Y-161590802D01*
X139961873Y-161914377D01*
X140030200Y-162257881D01*
X140030200Y-162608119D01*
X139961873Y-162951623D01*
X139827844Y-163275198D01*
X139633261Y-163566412D01*
X139385612Y-163814061D01*
X139094398Y-164008644D01*
X138770823Y-164142673D01*
X138427319Y-164211000D01*
X138077081Y-164211000D01*
X137733577Y-164142673D01*
X137410002Y-164008644D01*
X137118788Y-163814061D01*
X136871139Y-163566412D01*
X136676556Y-163275198D01*
X136542527Y-162951623D01*
X136474200Y-162608119D01*
X136474200Y-162257881D01*
X136542527Y-161914377D01*
X136676556Y-161590802D01*
X136871139Y-161299588D01*
X137118788Y-161051939D01*
X137410002Y-160857356D01*
X137733577Y-160723327D01*
X138077081Y-160655000D01*
X138427319Y-160655000D01*
X138770823Y-160723327D01*
X138770823Y-160723327D01*
G37*
G36*
X162062623Y-156938727D02*
X162386198Y-157072756D01*
X162677412Y-157267339D01*
X162925061Y-157514988D01*
X163119644Y-157806202D01*
X163253673Y-158129777D01*
X163322000Y-158473281D01*
X163322000Y-158823519D01*
X163253673Y-159167023D01*
X163119644Y-159490598D01*
X162925061Y-159781812D01*
X162677412Y-160029461D01*
X162386198Y-160224044D01*
X162062623Y-160358073D01*
X161719119Y-160426400D01*
X161368881Y-160426400D01*
X161025377Y-160358073D01*
X160701802Y-160224044D01*
X160410588Y-160029461D01*
X160162939Y-159781812D01*
X159968356Y-159490598D01*
X159834327Y-159167023D01*
X159766000Y-158823519D01*
X159766000Y-158473281D01*
X159834327Y-158129777D01*
X159968356Y-157806202D01*
X160162939Y-157514988D01*
X160410588Y-157267339D01*
X160701802Y-157072756D01*
X161025377Y-156938727D01*
X161368881Y-156870400D01*
X161719119Y-156870400D01*
X162062623Y-156938727D01*
X162062623Y-156938727D01*
G37*
G36*
X104658623Y-156938727D02*
X104982198Y-157072756D01*
X105273412Y-157267339D01*
X105521061Y-157514988D01*
X105715644Y-157806202D01*
X105849673Y-158129777D01*
X105918000Y-158473281D01*
X105918000Y-158823519D01*
X105849673Y-159167023D01*
X105715644Y-159490598D01*
X105521061Y-159781812D01*
X105273412Y-160029461D01*
X104982198Y-160224044D01*
X104658623Y-160358073D01*
X104315119Y-160426400D01*
X103964881Y-160426400D01*
X103621377Y-160358073D01*
X103297802Y-160224044D01*
X103006588Y-160029461D01*
X102758939Y-159781812D01*
X102564356Y-159490598D01*
X102430327Y-159167023D01*
X102362000Y-158823519D01*
X102362000Y-158473281D01*
X102430327Y-158129777D01*
X102564356Y-157806202D01*
X102758939Y-157514988D01*
X103006588Y-157267339D01*
X103297802Y-157072756D01*
X103621377Y-156938727D01*
X103964881Y-156870400D01*
X104315119Y-156870400D01*
X104658623Y-156938727D01*
X104658623Y-156938727D01*
G37*
G36*
X187588636Y-158902250D02*
X187674267Y-158919283D01*
X187812942Y-158976724D01*
X187937750Y-159060118D01*
X188043882Y-159166250D01*
X188127276Y-159291058D01*
X188184717Y-159429734D01*
X188214000Y-159576948D01*
X188214000Y-159727052D01*
X188203108Y-159781809D01*
X188184717Y-159874267D01*
X188173038Y-159902463D01*
X188127276Y-160012942D01*
X188043882Y-160137750D01*
X187937750Y-160243882D01*
X187937747Y-160243884D01*
X187812942Y-160327276D01*
X187674267Y-160384717D01*
X187625195Y-160394478D01*
X187527052Y-160414000D01*
X187376948Y-160414000D01*
X187278805Y-160394478D01*
X187229733Y-160384717D01*
X187091058Y-160327276D01*
X186966253Y-160243884D01*
X186966250Y-160243882D01*
X186860118Y-160137750D01*
X186776724Y-160012942D01*
X186730962Y-159902463D01*
X186719283Y-159874267D01*
X186700892Y-159781809D01*
X186690000Y-159727052D01*
X186690000Y-159576948D01*
X186719283Y-159429734D01*
X186776724Y-159291058D01*
X186860118Y-159166250D01*
X186966250Y-159060118D01*
X187091058Y-158976724D01*
X187229733Y-158919283D01*
X187315364Y-158902250D01*
X187376948Y-158890000D01*
X187527052Y-158890000D01*
X187588636Y-158902250D01*
X187588636Y-158902250D01*
G37*
G36*
X132979623Y-156811727D02*
X133303198Y-156945756D01*
X133594412Y-157140339D01*
X133842061Y-157387988D01*
X134036644Y-157679202D01*
X134170673Y-158002777D01*
X134239000Y-158346281D01*
X134239000Y-158696519D01*
X134170673Y-159040023D01*
X134036644Y-159363598D01*
X133842061Y-159654812D01*
X133594412Y-159902461D01*
X133303198Y-160097044D01*
X132979623Y-160231073D01*
X132636119Y-160299400D01*
X132285881Y-160299400D01*
X131942377Y-160231073D01*
X131618802Y-160097044D01*
X131327588Y-159902461D01*
X131079939Y-159654812D01*
X130885356Y-159363598D01*
X130751327Y-159040023D01*
X130683000Y-158696519D01*
X130683000Y-158346281D01*
X130751327Y-158002777D01*
X130885356Y-157679202D01*
X131079939Y-157387988D01*
X131327588Y-157140339D01*
X131618802Y-156945756D01*
X131942377Y-156811727D01*
X132285881Y-156743400D01*
X132636119Y-156743400D01*
X132979623Y-156811727D01*
X132979623Y-156811727D01*
G37*
G36*
X92883195Y-158645522D02*
X92932267Y-158655283D01*
X93070942Y-158712724D01*
X93195750Y-158796118D01*
X93301882Y-158902250D01*
X93301884Y-158902253D01*
X93385276Y-159027058D01*
X93442717Y-159165733D01*
X93452478Y-159214805D01*
X93472000Y-159312948D01*
X93472000Y-159463052D01*
X93442717Y-159610266D01*
X93385276Y-159748942D01*
X93301882Y-159873750D01*
X93195750Y-159979882D01*
X93195747Y-159979884D01*
X93070942Y-160063276D01*
X92932267Y-160120717D01*
X92883195Y-160130478D01*
X92785052Y-160150000D01*
X92634948Y-160150000D01*
X92536805Y-160130478D01*
X92487733Y-160120717D01*
X92349058Y-160063276D01*
X92224253Y-159979884D01*
X92224250Y-159979882D01*
X92118118Y-159873750D01*
X92034724Y-159748942D01*
X91977283Y-159610266D01*
X91948000Y-159463052D01*
X91948000Y-159312948D01*
X91967522Y-159214805D01*
X91977283Y-159165733D01*
X92034724Y-159027058D01*
X92118116Y-158902253D01*
X92118118Y-158902250D01*
X92224250Y-158796118D01*
X92349058Y-158712724D01*
X92487733Y-158655283D01*
X92536805Y-158645522D01*
X92634948Y-158626000D01*
X92785052Y-158626000D01*
X92883195Y-158645522D01*
X92883195Y-158645522D01*
G37*
G36*
X110875301Y-152790463D02*
X111490202Y-152912775D01*
X111748686Y-153019843D01*
X112114239Y-153171259D01*
X112675863Y-153546524D01*
X113153476Y-154024137D01*
X113528741Y-154585761D01*
X113621210Y-154809002D01*
X113787225Y-155209798D01*
X113832567Y-155437747D01*
X113919000Y-155872272D01*
X113919000Y-156547728D01*
X113866487Y-156811727D01*
X113787225Y-157210202D01*
X113713582Y-157387991D01*
X113528741Y-157834239D01*
X113153476Y-158395863D01*
X112675863Y-158873476D01*
X112114239Y-159248741D01*
X111836946Y-159363599D01*
X111490202Y-159507225D01*
X111158965Y-159573112D01*
X110827728Y-159639000D01*
X110152272Y-159639000D01*
X109821035Y-159573112D01*
X109489798Y-159507225D01*
X109143054Y-159363599D01*
X108865761Y-159248741D01*
X108304137Y-158873476D01*
X107826524Y-158395863D01*
X107451259Y-157834239D01*
X107266418Y-157387991D01*
X107192775Y-157210202D01*
X107113513Y-156811727D01*
X107061000Y-156547728D01*
X107061000Y-155872272D01*
X107147433Y-155437747D01*
X107192775Y-155209798D01*
X107358790Y-154809002D01*
X107451259Y-154585761D01*
X107826524Y-154024137D01*
X108304137Y-153546524D01*
X108865761Y-153171259D01*
X109231314Y-153019843D01*
X109489798Y-152912775D01*
X110104699Y-152790463D01*
X110152272Y-152781000D01*
X110827728Y-152781000D01*
X110875301Y-152790463D01*
X110875301Y-152790463D01*
G37*
G36*
X168279301Y-152790463D02*
X168894202Y-152912775D01*
X169152686Y-153019843D01*
X169518239Y-153171259D01*
X170079863Y-153546524D01*
X170557476Y-154024137D01*
X170932741Y-154585761D01*
X171025210Y-154809002D01*
X171191225Y-155209798D01*
X171236567Y-155437747D01*
X171323000Y-155872272D01*
X171323000Y-156547728D01*
X171270487Y-156811727D01*
X171191225Y-157210202D01*
X171117582Y-157387991D01*
X170932741Y-157834239D01*
X170557476Y-158395863D01*
X170079863Y-158873476D01*
X169518239Y-159248741D01*
X169240946Y-159363599D01*
X168894202Y-159507225D01*
X168562965Y-159573112D01*
X168231728Y-159639000D01*
X167556272Y-159639000D01*
X167225035Y-159573112D01*
X166893798Y-159507225D01*
X166547054Y-159363599D01*
X166269761Y-159248741D01*
X165708137Y-158873476D01*
X165230524Y-158395863D01*
X164855259Y-157834239D01*
X164670418Y-157387991D01*
X164596775Y-157210202D01*
X164517513Y-156811727D01*
X164465000Y-156547728D01*
X164465000Y-155872272D01*
X164551433Y-155437747D01*
X164596775Y-155209798D01*
X164762790Y-154809002D01*
X164855259Y-154585761D01*
X165230524Y-154024137D01*
X165708137Y-153546524D01*
X166269761Y-153171259D01*
X166635314Y-153019843D01*
X166893798Y-152912775D01*
X167508699Y-152790463D01*
X167556272Y-152781000D01*
X168231728Y-152781000D01*
X168279301Y-152790463D01*
X168279301Y-152790463D01*
G37*
G36*
X139479965Y-152719888D02*
X139811202Y-152785775D01*
X140069686Y-152892843D01*
X140435239Y-153044259D01*
X140996863Y-153419524D01*
X141474476Y-153897137D01*
X141849741Y-154458761D01*
X141942210Y-154682002D01*
X142108225Y-155082798D01*
X142126419Y-155174266D01*
X142240000Y-155745272D01*
X142240000Y-156420728D01*
X142175816Y-156743400D01*
X142108225Y-157083202D01*
X142045815Y-157233872D01*
X141849741Y-157707239D01*
X141474476Y-158268863D01*
X140996863Y-158746476D01*
X140435239Y-159121741D01*
X140069686Y-159273157D01*
X139811202Y-159380225D01*
X139562309Y-159429733D01*
X139148728Y-159512000D01*
X138473272Y-159512000D01*
X138059691Y-159429733D01*
X137810798Y-159380225D01*
X137552314Y-159273157D01*
X137186761Y-159121741D01*
X136625137Y-158746476D01*
X136147524Y-158268863D01*
X135772259Y-157707239D01*
X135576185Y-157233872D01*
X135513775Y-157083202D01*
X135446184Y-156743400D01*
X135382000Y-156420728D01*
X135382000Y-155745272D01*
X135495581Y-155174266D01*
X135513775Y-155082798D01*
X135679790Y-154682002D01*
X135772259Y-154458761D01*
X136147524Y-153897137D01*
X136625137Y-153419524D01*
X137186761Y-153044259D01*
X137552314Y-152892843D01*
X137810798Y-152785775D01*
X138142035Y-152719888D01*
X138473272Y-152654000D01*
X139148728Y-152654000D01*
X139479965Y-152719888D01*
X139479965Y-152719888D01*
G37*
G36*
X174762623Y-153941527D02*
X175086198Y-154075556D01*
X175377412Y-154270139D01*
X175625061Y-154517788D01*
X175819644Y-154809002D01*
X175953673Y-155132577D01*
X176022000Y-155476081D01*
X176022000Y-155826319D01*
X175953673Y-156169823D01*
X175819644Y-156493398D01*
X175625061Y-156784612D01*
X175377412Y-157032261D01*
X175086198Y-157226844D01*
X174762623Y-157360873D01*
X174419119Y-157429200D01*
X174068881Y-157429200D01*
X173725377Y-157360873D01*
X173401802Y-157226844D01*
X173110588Y-157032261D01*
X172862939Y-156784612D01*
X172668356Y-156493398D01*
X172534327Y-156169823D01*
X172466000Y-155826319D01*
X172466000Y-155476081D01*
X172534327Y-155132577D01*
X172668356Y-154809002D01*
X172862939Y-154517788D01*
X173110588Y-154270139D01*
X173401802Y-154075556D01*
X173725377Y-153941527D01*
X174068881Y-153873200D01*
X174419119Y-153873200D01*
X174762623Y-153941527D01*
X174762623Y-153941527D01*
G37*
G36*
X117358623Y-153941527D02*
X117682198Y-154075556D01*
X117973412Y-154270139D01*
X118221061Y-154517788D01*
X118415644Y-154809002D01*
X118549673Y-155132577D01*
X118618000Y-155476081D01*
X118618000Y-155826319D01*
X118549673Y-156169823D01*
X118415644Y-156493398D01*
X118221061Y-156784612D01*
X117973412Y-157032261D01*
X117682198Y-157226844D01*
X117358623Y-157360873D01*
X117015119Y-157429200D01*
X116664881Y-157429200D01*
X116321377Y-157360873D01*
X115997802Y-157226844D01*
X115706588Y-157032261D01*
X115458939Y-156784612D01*
X115264356Y-156493398D01*
X115130327Y-156169823D01*
X115062000Y-155826319D01*
X115062000Y-155476081D01*
X115130327Y-155132577D01*
X115264356Y-154809002D01*
X115458939Y-154517788D01*
X115706588Y-154270139D01*
X115997802Y-154075556D01*
X116321377Y-153941527D01*
X116664881Y-153873200D01*
X117015119Y-153873200D01*
X117358623Y-153941527D01*
X117358623Y-153941527D01*
G37*
G36*
X145679623Y-153814527D02*
X146003198Y-153948556D01*
X146294412Y-154143139D01*
X146542061Y-154390788D01*
X146736644Y-154682002D01*
X146870673Y-155005577D01*
X146939000Y-155349081D01*
X146939000Y-155699319D01*
X146870673Y-156042823D01*
X146736644Y-156366398D01*
X146542061Y-156657612D01*
X146294412Y-156905261D01*
X146003198Y-157099844D01*
X145679623Y-157233873D01*
X145336119Y-157302200D01*
X144985881Y-157302200D01*
X144642377Y-157233873D01*
X144318802Y-157099844D01*
X144027588Y-156905261D01*
X143779939Y-156657612D01*
X143585356Y-156366398D01*
X143451327Y-156042823D01*
X143383000Y-155699319D01*
X143383000Y-155349081D01*
X143451327Y-155005577D01*
X143585356Y-154682002D01*
X143779939Y-154390788D01*
X144027588Y-154143139D01*
X144318802Y-153948556D01*
X144642377Y-153814527D01*
X144985881Y-153746200D01*
X145336119Y-153746200D01*
X145679623Y-153814527D01*
X145679623Y-153814527D01*
G37*
G36*
X187588636Y-154202250D02*
X187674267Y-154219283D01*
X187797044Y-154270139D01*
X187812942Y-154276724D01*
X187937750Y-154360118D01*
X188043882Y-154466250D01*
X188127276Y-154591058D01*
X188184717Y-154729734D01*
X188214000Y-154876948D01*
X188214000Y-155027052D01*
X188202911Y-155082798D01*
X188184717Y-155174267D01*
X188169999Y-155209799D01*
X188127276Y-155312942D01*
X188043882Y-155437750D01*
X187937750Y-155543882D01*
X187937747Y-155543884D01*
X187812942Y-155627276D01*
X187674267Y-155684717D01*
X187625195Y-155694478D01*
X187527052Y-155714000D01*
X187376948Y-155714000D01*
X187278805Y-155694478D01*
X187229733Y-155684717D01*
X187091058Y-155627276D01*
X186966253Y-155543884D01*
X186966250Y-155543882D01*
X186860118Y-155437750D01*
X186776724Y-155312942D01*
X186734001Y-155209799D01*
X186719283Y-155174267D01*
X186701089Y-155082798D01*
X186690000Y-155027052D01*
X186690000Y-154876948D01*
X186719283Y-154729734D01*
X186776724Y-154591058D01*
X186860118Y-154466250D01*
X186966250Y-154360118D01*
X187091058Y-154276724D01*
X187106956Y-154270139D01*
X187229733Y-154219283D01*
X187315364Y-154202250D01*
X187376948Y-154190000D01*
X187527052Y-154190000D01*
X187588636Y-154202250D01*
X187588636Y-154202250D01*
G37*
G36*
X92883195Y-153945522D02*
X92932267Y-153955283D01*
X93070942Y-154012724D01*
X93195750Y-154096118D01*
X93301882Y-154202250D01*
X93301884Y-154202253D01*
X93385276Y-154327058D01*
X93439829Y-154458760D01*
X93442717Y-154465734D01*
X93472000Y-154612948D01*
X93472000Y-154763052D01*
X93442717Y-154910266D01*
X93385276Y-155048942D01*
X93301882Y-155173750D01*
X93195750Y-155279882D01*
X93195747Y-155279884D01*
X93070942Y-155363276D01*
X92932267Y-155420717D01*
X92883195Y-155430478D01*
X92785052Y-155450000D01*
X92634948Y-155450000D01*
X92536805Y-155430478D01*
X92487733Y-155420717D01*
X92349058Y-155363276D01*
X92224253Y-155279884D01*
X92224250Y-155279882D01*
X92118118Y-155173750D01*
X92034724Y-155048942D01*
X91977283Y-154910266D01*
X91948000Y-154763052D01*
X91948000Y-154612948D01*
X91977283Y-154465734D01*
X91980172Y-154458760D01*
X92034724Y-154327058D01*
X92118116Y-154202253D01*
X92118118Y-154202250D01*
X92224250Y-154096118D01*
X92349058Y-154012724D01*
X92487733Y-153955283D01*
X92536805Y-153945522D01*
X92634948Y-153926000D01*
X92785052Y-153926000D01*
X92883195Y-153945522D01*
X92883195Y-153945522D01*
G37*
G36*
X106335023Y-149826727D02*
X106658598Y-149960756D01*
X106949812Y-150155339D01*
X107197461Y-150402988D01*
X107392044Y-150694202D01*
X107526073Y-151017777D01*
X107594400Y-151361281D01*
X107594400Y-151711519D01*
X107526073Y-152055023D01*
X107392044Y-152378598D01*
X107197461Y-152669812D01*
X106949812Y-152917461D01*
X106658598Y-153112044D01*
X106335023Y-153246073D01*
X105991519Y-153314400D01*
X105641281Y-153314400D01*
X105297777Y-153246073D01*
X104974202Y-153112044D01*
X104682988Y-152917461D01*
X104435339Y-152669812D01*
X104240756Y-152378598D01*
X104106727Y-152055023D01*
X104038400Y-151711519D01*
X104038400Y-151361281D01*
X104106727Y-151017777D01*
X104240756Y-150694202D01*
X104435339Y-150402988D01*
X104682988Y-150155339D01*
X104974202Y-149960756D01*
X105297777Y-149826727D01*
X105641281Y-149758400D01*
X105991519Y-149758400D01*
X106335023Y-149826727D01*
X106335023Y-149826727D01*
G37*
G36*
X163739023Y-149826727D02*
X164062598Y-149960756D01*
X164353812Y-150155339D01*
X164601461Y-150402988D01*
X164796044Y-150694202D01*
X164930073Y-151017777D01*
X164998400Y-151361281D01*
X164998400Y-151711519D01*
X164930073Y-152055023D01*
X164796044Y-152378598D01*
X164601461Y-152669812D01*
X164353812Y-152917461D01*
X164062598Y-153112044D01*
X163739023Y-153246073D01*
X163395519Y-153314400D01*
X163045281Y-153314400D01*
X162701777Y-153246073D01*
X162378202Y-153112044D01*
X162086988Y-152917461D01*
X161839339Y-152669812D01*
X161644756Y-152378598D01*
X161510727Y-152055023D01*
X161442400Y-151711519D01*
X161442400Y-151361281D01*
X161510727Y-151017777D01*
X161644756Y-150694202D01*
X161839339Y-150402988D01*
X162086988Y-150155339D01*
X162378202Y-149960756D01*
X162701777Y-149826727D01*
X163045281Y-149758400D01*
X163395519Y-149758400D01*
X163739023Y-149826727D01*
X163739023Y-149826727D01*
G37*
G36*
X134656023Y-149699727D02*
X134979598Y-149833756D01*
X135270812Y-150028339D01*
X135518461Y-150275988D01*
X135713044Y-150567202D01*
X135847073Y-150890777D01*
X135915400Y-151234281D01*
X135915400Y-151584519D01*
X135847073Y-151928023D01*
X135713044Y-152251598D01*
X135518461Y-152542812D01*
X135270812Y-152790461D01*
X134979598Y-152985044D01*
X134656023Y-153119073D01*
X134312519Y-153187400D01*
X133962281Y-153187400D01*
X133618777Y-153119073D01*
X133295202Y-152985044D01*
X133003988Y-152790461D01*
X132756339Y-152542812D01*
X132561756Y-152251598D01*
X132427727Y-151928023D01*
X132359400Y-151584519D01*
X132359400Y-151234281D01*
X132427727Y-150890777D01*
X132561756Y-150567202D01*
X132756339Y-150275988D01*
X133003988Y-150028339D01*
X133295202Y-149833756D01*
X133618777Y-149699727D01*
X133962281Y-149631400D01*
X134312519Y-149631400D01*
X134656023Y-149699727D01*
X134656023Y-149699727D01*
G37*
G36*
X113447023Y-148150327D02*
X113770598Y-148284356D01*
X114061812Y-148478939D01*
X114309461Y-148726588D01*
X114504044Y-149017802D01*
X114638073Y-149341377D01*
X114706400Y-149684881D01*
X114706400Y-150035119D01*
X114638073Y-150378623D01*
X114504044Y-150702198D01*
X114309461Y-150993412D01*
X114061812Y-151241061D01*
X113770598Y-151435644D01*
X113447023Y-151569673D01*
X113103519Y-151638000D01*
X112753281Y-151638000D01*
X112409777Y-151569673D01*
X112086202Y-151435644D01*
X111794988Y-151241061D01*
X111547339Y-150993412D01*
X111352756Y-150702198D01*
X111218727Y-150378623D01*
X111150400Y-150035119D01*
X111150400Y-149684881D01*
X111218727Y-149341377D01*
X111352756Y-149017802D01*
X111547339Y-148726588D01*
X111794988Y-148478939D01*
X112086202Y-148284356D01*
X112409777Y-148150327D01*
X112753281Y-148082000D01*
X113103519Y-148082000D01*
X113447023Y-148150327D01*
X113447023Y-148150327D01*
G37*
G36*
X170851023Y-148150327D02*
X171174598Y-148284356D01*
X171465812Y-148478939D01*
X171713461Y-148726588D01*
X171908044Y-149017802D01*
X172042073Y-149341377D01*
X172110400Y-149684881D01*
X172110400Y-150035119D01*
X172042073Y-150378623D01*
X171908044Y-150702198D01*
X171713461Y-150993412D01*
X171465812Y-151241061D01*
X171174598Y-151435644D01*
X170851023Y-151569673D01*
X170507519Y-151638000D01*
X170157281Y-151638000D01*
X169813777Y-151569673D01*
X169490202Y-151435644D01*
X169198988Y-151241061D01*
X168951339Y-150993412D01*
X168756756Y-150702198D01*
X168622727Y-150378623D01*
X168554400Y-150035119D01*
X168554400Y-149684881D01*
X168622727Y-149341377D01*
X168756756Y-149017802D01*
X168951339Y-148726588D01*
X169198988Y-148478939D01*
X169490202Y-148284356D01*
X169813777Y-148150327D01*
X170157281Y-148082000D01*
X170507519Y-148082000D01*
X170851023Y-148150327D01*
X170851023Y-148150327D01*
G37*
G36*
X141768023Y-148023327D02*
X142091598Y-148157356D01*
X142382812Y-148351939D01*
X142630461Y-148599588D01*
X142825044Y-148890802D01*
X142959073Y-149214377D01*
X143027400Y-149557881D01*
X143027400Y-149908119D01*
X142959073Y-150251623D01*
X142825044Y-150575198D01*
X142630461Y-150866412D01*
X142382812Y-151114061D01*
X142091598Y-151308644D01*
X141768023Y-151442673D01*
X141424519Y-151511000D01*
X141074281Y-151511000D01*
X140730777Y-151442673D01*
X140407202Y-151308644D01*
X140115988Y-151114061D01*
X139868339Y-150866412D01*
X139673756Y-150575198D01*
X139539727Y-150251623D01*
X139471400Y-149908119D01*
X139471400Y-149557881D01*
X139539727Y-149214377D01*
X139673756Y-148890802D01*
X139868339Y-148599588D01*
X140115988Y-148351939D01*
X140407202Y-148157356D01*
X140730777Y-148023327D01*
X141074281Y-147955000D01*
X141424519Y-147955000D01*
X141768023Y-148023327D01*
X141768023Y-148023327D01*
G37*
G36*
X187588636Y-149502250D02*
X187674267Y-149519283D01*
X187767451Y-149557881D01*
X187812942Y-149576724D01*
X187937750Y-149660118D01*
X188043882Y-149766250D01*
X188043884Y-149766253D01*
X188127276Y-149891058D01*
X188184140Y-150028339D01*
X188184717Y-150029734D01*
X188214000Y-150176948D01*
X188214000Y-150327052D01*
X188203742Y-150378623D01*
X188184717Y-150474267D01*
X188146222Y-150567202D01*
X188127276Y-150612942D01*
X188043882Y-150737750D01*
X187937750Y-150843882D01*
X187937747Y-150843884D01*
X187812942Y-150927276D01*
X187674267Y-150984717D01*
X187630569Y-150993409D01*
X187527052Y-151014000D01*
X187376948Y-151014000D01*
X187273431Y-150993409D01*
X187229733Y-150984717D01*
X187091058Y-150927276D01*
X186966253Y-150843884D01*
X186966250Y-150843882D01*
X186860118Y-150737750D01*
X186776724Y-150612942D01*
X186757778Y-150567202D01*
X186719283Y-150474267D01*
X186700258Y-150378623D01*
X186690000Y-150327052D01*
X186690000Y-150176948D01*
X186719283Y-150029734D01*
X186719861Y-150028339D01*
X186776724Y-149891058D01*
X186860116Y-149766253D01*
X186860118Y-149766250D01*
X186966250Y-149660118D01*
X187091058Y-149576724D01*
X187136549Y-149557881D01*
X187229733Y-149519283D01*
X187315364Y-149502250D01*
X187376948Y-149490000D01*
X187527052Y-149490000D01*
X187588636Y-149502250D01*
X187588636Y-149502250D01*
G37*
G36*
X92883195Y-149245522D02*
X92932267Y-149255283D01*
X93070942Y-149312724D01*
X93195750Y-149396118D01*
X93301882Y-149502250D01*
X93301884Y-149502253D01*
X93385276Y-149627058D01*
X93439680Y-149758400D01*
X93442717Y-149765734D01*
X93467646Y-149891058D01*
X93472000Y-149912950D01*
X93472000Y-150063050D01*
X93442717Y-150210267D01*
X93415493Y-150275991D01*
X93385276Y-150348942D01*
X93301882Y-150473750D01*
X93195750Y-150579882D01*
X93195747Y-150579884D01*
X93070942Y-150663276D01*
X92932267Y-150720717D01*
X92883195Y-150730478D01*
X92785052Y-150750000D01*
X92634948Y-150750000D01*
X92536805Y-150730478D01*
X92487733Y-150720717D01*
X92349058Y-150663276D01*
X92224253Y-150579884D01*
X92224250Y-150579882D01*
X92118118Y-150473750D01*
X92034724Y-150348942D01*
X92004507Y-150275991D01*
X91977283Y-150210267D01*
X91948000Y-150063050D01*
X91948000Y-149912950D01*
X91952355Y-149891058D01*
X91977283Y-149765734D01*
X91980321Y-149758400D01*
X92034724Y-149627058D01*
X92118116Y-149502253D01*
X92118118Y-149502250D01*
X92224250Y-149396118D01*
X92349058Y-149312724D01*
X92487733Y-149255283D01*
X92536805Y-149245522D01*
X92634948Y-149226000D01*
X92785052Y-149226000D01*
X92883195Y-149245522D01*
X92883195Y-149245522D01*
G37*
G36*
X187588636Y-144802250D02*
X187674267Y-144819283D01*
X187812942Y-144876724D01*
X187937750Y-144960118D01*
X188043882Y-145066250D01*
X188127276Y-145191058D01*
X188184717Y-145329734D01*
X188214000Y-145476948D01*
X188214000Y-145627052D01*
X188184717Y-145774266D01*
X188127276Y-145912942D01*
X188043882Y-146037750D01*
X187937750Y-146143882D01*
X187937747Y-146143884D01*
X187812942Y-146227276D01*
X187674267Y-146284717D01*
X187625195Y-146294478D01*
X187527052Y-146314000D01*
X187376948Y-146314000D01*
X187278805Y-146294478D01*
X187229733Y-146284717D01*
X187091058Y-146227276D01*
X186966253Y-146143884D01*
X186966250Y-146143882D01*
X186860118Y-146037750D01*
X186776724Y-145912942D01*
X186719283Y-145774266D01*
X186690000Y-145627052D01*
X186690000Y-145476948D01*
X186719283Y-145329734D01*
X186776724Y-145191058D01*
X186860118Y-145066250D01*
X186966250Y-144960118D01*
X187091058Y-144876724D01*
X187229733Y-144819283D01*
X187315364Y-144802250D01*
X187376948Y-144790000D01*
X187527052Y-144790000D01*
X187588636Y-144802250D01*
X187588636Y-144802250D01*
G37*
G36*
X92883195Y-144545522D02*
X92932267Y-144555283D01*
X93070942Y-144612724D01*
X93195750Y-144696118D01*
X93301882Y-144802250D01*
X93385276Y-144927058D01*
X93442717Y-145065734D01*
X93472000Y-145212948D01*
X93472000Y-145363052D01*
X93442717Y-145510266D01*
X93385276Y-145648942D01*
X93301882Y-145773750D01*
X93195750Y-145879882D01*
X93195747Y-145879884D01*
X93070942Y-145963276D01*
X92932267Y-146020717D01*
X92883195Y-146030478D01*
X92785052Y-146050000D01*
X92634948Y-146050000D01*
X92536805Y-146030478D01*
X92487733Y-146020717D01*
X92349058Y-145963276D01*
X92224253Y-145879884D01*
X92224250Y-145879882D01*
X92118118Y-145773750D01*
X92034724Y-145648942D01*
X91977283Y-145510266D01*
X91948000Y-145363052D01*
X91948000Y-145212948D01*
X91977283Y-145065734D01*
X92034724Y-144927058D01*
X92118118Y-144802250D01*
X92224250Y-144696118D01*
X92349058Y-144612724D01*
X92487733Y-144555283D01*
X92536805Y-144545522D01*
X92634948Y-144526000D01*
X92785052Y-144526000D01*
X92883195Y-144545522D01*
X92883195Y-144545522D01*
G37*
G36*
X187588636Y-140102250D02*
X187674267Y-140119283D01*
X187812942Y-140176724D01*
X187937750Y-140260118D01*
X188043882Y-140366250D01*
X188127276Y-140491058D01*
X188184717Y-140629734D01*
X188214000Y-140776948D01*
X188214000Y-140927052D01*
X188184717Y-141074266D01*
X188127276Y-141212942D01*
X188043882Y-141337750D01*
X187937750Y-141443882D01*
X187937747Y-141443884D01*
X187812942Y-141527276D01*
X187674267Y-141584717D01*
X187625195Y-141594478D01*
X187527052Y-141614000D01*
X187376948Y-141614000D01*
X187278805Y-141594478D01*
X187229733Y-141584717D01*
X187091058Y-141527276D01*
X186966253Y-141443884D01*
X186966250Y-141443882D01*
X186860118Y-141337750D01*
X186776724Y-141212942D01*
X186719283Y-141074266D01*
X186690000Y-140927052D01*
X186690000Y-140776948D01*
X186719283Y-140629734D01*
X186776724Y-140491058D01*
X186860118Y-140366250D01*
X186966250Y-140260118D01*
X187091058Y-140176724D01*
X187229733Y-140119283D01*
X187315364Y-140102250D01*
X187376948Y-140090000D01*
X187527052Y-140090000D01*
X187588636Y-140102250D01*
X187588636Y-140102250D01*
G37*
G36*
X92883195Y-139845522D02*
X92932267Y-139855283D01*
X93070942Y-139912724D01*
X93195750Y-139996118D01*
X93301882Y-140102250D01*
X93385276Y-140227058D01*
X93442717Y-140365734D01*
X93472000Y-140512948D01*
X93472000Y-140663052D01*
X93442717Y-140810266D01*
X93385276Y-140948942D01*
X93301882Y-141073750D01*
X93195750Y-141179882D01*
X93195747Y-141179884D01*
X93070942Y-141263276D01*
X92932267Y-141320717D01*
X92883195Y-141330478D01*
X92785052Y-141350000D01*
X92634948Y-141350000D01*
X92536805Y-141330478D01*
X92487733Y-141320717D01*
X92349058Y-141263276D01*
X92224253Y-141179884D01*
X92224250Y-141179882D01*
X92118118Y-141073750D01*
X92034724Y-140948942D01*
X91977283Y-140810266D01*
X91948000Y-140663052D01*
X91948000Y-140512948D01*
X91977283Y-140365734D01*
X92034724Y-140227058D01*
X92118118Y-140102250D01*
X92224250Y-139996118D01*
X92349058Y-139912724D01*
X92487733Y-139855283D01*
X92536805Y-139845522D01*
X92634948Y-139826000D01*
X92785052Y-139826000D01*
X92883195Y-139845522D01*
X92883195Y-139845522D01*
G37*
G36*
X111084823Y-135831327D02*
X111408398Y-135965356D01*
X111699612Y-136159939D01*
X111947261Y-136407588D01*
X112141844Y-136698802D01*
X112275873Y-137022377D01*
X112344200Y-137365881D01*
X112344200Y-137716119D01*
X112275873Y-138059623D01*
X112141844Y-138383198D01*
X111947261Y-138674412D01*
X111699612Y-138922061D01*
X111408398Y-139116644D01*
X111084823Y-139250673D01*
X110741319Y-139319000D01*
X110391081Y-139319000D01*
X110047577Y-139250673D01*
X109724002Y-139116644D01*
X109432788Y-138922061D01*
X109185139Y-138674412D01*
X108990556Y-138383198D01*
X108856527Y-138059623D01*
X108788200Y-137716119D01*
X108788200Y-137365881D01*
X108856527Y-137022377D01*
X108990556Y-136698802D01*
X109185139Y-136407588D01*
X109432788Y-136159939D01*
X109724002Y-135965356D01*
X110047577Y-135831327D01*
X110391081Y-135763000D01*
X110741319Y-135763000D01*
X111084823Y-135831327D01*
X111084823Y-135831327D01*
G37*
G36*
X168260223Y-135831327D02*
X168583798Y-135965356D01*
X168875012Y-136159939D01*
X169122661Y-136407588D01*
X169317244Y-136698802D01*
X169451273Y-137022377D01*
X169519600Y-137365881D01*
X169519600Y-137716119D01*
X169451273Y-138059623D01*
X169317244Y-138383198D01*
X169122661Y-138674412D01*
X168875012Y-138922061D01*
X168583798Y-139116644D01*
X168260223Y-139250673D01*
X167916719Y-139319000D01*
X167566481Y-139319000D01*
X167222977Y-139250673D01*
X166899402Y-139116644D01*
X166608188Y-138922061D01*
X166360539Y-138674412D01*
X166165956Y-138383198D01*
X166031927Y-138059623D01*
X165963600Y-137716119D01*
X165963600Y-137365881D01*
X166031927Y-137022377D01*
X166165956Y-136698802D01*
X166360539Y-136407588D01*
X166608188Y-136159939D01*
X166899402Y-135965356D01*
X167222977Y-135831327D01*
X167566481Y-135763000D01*
X167916719Y-135763000D01*
X168260223Y-135831327D01*
X168260223Y-135831327D01*
G37*
G36*
X139786823Y-135831327D02*
X140110398Y-135965356D01*
X140401612Y-136159939D01*
X140649261Y-136407588D01*
X140843844Y-136698802D01*
X140977873Y-137022377D01*
X141046200Y-137365881D01*
X141046200Y-137716119D01*
X140977873Y-138059623D01*
X140843844Y-138383198D01*
X140649261Y-138674412D01*
X140401612Y-138922061D01*
X140110398Y-139116644D01*
X139786823Y-139250673D01*
X139443319Y-139319000D01*
X139093081Y-139319000D01*
X138749577Y-139250673D01*
X138426002Y-139116644D01*
X138134788Y-138922061D01*
X137887139Y-138674412D01*
X137692556Y-138383198D01*
X137558527Y-138059623D01*
X137490200Y-137716119D01*
X137490200Y-137365881D01*
X137558527Y-137022377D01*
X137692556Y-136698802D01*
X137887139Y-136407588D01*
X138134788Y-136159939D01*
X138426002Y-135965356D01*
X138749577Y-135831327D01*
X139093081Y-135763000D01*
X139443319Y-135763000D01*
X139786823Y-135831327D01*
X139786823Y-135831327D01*
G37*
G36*
X187588636Y-135402250D02*
X187674267Y-135419283D01*
X187812942Y-135476724D01*
X187937750Y-135560118D01*
X188043882Y-135666250D01*
X188127276Y-135791058D01*
X188184717Y-135929734D01*
X188214000Y-136076948D01*
X188214000Y-136227052D01*
X188194478Y-136325195D01*
X188184717Y-136374267D01*
X188140970Y-136479882D01*
X188127276Y-136512942D01*
X188043882Y-136637750D01*
X187937750Y-136743882D01*
X187937747Y-136743884D01*
X187812942Y-136827276D01*
X187674267Y-136884717D01*
X187625195Y-136894478D01*
X187527052Y-136914000D01*
X187376948Y-136914000D01*
X187278805Y-136894478D01*
X187229733Y-136884717D01*
X187091058Y-136827276D01*
X186966253Y-136743884D01*
X186966250Y-136743882D01*
X186860118Y-136637750D01*
X186776724Y-136512942D01*
X186763030Y-136479882D01*
X186719283Y-136374267D01*
X186709522Y-136325195D01*
X186690000Y-136227052D01*
X186690000Y-136076948D01*
X186719283Y-135929734D01*
X186776724Y-135791058D01*
X186860118Y-135666250D01*
X186966250Y-135560118D01*
X187091058Y-135476724D01*
X187229733Y-135419283D01*
X187315364Y-135402250D01*
X187376948Y-135390000D01*
X187527052Y-135390000D01*
X187588636Y-135402250D01*
X187588636Y-135402250D01*
G37*
G36*
X92883195Y-135145522D02*
X92932267Y-135155283D01*
X93052398Y-135205043D01*
X93070942Y-135212724D01*
X93195750Y-135296118D01*
X93301882Y-135402250D01*
X93385276Y-135527058D01*
X93442717Y-135665734D01*
X93472000Y-135812948D01*
X93472000Y-135963052D01*
X93442717Y-136110266D01*
X93385276Y-136248942D01*
X93301882Y-136373750D01*
X93195750Y-136479882D01*
X93195747Y-136479884D01*
X93070942Y-136563276D01*
X92932267Y-136620717D01*
X92883195Y-136630478D01*
X92785052Y-136650000D01*
X92634948Y-136650000D01*
X92536805Y-136630478D01*
X92487733Y-136620717D01*
X92349058Y-136563276D01*
X92224253Y-136479884D01*
X92224250Y-136479882D01*
X92118118Y-136373750D01*
X92034724Y-136248942D01*
X91977283Y-136110266D01*
X91948000Y-135963052D01*
X91948000Y-135812948D01*
X91977283Y-135665734D01*
X92034724Y-135527058D01*
X92118118Y-135402250D01*
X92224250Y-135296118D01*
X92349058Y-135212724D01*
X92367602Y-135205043D01*
X92487733Y-135155283D01*
X92536805Y-135145522D01*
X92634948Y-135126000D01*
X92785052Y-135126000D01*
X92883195Y-135145522D01*
X92883195Y-135145522D01*
G37*
G36*
X133995623Y-131919727D02*
X134319198Y-132053756D01*
X134610412Y-132248339D01*
X134858061Y-132495988D01*
X135052644Y-132787202D01*
X135186673Y-133110777D01*
X135255000Y-133454281D01*
X135255000Y-133804519D01*
X135186673Y-134148023D01*
X135052644Y-134471598D01*
X134858061Y-134762812D01*
X134610412Y-135010461D01*
X134319198Y-135205044D01*
X133995623Y-135339073D01*
X133652119Y-135407400D01*
X133301881Y-135407400D01*
X132958377Y-135339073D01*
X132634802Y-135205044D01*
X132343588Y-135010461D01*
X132095939Y-134762812D01*
X131901356Y-134471598D01*
X131767327Y-134148023D01*
X131699000Y-133804519D01*
X131699000Y-133454281D01*
X131767327Y-133110777D01*
X131901356Y-132787202D01*
X132095939Y-132495988D01*
X132343588Y-132248339D01*
X132634802Y-132053756D01*
X132958377Y-131919727D01*
X133301881Y-131851400D01*
X133652119Y-131851400D01*
X133995623Y-131919727D01*
X133995623Y-131919727D01*
G37*
G36*
X162469023Y-131919727D02*
X162792598Y-132053756D01*
X163083812Y-132248339D01*
X163331461Y-132495988D01*
X163526044Y-132787202D01*
X163660073Y-133110777D01*
X163728400Y-133454281D01*
X163728400Y-133804519D01*
X163660073Y-134148023D01*
X163526044Y-134471598D01*
X163331461Y-134762812D01*
X163083812Y-135010461D01*
X162792598Y-135205044D01*
X162469023Y-135339073D01*
X162125519Y-135407400D01*
X161775281Y-135407400D01*
X161431777Y-135339073D01*
X161108202Y-135205044D01*
X160816988Y-135010461D01*
X160569339Y-134762812D01*
X160374756Y-134471598D01*
X160240727Y-134148023D01*
X160172400Y-133804519D01*
X160172400Y-133454281D01*
X160240727Y-133110777D01*
X160374756Y-132787202D01*
X160569339Y-132495988D01*
X160816988Y-132248339D01*
X161108202Y-132053756D01*
X161431777Y-131919727D01*
X161775281Y-131851400D01*
X162125519Y-131851400D01*
X162469023Y-131919727D01*
X162469023Y-131919727D01*
G37*
G36*
X105293623Y-131919727D02*
X105617198Y-132053756D01*
X105908412Y-132248339D01*
X106156061Y-132495988D01*
X106350644Y-132787202D01*
X106484673Y-133110777D01*
X106553000Y-133454281D01*
X106553000Y-133804519D01*
X106484673Y-134148023D01*
X106350644Y-134471598D01*
X106156061Y-134762812D01*
X105908412Y-135010461D01*
X105617198Y-135205044D01*
X105293623Y-135339073D01*
X104950119Y-135407400D01*
X104599881Y-135407400D01*
X104256377Y-135339073D01*
X103932802Y-135205044D01*
X103641588Y-135010461D01*
X103393939Y-134762812D01*
X103199356Y-134471598D01*
X103065327Y-134148023D01*
X102997000Y-133804519D01*
X102997000Y-133454281D01*
X103065327Y-133110777D01*
X103199356Y-132787202D01*
X103393939Y-132495988D01*
X103641588Y-132248339D01*
X103932802Y-132053756D01*
X104256377Y-131919727D01*
X104599881Y-131851400D01*
X104950119Y-131851400D01*
X105293623Y-131919727D01*
X105293623Y-131919727D01*
G37*
G36*
X140495964Y-127827887D02*
X140827202Y-127893775D01*
X141085686Y-128000843D01*
X141451239Y-128152259D01*
X142012863Y-128527524D01*
X142490476Y-129005137D01*
X142865741Y-129566761D01*
X143124225Y-130190799D01*
X143256000Y-130853272D01*
X143256000Y-131528728D01*
X143206042Y-131779882D01*
X143124225Y-132191202D01*
X143100559Y-132248337D01*
X142865741Y-132815239D01*
X142490476Y-133376863D01*
X142012863Y-133854476D01*
X141451239Y-134229741D01*
X141085686Y-134381157D01*
X140827202Y-134488225D01*
X140495965Y-134554112D01*
X140164728Y-134620000D01*
X139489272Y-134620000D01*
X139158035Y-134554112D01*
X138826798Y-134488225D01*
X138568314Y-134381157D01*
X138202761Y-134229741D01*
X137641137Y-133854476D01*
X137163524Y-133376863D01*
X136788259Y-132815239D01*
X136553441Y-132248337D01*
X136529775Y-132191202D01*
X136447958Y-131779882D01*
X136398000Y-131528728D01*
X136398000Y-130853272D01*
X136529775Y-130190799D01*
X136788259Y-129566761D01*
X137163524Y-129005137D01*
X137641137Y-128527524D01*
X138202761Y-128152259D01*
X138568314Y-128000843D01*
X138826798Y-127893775D01*
X139158036Y-127827887D01*
X139489272Y-127762000D01*
X140164728Y-127762000D01*
X140495964Y-127827887D01*
X140495964Y-127827887D01*
G37*
G36*
X168969364Y-127827887D02*
X169300602Y-127893775D01*
X169559086Y-128000843D01*
X169924639Y-128152259D01*
X170486263Y-128527524D01*
X170963876Y-129005137D01*
X171339141Y-129566761D01*
X171597625Y-130190799D01*
X171729400Y-130853272D01*
X171729400Y-131528728D01*
X171679442Y-131779882D01*
X171597625Y-132191202D01*
X171573959Y-132248337D01*
X171339141Y-132815239D01*
X170963876Y-133376863D01*
X170486263Y-133854476D01*
X169924639Y-134229741D01*
X169559086Y-134381157D01*
X169300602Y-134488225D01*
X168969365Y-134554112D01*
X168638128Y-134620000D01*
X167962672Y-134620000D01*
X167631435Y-134554112D01*
X167300198Y-134488225D01*
X167041714Y-134381157D01*
X166676161Y-134229741D01*
X166114537Y-133854476D01*
X165636924Y-133376863D01*
X165261659Y-132815239D01*
X165026841Y-132248337D01*
X165003175Y-132191202D01*
X164921358Y-131779882D01*
X164871400Y-131528728D01*
X164871400Y-130853272D01*
X165003175Y-130190799D01*
X165261659Y-129566761D01*
X165636924Y-129005137D01*
X166114537Y-128527524D01*
X166676161Y-128152259D01*
X167041714Y-128000843D01*
X167300198Y-127893775D01*
X167631436Y-127827887D01*
X167962672Y-127762000D01*
X168638128Y-127762000D01*
X168969364Y-127827887D01*
X168969364Y-127827887D01*
G37*
G36*
X111793964Y-127827887D02*
X112125202Y-127893775D01*
X112383686Y-128000843D01*
X112749239Y-128152259D01*
X113310863Y-128527524D01*
X113788476Y-129005137D01*
X114163741Y-129566761D01*
X114422225Y-130190799D01*
X114554000Y-130853272D01*
X114554000Y-131528728D01*
X114504042Y-131779882D01*
X114422225Y-132191202D01*
X114398559Y-132248337D01*
X114163741Y-132815239D01*
X113788476Y-133376863D01*
X113310863Y-133854476D01*
X112749239Y-134229741D01*
X112383686Y-134381157D01*
X112125202Y-134488225D01*
X111793965Y-134554112D01*
X111462728Y-134620000D01*
X110787272Y-134620000D01*
X110456035Y-134554112D01*
X110124798Y-134488225D01*
X109866314Y-134381157D01*
X109500761Y-134229741D01*
X108939137Y-133854476D01*
X108461524Y-133376863D01*
X108086259Y-132815239D01*
X107851441Y-132248337D01*
X107827775Y-132191202D01*
X107745958Y-131779882D01*
X107696000Y-131528728D01*
X107696000Y-130853272D01*
X107827775Y-130190799D01*
X108086259Y-129566761D01*
X108461524Y-129005137D01*
X108939137Y-128527524D01*
X109500761Y-128152259D01*
X109866314Y-128000843D01*
X110124798Y-127893775D01*
X110456036Y-127827887D01*
X110787272Y-127762000D01*
X111462728Y-127762000D01*
X111793964Y-127827887D01*
X111793964Y-127827887D01*
G37*
G36*
X117993623Y-128922527D02*
X118317198Y-129056556D01*
X118608412Y-129251139D01*
X118856061Y-129498788D01*
X119050644Y-129790002D01*
X119184673Y-130113577D01*
X119253000Y-130457081D01*
X119253000Y-130807319D01*
X119184673Y-131150823D01*
X119050644Y-131474398D01*
X118856061Y-131765612D01*
X118608412Y-132013261D01*
X118317198Y-132207844D01*
X117993623Y-132341873D01*
X117650119Y-132410200D01*
X117299881Y-132410200D01*
X116956377Y-132341873D01*
X116632802Y-132207844D01*
X116341588Y-132013261D01*
X116093939Y-131765612D01*
X115899356Y-131474398D01*
X115765327Y-131150823D01*
X115697000Y-130807319D01*
X115697000Y-130457081D01*
X115765327Y-130113577D01*
X115899356Y-129790002D01*
X116093939Y-129498788D01*
X116341588Y-129251139D01*
X116632802Y-129056556D01*
X116956377Y-128922527D01*
X117299881Y-128854200D01*
X117650119Y-128854200D01*
X117993623Y-128922527D01*
X117993623Y-128922527D01*
G37*
G36*
X146695623Y-128922527D02*
X147019198Y-129056556D01*
X147310412Y-129251139D01*
X147558061Y-129498788D01*
X147752644Y-129790002D01*
X147886673Y-130113577D01*
X147955000Y-130457081D01*
X147955000Y-130807319D01*
X147886673Y-131150823D01*
X147752644Y-131474398D01*
X147558061Y-131765612D01*
X147310412Y-132013261D01*
X147019198Y-132207844D01*
X146695623Y-132341873D01*
X146352119Y-132410200D01*
X146001881Y-132410200D01*
X145658377Y-132341873D01*
X145334802Y-132207844D01*
X145043588Y-132013261D01*
X144795939Y-131765612D01*
X144601356Y-131474398D01*
X144467327Y-131150823D01*
X144399000Y-130807319D01*
X144399000Y-130457081D01*
X144467327Y-130113577D01*
X144601356Y-129790002D01*
X144795939Y-129498788D01*
X145043588Y-129251139D01*
X145334802Y-129056556D01*
X145658377Y-128922527D01*
X146001881Y-128854200D01*
X146352119Y-128854200D01*
X146695623Y-128922527D01*
X146695623Y-128922527D01*
G37*
G36*
X175169023Y-128922527D02*
X175492598Y-129056556D01*
X175783812Y-129251139D01*
X176031461Y-129498788D01*
X176226044Y-129790002D01*
X176360073Y-130113577D01*
X176428400Y-130457081D01*
X176428400Y-130807319D01*
X176360073Y-131150823D01*
X176226044Y-131474398D01*
X176031461Y-131765612D01*
X175783812Y-132013261D01*
X175492598Y-132207844D01*
X175169023Y-132341873D01*
X174825519Y-132410200D01*
X174475281Y-132410200D01*
X174131777Y-132341873D01*
X173808202Y-132207844D01*
X173516988Y-132013261D01*
X173269339Y-131765612D01*
X173074756Y-131474398D01*
X172940727Y-131150823D01*
X172872400Y-130807319D01*
X172872400Y-130457081D01*
X172940727Y-130113577D01*
X173074756Y-129790002D01*
X173269339Y-129498788D01*
X173516988Y-129251139D01*
X173808202Y-129056556D01*
X174131777Y-128922527D01*
X174475281Y-128854200D01*
X174825519Y-128854200D01*
X175169023Y-128922527D01*
X175169023Y-128922527D01*
G37*
G36*
X187588636Y-130702250D02*
X187674267Y-130719283D01*
X187812942Y-130776724D01*
X187937750Y-130860118D01*
X188043882Y-130966250D01*
X188127276Y-131091058D01*
X188184717Y-131229734D01*
X188214000Y-131376948D01*
X188214000Y-131527052D01*
X188184717Y-131674266D01*
X188127276Y-131812942D01*
X188043882Y-131937750D01*
X187937750Y-132043882D01*
X187937747Y-132043884D01*
X187812942Y-132127276D01*
X187674267Y-132184717D01*
X187641669Y-132191201D01*
X187527052Y-132214000D01*
X187376948Y-132214000D01*
X187262331Y-132191201D01*
X187229733Y-132184717D01*
X187091058Y-132127276D01*
X186966253Y-132043884D01*
X186966250Y-132043882D01*
X186860118Y-131937750D01*
X186776724Y-131812942D01*
X186719283Y-131674266D01*
X186690000Y-131527052D01*
X186690000Y-131376948D01*
X186719283Y-131229734D01*
X186776724Y-131091058D01*
X186860118Y-130966250D01*
X186966250Y-130860118D01*
X187091058Y-130776724D01*
X187229733Y-130719283D01*
X187315364Y-130702250D01*
X187376948Y-130690000D01*
X187527052Y-130690000D01*
X187588636Y-130702250D01*
X187588636Y-130702250D01*
G37*
G36*
X92883195Y-130445522D02*
X92932267Y-130455283D01*
X93070942Y-130512724D01*
X93195750Y-130596118D01*
X93301882Y-130702250D01*
X93385276Y-130827058D01*
X93442717Y-130965734D01*
X93467646Y-131091058D01*
X93472000Y-131112950D01*
X93472000Y-131263050D01*
X93442717Y-131410267D01*
X93394344Y-131527050D01*
X93385276Y-131548942D01*
X93301882Y-131673750D01*
X93195750Y-131779882D01*
X93195747Y-131779884D01*
X93070942Y-131863276D01*
X92932267Y-131920717D01*
X92883195Y-131930478D01*
X92785052Y-131950000D01*
X92634948Y-131950000D01*
X92536805Y-131930478D01*
X92487733Y-131920717D01*
X92349058Y-131863276D01*
X92224253Y-131779884D01*
X92224250Y-131779882D01*
X92118118Y-131673750D01*
X92034724Y-131548942D01*
X92025656Y-131527050D01*
X91977283Y-131410267D01*
X91948000Y-131263050D01*
X91948000Y-131112950D01*
X91952355Y-131091058D01*
X91977283Y-130965734D01*
X92034724Y-130827058D01*
X92118118Y-130702250D01*
X92224250Y-130596118D01*
X92349058Y-130512724D01*
X92487733Y-130455283D01*
X92536805Y-130445522D01*
X92634948Y-130426000D01*
X92785052Y-130426000D01*
X92883195Y-130445522D01*
X92883195Y-130445522D01*
G37*
G36*
X106970023Y-124807727D02*
X107293598Y-124941756D01*
X107584812Y-125136339D01*
X107832461Y-125383988D01*
X108027044Y-125675202D01*
X108161073Y-125998777D01*
X108229400Y-126342281D01*
X108229400Y-126692519D01*
X108161073Y-127036023D01*
X108027044Y-127359598D01*
X107832461Y-127650812D01*
X107584812Y-127898461D01*
X107293598Y-128093044D01*
X106970023Y-128227073D01*
X106626519Y-128295400D01*
X106276281Y-128295400D01*
X105932777Y-128227073D01*
X105609202Y-128093044D01*
X105317988Y-127898461D01*
X105070339Y-127650812D01*
X104875756Y-127359598D01*
X104741727Y-127036023D01*
X104673400Y-126692519D01*
X104673400Y-126342281D01*
X104741727Y-125998777D01*
X104875756Y-125675202D01*
X105070339Y-125383988D01*
X105317988Y-125136339D01*
X105609202Y-124941756D01*
X105932777Y-124807727D01*
X106276281Y-124739400D01*
X106626519Y-124739400D01*
X106970023Y-124807727D01*
X106970023Y-124807727D01*
G37*
G36*
X164145423Y-124807727D02*
X164468998Y-124941756D01*
X164760212Y-125136339D01*
X165007861Y-125383988D01*
X165202444Y-125675202D01*
X165336473Y-125998777D01*
X165404800Y-126342281D01*
X165404800Y-126692519D01*
X165336473Y-127036023D01*
X165202444Y-127359598D01*
X165007861Y-127650812D01*
X164760212Y-127898461D01*
X164468998Y-128093044D01*
X164145423Y-128227073D01*
X163801919Y-128295400D01*
X163451681Y-128295400D01*
X163108177Y-128227073D01*
X162784602Y-128093044D01*
X162493388Y-127898461D01*
X162245739Y-127650812D01*
X162051156Y-127359598D01*
X161917127Y-127036023D01*
X161848800Y-126692519D01*
X161848800Y-126342281D01*
X161917127Y-125998777D01*
X162051156Y-125675202D01*
X162245739Y-125383988D01*
X162493388Y-125136339D01*
X162784602Y-124941756D01*
X163108177Y-124807727D01*
X163451681Y-124739400D01*
X163801919Y-124739400D01*
X164145423Y-124807727D01*
X164145423Y-124807727D01*
G37*
G36*
X135672023Y-124807727D02*
X135995598Y-124941756D01*
X136286812Y-125136339D01*
X136534461Y-125383988D01*
X136729044Y-125675202D01*
X136863073Y-125998777D01*
X136931400Y-126342281D01*
X136931400Y-126692519D01*
X136863073Y-127036023D01*
X136729044Y-127359598D01*
X136534461Y-127650812D01*
X136286812Y-127898461D01*
X135995598Y-128093044D01*
X135672023Y-128227073D01*
X135328519Y-128295400D01*
X134978281Y-128295400D01*
X134634777Y-128227073D01*
X134311202Y-128093044D01*
X134019988Y-127898461D01*
X133772339Y-127650812D01*
X133577756Y-127359598D01*
X133443727Y-127036023D01*
X133375400Y-126692519D01*
X133375400Y-126342281D01*
X133443727Y-125998777D01*
X133577756Y-125675202D01*
X133772339Y-125383988D01*
X134019988Y-125136339D01*
X134311202Y-124941756D01*
X134634777Y-124807727D01*
X134978281Y-124739400D01*
X135328519Y-124739400D01*
X135672023Y-124807727D01*
X135672023Y-124807727D01*
G37*
G36*
X187588636Y-126002250D02*
X187674267Y-126019283D01*
X187812942Y-126076724D01*
X187937750Y-126160118D01*
X188043882Y-126266250D01*
X188127276Y-126391058D01*
X188184717Y-126529734D01*
X188214000Y-126676948D01*
X188214000Y-126827052D01*
X188184717Y-126974266D01*
X188127276Y-127112942D01*
X188043882Y-127237750D01*
X187937750Y-127343882D01*
X187937747Y-127343884D01*
X187812942Y-127427276D01*
X187674267Y-127484717D01*
X187625195Y-127494478D01*
X187527052Y-127514000D01*
X187376948Y-127514000D01*
X187278805Y-127494478D01*
X187229733Y-127484717D01*
X187091058Y-127427276D01*
X186966253Y-127343884D01*
X186966250Y-127343882D01*
X186860118Y-127237750D01*
X186776724Y-127112942D01*
X186719283Y-126974266D01*
X186690000Y-126827052D01*
X186690000Y-126676948D01*
X186719283Y-126529734D01*
X186776724Y-126391058D01*
X186860118Y-126266250D01*
X186966250Y-126160118D01*
X187091058Y-126076724D01*
X187229733Y-126019283D01*
X187315364Y-126002250D01*
X187376948Y-125990000D01*
X187527052Y-125990000D01*
X187588636Y-126002250D01*
X187588636Y-126002250D01*
G37*
G36*
X92883195Y-125745522D02*
X92932267Y-125755283D01*
X93070942Y-125812724D01*
X93195750Y-125896118D01*
X93301882Y-126002250D01*
X93385276Y-126127058D01*
X93442717Y-126265734D01*
X93472000Y-126412948D01*
X93472000Y-126563052D01*
X93442717Y-126710266D01*
X93385276Y-126848942D01*
X93301882Y-126973750D01*
X93195750Y-127079882D01*
X93195747Y-127079884D01*
X93070942Y-127163276D01*
X92932267Y-127220717D01*
X92883195Y-127230478D01*
X92785052Y-127250000D01*
X92634948Y-127250000D01*
X92536805Y-127230478D01*
X92487733Y-127220717D01*
X92349058Y-127163276D01*
X92224253Y-127079884D01*
X92224250Y-127079882D01*
X92118118Y-126973750D01*
X92034724Y-126848942D01*
X91977283Y-126710266D01*
X91948000Y-126563052D01*
X91948000Y-126412948D01*
X91977283Y-126265734D01*
X92034724Y-126127058D01*
X92118118Y-126002250D01*
X92224250Y-125896118D01*
X92349058Y-125812724D01*
X92487733Y-125755283D01*
X92536805Y-125745522D01*
X92634948Y-125726000D01*
X92785052Y-125726000D01*
X92883195Y-125745522D01*
X92883195Y-125745522D01*
G37*
G36*
X171257423Y-123131327D02*
X171580998Y-123265356D01*
X171872212Y-123459939D01*
X172119861Y-123707588D01*
X172314444Y-123998802D01*
X172448473Y-124322377D01*
X172516800Y-124665881D01*
X172516800Y-125016119D01*
X172448473Y-125359623D01*
X172314444Y-125683198D01*
X172119861Y-125974412D01*
X171872212Y-126222061D01*
X171580998Y-126416644D01*
X171257423Y-126550673D01*
X170913919Y-126619000D01*
X170563681Y-126619000D01*
X170220177Y-126550673D01*
X169896602Y-126416644D01*
X169605388Y-126222061D01*
X169357739Y-125974412D01*
X169163156Y-125683198D01*
X169029127Y-125359623D01*
X168960800Y-125016119D01*
X168960800Y-124665881D01*
X169029127Y-124322377D01*
X169163156Y-123998802D01*
X169357739Y-123707588D01*
X169605388Y-123459939D01*
X169896602Y-123265356D01*
X170220177Y-123131327D01*
X170563681Y-123063000D01*
X170913919Y-123063000D01*
X171257423Y-123131327D01*
X171257423Y-123131327D01*
G37*
G36*
X142784023Y-123131327D02*
X143107598Y-123265356D01*
X143398812Y-123459939D01*
X143646461Y-123707588D01*
X143841044Y-123998802D01*
X143975073Y-124322377D01*
X144043400Y-124665881D01*
X144043400Y-125016119D01*
X143975073Y-125359623D01*
X143841044Y-125683198D01*
X143646461Y-125974412D01*
X143398812Y-126222061D01*
X143107598Y-126416644D01*
X142784023Y-126550673D01*
X142440519Y-126619000D01*
X142090281Y-126619000D01*
X141746777Y-126550673D01*
X141423202Y-126416644D01*
X141131988Y-126222061D01*
X140884339Y-125974412D01*
X140689756Y-125683198D01*
X140555727Y-125359623D01*
X140487400Y-125016119D01*
X140487400Y-124665881D01*
X140555727Y-124322377D01*
X140689756Y-123998802D01*
X140884339Y-123707588D01*
X141131988Y-123459939D01*
X141423202Y-123265356D01*
X141746777Y-123131327D01*
X142090281Y-123063000D01*
X142440519Y-123063000D01*
X142784023Y-123131327D01*
X142784023Y-123131327D01*
G37*
G36*
X114082023Y-123131327D02*
X114405598Y-123265356D01*
X114696812Y-123459939D01*
X114944461Y-123707588D01*
X115139044Y-123998802D01*
X115273073Y-124322377D01*
X115341400Y-124665881D01*
X115341400Y-125016119D01*
X115273073Y-125359623D01*
X115139044Y-125683198D01*
X114944461Y-125974412D01*
X114696812Y-126222061D01*
X114405598Y-126416644D01*
X114082023Y-126550673D01*
X113738519Y-126619000D01*
X113388281Y-126619000D01*
X113044777Y-126550673D01*
X112721202Y-126416644D01*
X112429988Y-126222061D01*
X112182339Y-125974412D01*
X111987756Y-125683198D01*
X111853727Y-125359623D01*
X111785400Y-125016119D01*
X111785400Y-124665881D01*
X111853727Y-124322377D01*
X111987756Y-123998802D01*
X112182339Y-123707588D01*
X112429988Y-123459939D01*
X112721202Y-123265356D01*
X113044777Y-123131327D01*
X113388281Y-123063000D01*
X113738519Y-123063000D01*
X114082023Y-123131327D01*
X114082023Y-123131327D01*
G37*
G36*
X187588636Y-121302250D02*
X187674267Y-121319283D01*
X187812942Y-121376724D01*
X187937750Y-121460118D01*
X188043882Y-121566250D01*
X188127276Y-121691058D01*
X188184717Y-121829734D01*
X188214000Y-121976948D01*
X188214000Y-122127052D01*
X188184717Y-122274266D01*
X188127276Y-122412942D01*
X188043882Y-122537750D01*
X187937750Y-122643882D01*
X187937747Y-122643884D01*
X187812942Y-122727276D01*
X187674267Y-122784717D01*
X187625195Y-122794478D01*
X187527052Y-122814000D01*
X187376948Y-122814000D01*
X187278805Y-122794478D01*
X187229733Y-122784717D01*
X187091058Y-122727276D01*
X186966253Y-122643884D01*
X186966250Y-122643882D01*
X186860118Y-122537750D01*
X186776724Y-122412942D01*
X186719283Y-122274266D01*
X186690000Y-122127052D01*
X186690000Y-121976948D01*
X186719283Y-121829734D01*
X186776724Y-121691058D01*
X186860118Y-121566250D01*
X186966250Y-121460118D01*
X187091058Y-121376724D01*
X187229733Y-121319283D01*
X187315364Y-121302250D01*
X187376948Y-121290000D01*
X187527052Y-121290000D01*
X187588636Y-121302250D01*
X187588636Y-121302250D01*
G37*
G36*
X92883195Y-121045522D02*
X92932267Y-121055283D01*
X93070942Y-121112724D01*
X93195750Y-121196118D01*
X93301882Y-121302250D01*
X93385276Y-121427058D01*
X93442717Y-121565734D01*
X93472000Y-121712948D01*
X93472000Y-121863052D01*
X93442717Y-122010266D01*
X93385276Y-122148942D01*
X93301882Y-122273750D01*
X93195750Y-122379882D01*
X93195747Y-122379884D01*
X93070942Y-122463276D01*
X92932267Y-122520717D01*
X92883195Y-122530478D01*
X92785052Y-122550000D01*
X92634948Y-122550000D01*
X92536805Y-122530478D01*
X92487733Y-122520717D01*
X92349058Y-122463276D01*
X92224253Y-122379884D01*
X92224250Y-122379882D01*
X92118118Y-122273750D01*
X92034724Y-122148942D01*
X91977283Y-122010266D01*
X91948000Y-121863052D01*
X91948000Y-121712948D01*
X91977283Y-121565734D01*
X92034724Y-121427058D01*
X92118118Y-121302250D01*
X92224250Y-121196118D01*
X92349058Y-121112724D01*
X92487733Y-121055283D01*
X92536805Y-121045522D01*
X92634948Y-121026000D01*
X92785052Y-121026000D01*
X92883195Y-121045522D01*
X92883195Y-121045522D01*
G37*
G36*
X187588636Y-116602250D02*
X187674267Y-116619283D01*
X187781195Y-116663574D01*
X187812942Y-116676724D01*
X187937750Y-116760118D01*
X188043882Y-116866250D01*
X188127276Y-116991058D01*
X188184717Y-117129734D01*
X188214000Y-117276948D01*
X188214000Y-117427052D01*
X188184717Y-117574266D01*
X188127276Y-117712942D01*
X188043882Y-117837750D01*
X187937750Y-117943882D01*
X187937747Y-117943884D01*
X187812942Y-118027276D01*
X187674267Y-118084717D01*
X187625195Y-118094478D01*
X187527052Y-118114000D01*
X187376948Y-118114000D01*
X187278805Y-118094478D01*
X187229733Y-118084717D01*
X187091058Y-118027276D01*
X186966253Y-117943884D01*
X186966250Y-117943882D01*
X186860118Y-117837750D01*
X186776724Y-117712942D01*
X186719283Y-117574266D01*
X186690000Y-117427052D01*
X186690000Y-117276948D01*
X186719283Y-117129734D01*
X186776724Y-116991058D01*
X186860118Y-116866250D01*
X186966250Y-116760118D01*
X187091058Y-116676724D01*
X187122805Y-116663574D01*
X187229733Y-116619283D01*
X187315364Y-116602250D01*
X187376948Y-116590000D01*
X187527052Y-116590000D01*
X187588636Y-116602250D01*
X187588636Y-116602250D01*
G37*
G36*
X92883195Y-116345522D02*
X92932267Y-116355283D01*
X93042505Y-116400945D01*
X93070942Y-116412724D01*
X93195750Y-116496118D01*
X93301882Y-116602250D01*
X93301884Y-116602253D01*
X93385276Y-116727058D01*
X93442717Y-116865733D01*
X93444705Y-116875726D01*
X93472000Y-117012948D01*
X93472000Y-117163052D01*
X93442717Y-117310266D01*
X93385276Y-117448942D01*
X93301882Y-117573750D01*
X93195750Y-117679882D01*
X93195747Y-117679884D01*
X93070942Y-117763276D01*
X92932267Y-117820717D01*
X92883195Y-117830478D01*
X92785052Y-117850000D01*
X92634948Y-117850000D01*
X92536805Y-117830478D01*
X92487733Y-117820717D01*
X92349058Y-117763276D01*
X92224253Y-117679884D01*
X92224250Y-117679882D01*
X92118118Y-117573750D01*
X92034724Y-117448942D01*
X91977283Y-117310266D01*
X91948000Y-117163052D01*
X91948000Y-117012948D01*
X91975295Y-116875726D01*
X91977283Y-116865733D01*
X92034724Y-116727058D01*
X92118116Y-116602253D01*
X92118118Y-116602250D01*
X92224250Y-116496118D01*
X92349058Y-116412724D01*
X92377495Y-116400945D01*
X92487733Y-116355283D01*
X92536805Y-116345522D01*
X92634948Y-116326000D01*
X92785052Y-116326000D01*
X92883195Y-116345522D01*
X92883195Y-116345522D01*
G37*
G36*
X126950183Y-115658900D02*
X127077574Y-115711668D01*
X127192225Y-115788275D01*
X127289725Y-115885775D01*
X127366332Y-116000426D01*
X127419100Y-116127817D01*
X127446000Y-116263055D01*
X127446000Y-116400945D01*
X127419100Y-116536183D01*
X127391732Y-116602253D01*
X127366332Y-116663574D01*
X127357546Y-116676724D01*
X127289725Y-116778225D01*
X127192225Y-116875725D01*
X127077574Y-116952332D01*
X126950183Y-117005100D01*
X126814945Y-117032000D01*
X126677055Y-117032000D01*
X126541817Y-117005100D01*
X126414426Y-116952332D01*
X126299775Y-116875725D01*
X126202275Y-116778225D01*
X126134455Y-116676724D01*
X126125668Y-116663574D01*
X126100268Y-116602253D01*
X126072900Y-116536183D01*
X126046000Y-116400945D01*
X126046000Y-116263055D01*
X126072900Y-116127817D01*
X126125668Y-116000426D01*
X126202275Y-115885775D01*
X126299775Y-115788275D01*
X126414426Y-115711668D01*
X126541817Y-115658900D01*
X126677055Y-115632000D01*
X126814945Y-115632000D01*
X126950183Y-115658900D01*
X126950183Y-115658900D01*
G37*
G36*
X124906000Y-117032000D02*
X123506000Y-117032000D01*
X123506000Y-115632000D01*
X124906000Y-115632000D01*
X124906000Y-117032000D01*
X124906000Y-117032000D01*
G37*
G36*
X124410183Y-113118900D02*
X124537574Y-113171668D01*
X124652224Y-113248274D01*
X124749726Y-113345776D01*
X124775745Y-113384717D01*
X124826332Y-113460426D01*
X124879100Y-113587817D01*
X124906000Y-113723055D01*
X124906000Y-113860945D01*
X124879100Y-113996183D01*
X124826332Y-114123574D01*
X124749725Y-114238225D01*
X124652225Y-114335725D01*
X124537574Y-114412332D01*
X124410183Y-114465100D01*
X124274945Y-114492000D01*
X124137055Y-114492000D01*
X124001817Y-114465100D01*
X123874426Y-114412332D01*
X123759775Y-114335725D01*
X123662275Y-114238225D01*
X123585668Y-114123574D01*
X123532900Y-113996183D01*
X123506000Y-113860945D01*
X123506000Y-113723055D01*
X123532900Y-113587817D01*
X123585668Y-113460426D01*
X123636255Y-113384717D01*
X123662274Y-113345776D01*
X123759776Y-113248274D01*
X123874426Y-113171668D01*
X124001817Y-113118900D01*
X124137055Y-113092000D01*
X124274945Y-113092000D01*
X124410183Y-113118900D01*
X124410183Y-113118900D01*
G37*
G36*
X126950183Y-113118900D02*
X127077574Y-113171668D01*
X127192224Y-113248274D01*
X127289726Y-113345776D01*
X127315745Y-113384717D01*
X127366332Y-113460426D01*
X127419100Y-113587817D01*
X127446000Y-113723055D01*
X127446000Y-113860945D01*
X127419100Y-113996183D01*
X127366332Y-114123574D01*
X127289725Y-114238225D01*
X127192225Y-114335725D01*
X127077574Y-114412332D01*
X126950183Y-114465100D01*
X126814945Y-114492000D01*
X126677055Y-114492000D01*
X126541817Y-114465100D01*
X126414426Y-114412332D01*
X126299775Y-114335725D01*
X126202275Y-114238225D01*
X126125668Y-114123574D01*
X126072900Y-113996183D01*
X126046000Y-113860945D01*
X126046000Y-113723055D01*
X126072900Y-113587817D01*
X126125668Y-113460426D01*
X126176255Y-113384717D01*
X126202274Y-113345776D01*
X126299776Y-113248274D01*
X126414426Y-113171668D01*
X126541817Y-113118900D01*
X126677055Y-113092000D01*
X126814945Y-113092000D01*
X126950183Y-113118900D01*
X126950183Y-113118900D01*
G37*
G36*
X167853823Y-110812327D02*
X168177398Y-110946356D01*
X168468612Y-111140939D01*
X168716261Y-111388588D01*
X168910844Y-111679802D01*
X169044873Y-112003377D01*
X169113200Y-112346881D01*
X169113200Y-112697119D01*
X169044873Y-113040623D01*
X168910844Y-113364198D01*
X168716261Y-113655412D01*
X168468612Y-113903061D01*
X168177398Y-114097644D01*
X167853823Y-114231673D01*
X167510319Y-114300000D01*
X167160081Y-114300000D01*
X166816577Y-114231673D01*
X166493002Y-114097644D01*
X166201788Y-113903061D01*
X165954139Y-113655412D01*
X165759556Y-113364198D01*
X165625527Y-113040623D01*
X165557200Y-112697119D01*
X165557200Y-112346881D01*
X165625527Y-112003377D01*
X165759556Y-111679802D01*
X165954139Y-111388588D01*
X166201788Y-111140939D01*
X166493002Y-110946356D01*
X166816577Y-110812327D01*
X167160081Y-110744000D01*
X167510319Y-110744000D01*
X167853823Y-110812327D01*
X167853823Y-110812327D01*
G37*
G36*
X138770823Y-110812327D02*
X139094398Y-110946356D01*
X139385612Y-111140939D01*
X139633261Y-111388588D01*
X139827844Y-111679802D01*
X139961873Y-112003377D01*
X140030200Y-112346881D01*
X140030200Y-112697119D01*
X139961873Y-113040623D01*
X139827844Y-113364198D01*
X139633261Y-113655412D01*
X139385612Y-113903061D01*
X139094398Y-114097644D01*
X138770823Y-114231673D01*
X138427319Y-114300000D01*
X138077081Y-114300000D01*
X137733577Y-114231673D01*
X137410002Y-114097644D01*
X137118788Y-113903061D01*
X136871139Y-113655412D01*
X136676556Y-113364198D01*
X136542527Y-113040623D01*
X136474200Y-112697119D01*
X136474200Y-112346881D01*
X136542527Y-112003377D01*
X136676556Y-111679802D01*
X136871139Y-111388588D01*
X137118788Y-111140939D01*
X137410002Y-110946356D01*
X137733577Y-110812327D01*
X138077081Y-110744000D01*
X138427319Y-110744000D01*
X138770823Y-110812327D01*
X138770823Y-110812327D01*
G37*
G36*
X110653023Y-110812327D02*
X110976598Y-110946356D01*
X111267812Y-111140939D01*
X111515461Y-111388588D01*
X111710044Y-111679802D01*
X111844073Y-112003377D01*
X111912400Y-112346881D01*
X111912400Y-112697119D01*
X111844073Y-113040623D01*
X111710044Y-113364198D01*
X111515461Y-113655412D01*
X111267812Y-113903061D01*
X110976598Y-114097644D01*
X110653023Y-114231673D01*
X110309519Y-114300000D01*
X109959281Y-114300000D01*
X109615777Y-114231673D01*
X109292202Y-114097644D01*
X109000988Y-113903061D01*
X108753339Y-113655412D01*
X108558756Y-113364198D01*
X108424727Y-113040623D01*
X108356400Y-112697119D01*
X108356400Y-112346881D01*
X108424727Y-112003377D01*
X108558756Y-111679802D01*
X108753339Y-111388588D01*
X109000988Y-111140939D01*
X109292202Y-110946356D01*
X109615777Y-110812327D01*
X109959281Y-110744000D01*
X110309519Y-110744000D01*
X110653023Y-110812327D01*
X110653023Y-110812327D01*
G37*
G36*
X187588636Y-111902250D02*
X187674267Y-111919283D01*
X187812942Y-111976724D01*
X187937750Y-112060118D01*
X188043882Y-112166250D01*
X188043884Y-112166253D01*
X188127276Y-112291058D01*
X188150399Y-112346881D01*
X188184717Y-112429734D01*
X188214000Y-112576948D01*
X188214000Y-112727052D01*
X188184717Y-112874266D01*
X188127276Y-113012942D01*
X188043882Y-113137750D01*
X187937750Y-113243882D01*
X187937747Y-113243884D01*
X187812942Y-113327276D01*
X187674267Y-113384717D01*
X187625195Y-113394478D01*
X187527052Y-113414000D01*
X187376948Y-113414000D01*
X187278805Y-113394478D01*
X187229733Y-113384717D01*
X187091058Y-113327276D01*
X186966253Y-113243884D01*
X186966250Y-113243882D01*
X186860118Y-113137750D01*
X186776724Y-113012942D01*
X186719283Y-112874266D01*
X186690000Y-112727052D01*
X186690000Y-112576948D01*
X186719283Y-112429734D01*
X186753602Y-112346881D01*
X186776724Y-112291058D01*
X186860116Y-112166253D01*
X186860118Y-112166250D01*
X186966250Y-112060118D01*
X187091058Y-111976724D01*
X187229733Y-111919283D01*
X187315364Y-111902250D01*
X187376948Y-111890000D01*
X187527052Y-111890000D01*
X187588636Y-111902250D01*
X187588636Y-111902250D01*
G37*
G36*
X92883195Y-111645522D02*
X92932267Y-111655283D01*
X92991461Y-111679802D01*
X93070942Y-111712724D01*
X93195750Y-111796118D01*
X93301882Y-111902250D01*
X93385276Y-112027058D01*
X93442717Y-112165734D01*
X93472000Y-112312948D01*
X93472000Y-112463052D01*
X93442717Y-112610266D01*
X93385276Y-112748942D01*
X93301882Y-112873750D01*
X93195750Y-112979882D01*
X93195747Y-112979884D01*
X93070942Y-113063276D01*
X92932267Y-113120717D01*
X92883195Y-113130478D01*
X92785052Y-113150000D01*
X92634948Y-113150000D01*
X92536805Y-113130478D01*
X92487733Y-113120717D01*
X92349058Y-113063276D01*
X92224253Y-112979884D01*
X92224250Y-112979882D01*
X92118118Y-112873750D01*
X92034724Y-112748942D01*
X91977283Y-112610266D01*
X91948000Y-112463052D01*
X91948000Y-112312948D01*
X91977283Y-112165734D01*
X92034724Y-112027058D01*
X92118118Y-111902250D01*
X92224250Y-111796118D01*
X92349058Y-111712724D01*
X92428539Y-111679802D01*
X92487733Y-111655283D01*
X92536805Y-111645522D01*
X92634948Y-111626000D01*
X92785052Y-111626000D01*
X92883195Y-111645522D01*
X92883195Y-111645522D01*
G37*
G36*
X126950183Y-110578900D02*
X127077574Y-110631668D01*
X127192225Y-110708275D01*
X127289725Y-110805775D01*
X127366332Y-110920426D01*
X127419100Y-111047817D01*
X127446000Y-111183055D01*
X127446000Y-111320945D01*
X127419100Y-111456183D01*
X127366332Y-111583574D01*
X127302036Y-111679801D01*
X127289725Y-111698225D01*
X127192225Y-111795725D01*
X127077574Y-111872332D01*
X126950183Y-111925100D01*
X126814945Y-111952000D01*
X126677055Y-111952000D01*
X126541817Y-111925100D01*
X126414426Y-111872332D01*
X126299775Y-111795725D01*
X126202275Y-111698225D01*
X126189965Y-111679801D01*
X126125668Y-111583574D01*
X126072900Y-111456183D01*
X126046000Y-111320945D01*
X126046000Y-111183055D01*
X126072900Y-111047817D01*
X126125668Y-110920426D01*
X126202275Y-110805775D01*
X126299775Y-110708275D01*
X126414426Y-110631668D01*
X126541817Y-110578900D01*
X126677055Y-110552000D01*
X126814945Y-110552000D01*
X126950183Y-110578900D01*
X126950183Y-110578900D01*
G37*
G36*
X124410183Y-110578900D02*
X124537574Y-110631668D01*
X124652225Y-110708275D01*
X124749725Y-110805775D01*
X124826332Y-110920426D01*
X124879100Y-111047817D01*
X124906000Y-111183055D01*
X124906000Y-111320945D01*
X124879100Y-111456183D01*
X124826332Y-111583574D01*
X124762036Y-111679801D01*
X124749725Y-111698225D01*
X124652225Y-111795725D01*
X124537574Y-111872332D01*
X124410183Y-111925100D01*
X124274945Y-111952000D01*
X124137055Y-111952000D01*
X124001817Y-111925100D01*
X123874426Y-111872332D01*
X123759775Y-111795725D01*
X123662275Y-111698225D01*
X123649965Y-111679801D01*
X123585668Y-111583574D01*
X123532900Y-111456183D01*
X123506000Y-111320945D01*
X123506000Y-111183055D01*
X123532900Y-111047817D01*
X123585668Y-110920426D01*
X123662275Y-110805775D01*
X123759775Y-110708275D01*
X123874426Y-110631668D01*
X124001817Y-110578900D01*
X124137055Y-110552000D01*
X124274945Y-110552000D01*
X124410183Y-110578900D01*
X124410183Y-110578900D01*
G37*
G36*
X162062623Y-106900727D02*
X162386198Y-107034756D01*
X162677412Y-107229339D01*
X162925061Y-107476988D01*
X163119644Y-107768202D01*
X163253673Y-108091777D01*
X163322000Y-108435281D01*
X163322000Y-108785519D01*
X163253673Y-109129023D01*
X163119644Y-109452598D01*
X162925061Y-109743812D01*
X162677412Y-109991461D01*
X162386198Y-110186044D01*
X162062623Y-110320073D01*
X161719119Y-110388400D01*
X161368881Y-110388400D01*
X161025377Y-110320073D01*
X160701802Y-110186044D01*
X160410588Y-109991461D01*
X160162939Y-109743812D01*
X159968356Y-109452598D01*
X159834327Y-109129023D01*
X159766000Y-108785519D01*
X159766000Y-108435281D01*
X159834327Y-108091777D01*
X159968356Y-107768202D01*
X160162939Y-107476988D01*
X160410588Y-107229339D01*
X160701802Y-107034756D01*
X161025377Y-106900727D01*
X161368881Y-106832400D01*
X161719119Y-106832400D01*
X162062623Y-106900727D01*
X162062623Y-106900727D01*
G37*
G36*
X132979623Y-106900727D02*
X133303198Y-107034756D01*
X133594412Y-107229339D01*
X133842061Y-107476988D01*
X134036644Y-107768202D01*
X134170673Y-108091777D01*
X134239000Y-108435281D01*
X134239000Y-108785519D01*
X134170673Y-109129023D01*
X134036644Y-109452598D01*
X133842061Y-109743812D01*
X133594412Y-109991461D01*
X133303198Y-110186044D01*
X132979623Y-110320073D01*
X132636119Y-110388400D01*
X132285881Y-110388400D01*
X131942377Y-110320073D01*
X131618802Y-110186044D01*
X131327588Y-109991461D01*
X131079939Y-109743812D01*
X130885356Y-109452598D01*
X130751327Y-109129023D01*
X130683000Y-108785519D01*
X130683000Y-108435281D01*
X130751327Y-108091777D01*
X130885356Y-107768202D01*
X131079939Y-107476988D01*
X131327588Y-107229339D01*
X131618802Y-107034756D01*
X131942377Y-106900727D01*
X132285881Y-106832400D01*
X132636119Y-106832400D01*
X132979623Y-106900727D01*
X132979623Y-106900727D01*
G37*
G36*
X104861823Y-106900727D02*
X105185398Y-107034756D01*
X105476612Y-107229339D01*
X105724261Y-107476988D01*
X105918844Y-107768202D01*
X106052873Y-108091777D01*
X106121200Y-108435281D01*
X106121200Y-108785519D01*
X106052873Y-109129023D01*
X105918844Y-109452598D01*
X105724261Y-109743812D01*
X105476612Y-109991461D01*
X105185398Y-110186044D01*
X104861823Y-110320073D01*
X104518319Y-110388400D01*
X104168081Y-110388400D01*
X103824577Y-110320073D01*
X103501002Y-110186044D01*
X103209788Y-109991461D01*
X102962139Y-109743812D01*
X102767556Y-109452598D01*
X102633527Y-109129023D01*
X102565200Y-108785519D01*
X102565200Y-108435281D01*
X102633527Y-108091777D01*
X102767556Y-107768202D01*
X102962139Y-107476988D01*
X103209788Y-107229339D01*
X103501002Y-107034756D01*
X103824577Y-106900727D01*
X104168081Y-106832400D01*
X104518319Y-106832400D01*
X104861823Y-106900727D01*
X104861823Y-106900727D01*
G37*
G36*
X111281373Y-102792817D02*
X111693402Y-102874775D01*
X111951886Y-102981843D01*
X112317439Y-103133259D01*
X112879063Y-103508524D01*
X113356676Y-103986137D01*
X113731941Y-104547761D01*
X113862890Y-104863901D01*
X113956865Y-105090776D01*
X113990425Y-105171799D01*
X114122200Y-105834272D01*
X114122200Y-106509728D01*
X114058016Y-106832400D01*
X113990425Y-107172202D01*
X113912588Y-107360116D01*
X113731941Y-107796239D01*
X113356676Y-108357863D01*
X112879063Y-108835476D01*
X112317439Y-109210741D01*
X111951886Y-109362157D01*
X111693402Y-109469225D01*
X111362165Y-109535112D01*
X111030928Y-109601000D01*
X110355472Y-109601000D01*
X110024235Y-109535112D01*
X109692998Y-109469225D01*
X109434514Y-109362157D01*
X109068961Y-109210741D01*
X108507337Y-108835476D01*
X108029724Y-108357863D01*
X107654459Y-107796239D01*
X107473812Y-107360116D01*
X107395975Y-107172202D01*
X107328384Y-106832400D01*
X107264200Y-106509728D01*
X107264200Y-105834272D01*
X107395975Y-105171799D01*
X107429536Y-105090776D01*
X107523510Y-104863901D01*
X107654459Y-104547761D01*
X108029724Y-103986137D01*
X108507337Y-103508524D01*
X109068961Y-103133259D01*
X109434514Y-102981843D01*
X109692998Y-102874775D01*
X110105027Y-102792817D01*
X110355472Y-102743000D01*
X111030928Y-102743000D01*
X111281373Y-102792817D01*
X111281373Y-102792817D01*
G37*
G36*
X168482173Y-102792817D02*
X168894202Y-102874775D01*
X169152686Y-102981843D01*
X169518239Y-103133259D01*
X170079863Y-103508524D01*
X170557476Y-103986137D01*
X170932741Y-104547761D01*
X171063690Y-104863901D01*
X171157665Y-105090776D01*
X171191225Y-105171799D01*
X171323000Y-105834272D01*
X171323000Y-106509728D01*
X171258816Y-106832400D01*
X171191225Y-107172202D01*
X171113388Y-107360116D01*
X170932741Y-107796239D01*
X170557476Y-108357863D01*
X170079863Y-108835476D01*
X169518239Y-109210741D01*
X169152686Y-109362157D01*
X168894202Y-109469225D01*
X168562965Y-109535112D01*
X168231728Y-109601000D01*
X167556272Y-109601000D01*
X167225035Y-109535112D01*
X166893798Y-109469225D01*
X166635314Y-109362157D01*
X166269761Y-109210741D01*
X165708137Y-108835476D01*
X165230524Y-108357863D01*
X164855259Y-107796239D01*
X164674612Y-107360116D01*
X164596775Y-107172202D01*
X164529184Y-106832400D01*
X164465000Y-106509728D01*
X164465000Y-105834272D01*
X164596775Y-105171799D01*
X164630336Y-105090776D01*
X164724310Y-104863901D01*
X164855259Y-104547761D01*
X165230524Y-103986137D01*
X165708137Y-103508524D01*
X166269761Y-103133259D01*
X166635314Y-102981843D01*
X166893798Y-102874775D01*
X167305827Y-102792817D01*
X167556272Y-102743000D01*
X168231728Y-102743000D01*
X168482173Y-102792817D01*
X168482173Y-102792817D01*
G37*
G36*
X139399173Y-102792817D02*
X139811202Y-102874775D01*
X140069686Y-102981843D01*
X140435239Y-103133259D01*
X140996863Y-103508524D01*
X141474476Y-103986137D01*
X141849741Y-104547761D01*
X141980690Y-104863901D01*
X142074665Y-105090776D01*
X142108225Y-105171799D01*
X142240000Y-105834272D01*
X142240000Y-106509728D01*
X142175816Y-106832400D01*
X142108225Y-107172202D01*
X142030388Y-107360116D01*
X141849741Y-107796239D01*
X141474476Y-108357863D01*
X140996863Y-108835476D01*
X140435239Y-109210741D01*
X140069686Y-109362157D01*
X139811202Y-109469225D01*
X139479965Y-109535112D01*
X139148728Y-109601000D01*
X138473272Y-109601000D01*
X138142035Y-109535112D01*
X137810798Y-109469225D01*
X137552314Y-109362157D01*
X137186761Y-109210741D01*
X136625137Y-108835476D01*
X136147524Y-108357863D01*
X135772259Y-107796239D01*
X135591612Y-107360116D01*
X135513775Y-107172202D01*
X135446184Y-106832400D01*
X135382000Y-106509728D01*
X135382000Y-105834272D01*
X135513775Y-105171799D01*
X135547336Y-105090776D01*
X135641310Y-104863901D01*
X135772259Y-104547761D01*
X136147524Y-103986137D01*
X136625137Y-103508524D01*
X137186761Y-103133259D01*
X137552314Y-102981843D01*
X137810798Y-102874775D01*
X138222827Y-102792817D01*
X138473272Y-102743000D01*
X139148728Y-102743000D01*
X139399173Y-102792817D01*
X139399173Y-102792817D01*
G37*
G36*
X187588636Y-107202250D02*
X187674267Y-107219283D01*
X187698544Y-107229339D01*
X187812942Y-107276724D01*
X187937750Y-107360118D01*
X188043882Y-107466250D01*
X188127276Y-107591058D01*
X188184717Y-107729734D01*
X188214000Y-107876948D01*
X188214000Y-108027052D01*
X188184717Y-108174266D01*
X188127276Y-108312942D01*
X188043882Y-108437750D01*
X187937750Y-108543882D01*
X187937747Y-108543884D01*
X187812942Y-108627276D01*
X187674267Y-108684717D01*
X187625195Y-108694478D01*
X187527052Y-108714000D01*
X187376948Y-108714000D01*
X187278805Y-108694478D01*
X187229733Y-108684717D01*
X187091058Y-108627276D01*
X186966253Y-108543884D01*
X186966250Y-108543882D01*
X186860118Y-108437750D01*
X186776724Y-108312942D01*
X186719283Y-108174266D01*
X186690000Y-108027052D01*
X186690000Y-107876948D01*
X186719283Y-107729734D01*
X186776724Y-107591058D01*
X186860118Y-107466250D01*
X186966250Y-107360118D01*
X187091058Y-107276724D01*
X187205456Y-107229339D01*
X187229733Y-107219283D01*
X187315364Y-107202250D01*
X187376948Y-107190000D01*
X187527052Y-107190000D01*
X187588636Y-107202250D01*
X187588636Y-107202250D01*
G37*
G36*
X92883195Y-106945522D02*
X92932267Y-106955283D01*
X93026368Y-106994261D01*
X93070942Y-107012724D01*
X93195750Y-107096118D01*
X93301882Y-107202250D01*
X93385276Y-107327058D01*
X93442717Y-107465734D01*
X93472000Y-107612948D01*
X93472000Y-107763052D01*
X93442717Y-107910266D01*
X93385276Y-108048942D01*
X93301882Y-108173750D01*
X93195750Y-108279882D01*
X93195747Y-108279884D01*
X93070942Y-108363276D01*
X92932267Y-108420717D01*
X92883195Y-108430478D01*
X92785052Y-108450000D01*
X92634948Y-108450000D01*
X92536805Y-108430478D01*
X92487733Y-108420717D01*
X92349058Y-108363276D01*
X92224253Y-108279884D01*
X92224250Y-108279882D01*
X92118118Y-108173750D01*
X92034724Y-108048942D01*
X91977283Y-107910266D01*
X91948000Y-107763052D01*
X91948000Y-107612948D01*
X91977283Y-107465734D01*
X92034724Y-107327058D01*
X92118118Y-107202250D01*
X92224250Y-107096118D01*
X92349058Y-107012724D01*
X92393632Y-106994261D01*
X92487733Y-106955283D01*
X92536805Y-106945522D01*
X92634948Y-106926000D01*
X92785052Y-106926000D01*
X92883195Y-106945522D01*
X92883195Y-106945522D01*
G37*
G36*
X117561823Y-103903527D02*
X117885398Y-104037556D01*
X118176612Y-104232139D01*
X118424261Y-104479788D01*
X118618844Y-104771002D01*
X118752873Y-105094577D01*
X118821200Y-105438081D01*
X118821200Y-105788319D01*
X118752873Y-106131823D01*
X118618844Y-106455398D01*
X118424261Y-106746612D01*
X118176612Y-106994261D01*
X117885398Y-107188844D01*
X117561823Y-107322873D01*
X117218319Y-107391200D01*
X116868081Y-107391200D01*
X116524577Y-107322873D01*
X116201002Y-107188844D01*
X115909788Y-106994261D01*
X115662139Y-106746612D01*
X115467556Y-106455398D01*
X115333527Y-106131823D01*
X115265200Y-105788319D01*
X115265200Y-105438081D01*
X115333527Y-105094577D01*
X115467556Y-104771002D01*
X115662139Y-104479788D01*
X115909788Y-104232139D01*
X116201002Y-104037556D01*
X116524577Y-103903527D01*
X116868081Y-103835200D01*
X117218319Y-103835200D01*
X117561823Y-103903527D01*
X117561823Y-103903527D01*
G37*
G36*
X145679623Y-103903527D02*
X146003198Y-104037556D01*
X146294412Y-104232139D01*
X146542061Y-104479788D01*
X146736644Y-104771002D01*
X146870673Y-105094577D01*
X146939000Y-105438081D01*
X146939000Y-105788319D01*
X146870673Y-106131823D01*
X146736644Y-106455398D01*
X146542061Y-106746612D01*
X146294412Y-106994261D01*
X146003198Y-107188844D01*
X145679623Y-107322873D01*
X145336119Y-107391200D01*
X144985881Y-107391200D01*
X144642377Y-107322873D01*
X144318802Y-107188844D01*
X144027588Y-106994261D01*
X143779939Y-106746612D01*
X143585356Y-106455398D01*
X143451327Y-106131823D01*
X143383000Y-105788319D01*
X143383000Y-105438081D01*
X143451327Y-105094577D01*
X143585356Y-104771002D01*
X143779939Y-104479788D01*
X144027588Y-104232139D01*
X144318802Y-104037556D01*
X144642377Y-103903527D01*
X144985881Y-103835200D01*
X145336119Y-103835200D01*
X145679623Y-103903527D01*
X145679623Y-103903527D01*
G37*
G36*
X174762623Y-103903527D02*
X175086198Y-104037556D01*
X175377412Y-104232139D01*
X175625061Y-104479788D01*
X175819644Y-104771002D01*
X175953673Y-105094577D01*
X176022000Y-105438081D01*
X176022000Y-105788319D01*
X175953673Y-106131823D01*
X175819644Y-106455398D01*
X175625061Y-106746612D01*
X175377412Y-106994261D01*
X175086198Y-107188844D01*
X174762623Y-107322873D01*
X174419119Y-107391200D01*
X174068881Y-107391200D01*
X173725377Y-107322873D01*
X173401802Y-107188844D01*
X173110588Y-106994261D01*
X172862939Y-106746612D01*
X172668356Y-106455398D01*
X172534327Y-106131823D01*
X172466000Y-105788319D01*
X172466000Y-105438081D01*
X172534327Y-105094577D01*
X172668356Y-104771002D01*
X172862939Y-104479788D01*
X173110588Y-104232139D01*
X173401802Y-104037556D01*
X173725377Y-103903527D01*
X174068881Y-103835200D01*
X174419119Y-103835200D01*
X174762623Y-103903527D01*
X174762623Y-103903527D01*
G37*
G36*
X124779000Y-106237000D02*
X123379000Y-106237000D01*
X123379000Y-104837000D01*
X124779000Y-104837000D01*
X124779000Y-106237000D01*
X124779000Y-106237000D01*
G37*
G36*
X126823183Y-104863900D02*
X126950574Y-104916668D01*
X127065224Y-104993274D01*
X127162726Y-105090776D01*
X127216863Y-105171798D01*
X127239332Y-105205426D01*
X127292100Y-105332817D01*
X127319000Y-105468055D01*
X127319000Y-105605945D01*
X127292100Y-105741183D01*
X127239332Y-105868574D01*
X127162725Y-105983225D01*
X127065225Y-106080725D01*
X126950574Y-106157332D01*
X126823183Y-106210100D01*
X126687945Y-106237000D01*
X126550055Y-106237000D01*
X126414817Y-106210100D01*
X126287426Y-106157332D01*
X126172775Y-106080725D01*
X126075275Y-105983225D01*
X125998668Y-105868574D01*
X125945900Y-105741183D01*
X125919000Y-105605945D01*
X125919000Y-105468055D01*
X125945900Y-105332817D01*
X125998668Y-105205426D01*
X126021137Y-105171798D01*
X126075274Y-105090776D01*
X126172776Y-104993274D01*
X126287426Y-104916668D01*
X126414817Y-104863900D01*
X126550055Y-104837000D01*
X126687945Y-104837000D01*
X126823183Y-104863900D01*
X126823183Y-104863900D01*
G37*
G36*
X187588636Y-102502250D02*
X187674267Y-102519283D01*
X187812942Y-102576724D01*
X187937750Y-102660118D01*
X188043882Y-102766250D01*
X188127276Y-102891058D01*
X188184717Y-103029734D01*
X188214000Y-103176948D01*
X188214000Y-103327052D01*
X188184717Y-103474266D01*
X188127276Y-103612942D01*
X188043882Y-103737750D01*
X187937750Y-103843882D01*
X187937747Y-103843884D01*
X187812942Y-103927276D01*
X187674267Y-103984717D01*
X187625195Y-103994478D01*
X187527052Y-104014000D01*
X187376948Y-104014000D01*
X187278805Y-103994478D01*
X187229733Y-103984717D01*
X187091058Y-103927276D01*
X186966253Y-103843884D01*
X186966250Y-103843882D01*
X186860118Y-103737750D01*
X186776724Y-103612942D01*
X186719283Y-103474266D01*
X186690000Y-103327052D01*
X186690000Y-103176948D01*
X186719283Y-103029734D01*
X186776724Y-102891058D01*
X186860118Y-102766250D01*
X186966250Y-102660118D01*
X187091058Y-102576724D01*
X187229733Y-102519283D01*
X187315364Y-102502250D01*
X187376948Y-102490000D01*
X187527052Y-102490000D01*
X187588636Y-102502250D01*
X187588636Y-102502250D01*
G37*
G36*
X92883195Y-102245522D02*
X92932267Y-102255283D01*
X93032981Y-102297000D01*
X93070942Y-102312724D01*
X93195750Y-102396118D01*
X93301882Y-102502250D01*
X93301884Y-102502253D01*
X93385276Y-102627058D01*
X93433301Y-102743000D01*
X93442717Y-102765734D01*
X93472000Y-102912948D01*
X93472000Y-103063052D01*
X93452478Y-103161195D01*
X93443154Y-103208072D01*
X93442717Y-103210266D01*
X93385276Y-103348942D01*
X93301882Y-103473750D01*
X93195750Y-103579882D01*
X93195747Y-103579884D01*
X93070942Y-103663276D01*
X92932267Y-103720717D01*
X92883195Y-103730478D01*
X92785052Y-103750000D01*
X92634948Y-103750000D01*
X92536805Y-103730478D01*
X92487733Y-103720717D01*
X92349058Y-103663276D01*
X92224253Y-103579884D01*
X92224250Y-103579882D01*
X92118118Y-103473750D01*
X92034724Y-103348942D01*
X91977283Y-103210266D01*
X91976847Y-103208072D01*
X91967522Y-103161195D01*
X91948000Y-103063052D01*
X91948000Y-102912948D01*
X91977283Y-102765734D01*
X91986700Y-102743000D01*
X92034724Y-102627058D01*
X92118116Y-102502253D01*
X92118118Y-102502250D01*
X92224250Y-102396118D01*
X92349058Y-102312724D01*
X92387019Y-102297000D01*
X92487733Y-102255283D01*
X92536805Y-102245522D01*
X92634948Y-102226000D01*
X92785052Y-102226000D01*
X92883195Y-102245522D01*
X92883195Y-102245522D01*
G37*
G36*
X126823183Y-102323900D02*
X126950574Y-102376668D01*
X127065224Y-102453274D01*
X127162726Y-102550776D01*
X127216870Y-102631809D01*
X127239332Y-102665426D01*
X127292100Y-102792817D01*
X127319000Y-102928055D01*
X127319000Y-103065945D01*
X127292100Y-103201183D01*
X127239332Y-103328574D01*
X127162725Y-103443225D01*
X127065225Y-103540725D01*
X126950574Y-103617332D01*
X126823183Y-103670100D01*
X126687945Y-103697000D01*
X126550055Y-103697000D01*
X126414817Y-103670100D01*
X126287426Y-103617332D01*
X126172775Y-103540725D01*
X126075275Y-103443225D01*
X125998668Y-103328574D01*
X125945900Y-103201183D01*
X125919000Y-103065945D01*
X125919000Y-102928055D01*
X125945900Y-102792817D01*
X125998668Y-102665426D01*
X126021130Y-102631809D01*
X126075274Y-102550776D01*
X126172776Y-102453274D01*
X126287426Y-102376668D01*
X126414817Y-102323900D01*
X126550055Y-102297000D01*
X126687945Y-102297000D01*
X126823183Y-102323900D01*
X126823183Y-102323900D01*
G37*
G36*
X124283183Y-102323900D02*
X124410574Y-102376668D01*
X124525224Y-102453274D01*
X124622726Y-102550776D01*
X124676870Y-102631809D01*
X124699332Y-102665426D01*
X124752100Y-102792817D01*
X124779000Y-102928055D01*
X124779000Y-103065945D01*
X124752100Y-103201183D01*
X124699332Y-103328574D01*
X124622725Y-103443225D01*
X124525225Y-103540725D01*
X124410574Y-103617332D01*
X124283183Y-103670100D01*
X124147945Y-103697000D01*
X124010055Y-103697000D01*
X123874817Y-103670100D01*
X123747426Y-103617332D01*
X123632775Y-103540725D01*
X123535275Y-103443225D01*
X123458668Y-103328574D01*
X123405900Y-103201183D01*
X123379000Y-103065945D01*
X123379000Y-102928055D01*
X123405900Y-102792817D01*
X123458668Y-102665426D01*
X123481130Y-102631809D01*
X123535274Y-102550776D01*
X123632776Y-102453274D01*
X123747426Y-102376668D01*
X123874817Y-102323900D01*
X124010055Y-102297000D01*
X124147945Y-102297000D01*
X124283183Y-102323900D01*
X124283183Y-102323900D01*
G37*
G36*
X134656023Y-99788727D02*
X134979598Y-99922756D01*
X135270812Y-100117339D01*
X135518461Y-100364988D01*
X135713044Y-100656202D01*
X135847073Y-100979777D01*
X135915400Y-101323281D01*
X135915400Y-101673519D01*
X135847073Y-102017023D01*
X135713044Y-102340598D01*
X135518461Y-102631812D01*
X135270812Y-102879461D01*
X134979598Y-103074044D01*
X134656023Y-103208073D01*
X134312519Y-103276400D01*
X133962281Y-103276400D01*
X133618777Y-103208073D01*
X133295202Y-103074044D01*
X133003988Y-102879461D01*
X132756339Y-102631812D01*
X132561756Y-102340598D01*
X132427727Y-102017023D01*
X132359400Y-101673519D01*
X132359400Y-101323281D01*
X132427727Y-100979777D01*
X132561756Y-100656202D01*
X132756339Y-100364988D01*
X133003988Y-100117339D01*
X133295202Y-99922756D01*
X133618777Y-99788727D01*
X133962281Y-99720400D01*
X134312519Y-99720400D01*
X134656023Y-99788727D01*
X134656023Y-99788727D01*
G37*
G36*
X106538223Y-99788727D02*
X106861798Y-99922756D01*
X107153012Y-100117339D01*
X107400661Y-100364988D01*
X107595244Y-100656202D01*
X107729273Y-100979777D01*
X107797600Y-101323281D01*
X107797600Y-101673519D01*
X107729273Y-102017023D01*
X107595244Y-102340598D01*
X107400661Y-102631812D01*
X107153012Y-102879461D01*
X106861798Y-103074044D01*
X106538223Y-103208073D01*
X106194719Y-103276400D01*
X105844481Y-103276400D01*
X105500977Y-103208073D01*
X105177402Y-103074044D01*
X104886188Y-102879461D01*
X104638539Y-102631812D01*
X104443956Y-102340598D01*
X104309927Y-102017023D01*
X104241600Y-101673519D01*
X104241600Y-101323281D01*
X104309927Y-100979777D01*
X104443956Y-100656202D01*
X104638539Y-100364988D01*
X104886188Y-100117339D01*
X105177402Y-99922756D01*
X105500977Y-99788727D01*
X105844481Y-99720400D01*
X106194719Y-99720400D01*
X106538223Y-99788727D01*
X106538223Y-99788727D01*
G37*
G36*
X163739023Y-99788727D02*
X164062598Y-99922756D01*
X164353812Y-100117339D01*
X164601461Y-100364988D01*
X164796044Y-100656202D01*
X164930073Y-100979777D01*
X164998400Y-101323281D01*
X164998400Y-101673519D01*
X164930073Y-102017023D01*
X164796044Y-102340598D01*
X164601461Y-102631812D01*
X164353812Y-102879461D01*
X164062598Y-103074044D01*
X163739023Y-103208073D01*
X163395519Y-103276400D01*
X163045281Y-103276400D01*
X162701777Y-103208073D01*
X162378202Y-103074044D01*
X162086988Y-102879461D01*
X161839339Y-102631812D01*
X161644756Y-102340598D01*
X161510727Y-102017023D01*
X161442400Y-101673519D01*
X161442400Y-101323281D01*
X161510727Y-100979777D01*
X161644756Y-100656202D01*
X161839339Y-100364988D01*
X162086988Y-100117339D01*
X162378202Y-99922756D01*
X162701777Y-99788727D01*
X163045281Y-99720400D01*
X163395519Y-99720400D01*
X163739023Y-99788727D01*
X163739023Y-99788727D01*
G37*
G36*
X113650223Y-98112327D02*
X113973798Y-98246356D01*
X114265012Y-98440939D01*
X114512661Y-98688588D01*
X114707244Y-98979802D01*
X114841273Y-99303377D01*
X114909600Y-99646881D01*
X114909600Y-99997119D01*
X114841273Y-100340623D01*
X114707244Y-100664198D01*
X114512661Y-100955412D01*
X114265012Y-101203061D01*
X113973798Y-101397644D01*
X113650223Y-101531673D01*
X113306719Y-101600000D01*
X112956481Y-101600000D01*
X112612977Y-101531673D01*
X112289402Y-101397644D01*
X111998188Y-101203061D01*
X111750539Y-100955412D01*
X111555956Y-100664198D01*
X111421927Y-100340623D01*
X111353600Y-99997119D01*
X111353600Y-99646881D01*
X111421927Y-99303377D01*
X111555956Y-98979802D01*
X111750539Y-98688588D01*
X111998188Y-98440939D01*
X112289402Y-98246356D01*
X112612977Y-98112327D01*
X112956481Y-98044000D01*
X113306719Y-98044000D01*
X113650223Y-98112327D01*
X113650223Y-98112327D01*
G37*
G36*
X141768023Y-98112327D02*
X142091598Y-98246356D01*
X142382812Y-98440939D01*
X142630461Y-98688588D01*
X142825044Y-98979802D01*
X142959073Y-99303377D01*
X143027400Y-99646881D01*
X143027400Y-99997119D01*
X142959073Y-100340623D01*
X142825044Y-100664198D01*
X142630461Y-100955412D01*
X142382812Y-101203061D01*
X142091598Y-101397644D01*
X141768023Y-101531673D01*
X141424519Y-101600000D01*
X141074281Y-101600000D01*
X140730777Y-101531673D01*
X140407202Y-101397644D01*
X140115988Y-101203061D01*
X139868339Y-100955412D01*
X139673756Y-100664198D01*
X139539727Y-100340623D01*
X139471400Y-99997119D01*
X139471400Y-99646881D01*
X139539727Y-99303377D01*
X139673756Y-98979802D01*
X139868339Y-98688588D01*
X140115988Y-98440939D01*
X140407202Y-98246356D01*
X140730777Y-98112327D01*
X141074281Y-98044000D01*
X141424519Y-98044000D01*
X141768023Y-98112327D01*
X141768023Y-98112327D01*
G37*
G36*
X170851023Y-98112327D02*
X171174598Y-98246356D01*
X171465812Y-98440939D01*
X171713461Y-98688588D01*
X171908044Y-98979802D01*
X172042073Y-99303377D01*
X172110400Y-99646881D01*
X172110400Y-99997119D01*
X172042073Y-100340623D01*
X171908044Y-100664198D01*
X171713461Y-100955412D01*
X171465812Y-101203061D01*
X171174598Y-101397644D01*
X170851023Y-101531673D01*
X170507519Y-101600000D01*
X170157281Y-101600000D01*
X169813777Y-101531673D01*
X169490202Y-101397644D01*
X169198988Y-101203061D01*
X168951339Y-100955412D01*
X168756756Y-100664198D01*
X168622727Y-100340623D01*
X168554400Y-99997119D01*
X168554400Y-99646881D01*
X168622727Y-99303377D01*
X168756756Y-98979802D01*
X168951339Y-98688588D01*
X169198988Y-98440939D01*
X169490202Y-98246356D01*
X169813777Y-98112327D01*
X170157281Y-98044000D01*
X170507519Y-98044000D01*
X170851023Y-98112327D01*
X170851023Y-98112327D01*
G37*
G36*
X124283183Y-99783900D02*
X124410574Y-99836668D01*
X124525225Y-99913275D01*
X124622725Y-100010775D01*
X124699332Y-100125426D01*
X124752100Y-100252817D01*
X124779000Y-100388055D01*
X124779000Y-100525945D01*
X124752100Y-100661183D01*
X124699332Y-100788574D01*
X124622725Y-100903225D01*
X124525225Y-101000725D01*
X124410574Y-101077332D01*
X124283183Y-101130100D01*
X124147945Y-101157000D01*
X124010055Y-101157000D01*
X123874817Y-101130100D01*
X123747426Y-101077332D01*
X123632775Y-101000725D01*
X123535275Y-100903225D01*
X123458668Y-100788574D01*
X123405900Y-100661183D01*
X123379000Y-100525945D01*
X123379000Y-100388055D01*
X123405900Y-100252817D01*
X123458668Y-100125426D01*
X123535275Y-100010775D01*
X123632775Y-99913275D01*
X123747426Y-99836668D01*
X123874817Y-99783900D01*
X124010055Y-99757000D01*
X124147945Y-99757000D01*
X124283183Y-99783900D01*
X124283183Y-99783900D01*
G37*
G36*
X126823183Y-99783900D02*
X126950574Y-99836668D01*
X127065225Y-99913275D01*
X127162725Y-100010775D01*
X127239332Y-100125426D01*
X127292100Y-100252817D01*
X127319000Y-100388055D01*
X127319000Y-100525945D01*
X127292100Y-100661183D01*
X127239332Y-100788574D01*
X127162725Y-100903225D01*
X127065225Y-101000725D01*
X126950574Y-101077332D01*
X126823183Y-101130100D01*
X126687945Y-101157000D01*
X126550055Y-101157000D01*
X126414817Y-101130100D01*
X126287426Y-101077332D01*
X126172775Y-101000725D01*
X126075275Y-100903225D01*
X125998668Y-100788574D01*
X125945900Y-100661183D01*
X125919000Y-100525945D01*
X125919000Y-100388055D01*
X125945900Y-100252817D01*
X125998668Y-100125426D01*
X126075275Y-100010775D01*
X126172775Y-99913275D01*
X126287426Y-99836668D01*
X126414817Y-99783900D01*
X126550055Y-99757000D01*
X126687945Y-99757000D01*
X126823183Y-99783900D01*
X126823183Y-99783900D01*
G37*
G36*
X187588636Y-97802250D02*
X187674267Y-97819283D01*
X187812942Y-97876724D01*
X187937750Y-97960118D01*
X188043882Y-98066250D01*
X188043884Y-98066253D01*
X188127276Y-98191058D01*
X188150182Y-98246357D01*
X188184717Y-98329734D01*
X188214000Y-98476948D01*
X188214000Y-98627052D01*
X188184717Y-98774266D01*
X188127276Y-98912942D01*
X188043882Y-99037750D01*
X187937750Y-99143882D01*
X187937747Y-99143884D01*
X187812942Y-99227276D01*
X187674267Y-99284717D01*
X187625195Y-99294478D01*
X187527052Y-99314000D01*
X187376948Y-99314000D01*
X187278805Y-99294478D01*
X187229733Y-99284717D01*
X187091058Y-99227276D01*
X186966253Y-99143884D01*
X186966250Y-99143882D01*
X186860118Y-99037750D01*
X186776724Y-98912942D01*
X186719283Y-98774266D01*
X186690000Y-98627052D01*
X186690000Y-98476948D01*
X186719283Y-98329734D01*
X186753819Y-98246357D01*
X186776724Y-98191058D01*
X186860116Y-98066253D01*
X186860118Y-98066250D01*
X186966250Y-97960118D01*
X187091058Y-97876724D01*
X187229733Y-97819283D01*
X187315364Y-97802250D01*
X187376948Y-97790000D01*
X187527052Y-97790000D01*
X187588636Y-97802250D01*
X187588636Y-97802250D01*
G37*
G36*
X92883195Y-97545522D02*
X92932267Y-97555283D01*
X93070942Y-97612724D01*
X93195750Y-97696118D01*
X93301882Y-97802250D01*
X93385276Y-97927058D01*
X93442717Y-98065734D01*
X93472000Y-98212948D01*
X93472000Y-98363052D01*
X93442717Y-98510266D01*
X93385276Y-98648942D01*
X93301882Y-98773750D01*
X93195750Y-98879882D01*
X93195747Y-98879884D01*
X93070942Y-98963276D01*
X92932267Y-99020717D01*
X92883195Y-99030478D01*
X92785052Y-99050000D01*
X92634948Y-99050000D01*
X92536805Y-99030478D01*
X92487733Y-99020717D01*
X92349058Y-98963276D01*
X92224253Y-98879884D01*
X92224250Y-98879882D01*
X92118118Y-98773750D01*
X92034724Y-98648942D01*
X91977283Y-98510266D01*
X91948000Y-98363052D01*
X91948000Y-98212948D01*
X91977283Y-98065734D01*
X92034724Y-97927058D01*
X92118118Y-97802250D01*
X92224250Y-97696118D01*
X92349058Y-97612724D01*
X92487733Y-97555283D01*
X92536805Y-97545522D01*
X92634948Y-97526000D01*
X92785052Y-97526000D01*
X92883195Y-97545522D01*
X92883195Y-97545522D01*
G37*
G36*
X187588636Y-93102250D02*
X187674267Y-93119283D01*
X187812942Y-93176724D01*
X187937750Y-93260118D01*
X188043882Y-93366250D01*
X188127276Y-93491058D01*
X188184717Y-93629734D01*
X188214000Y-93776948D01*
X188214000Y-93927052D01*
X188184717Y-94074266D01*
X188127276Y-94212942D01*
X188043882Y-94337750D01*
X187937750Y-94443882D01*
X187937747Y-94443884D01*
X187812942Y-94527276D01*
X187674267Y-94584717D01*
X187625195Y-94594478D01*
X187527052Y-94614000D01*
X187376948Y-94614000D01*
X187278805Y-94594478D01*
X187229733Y-94584717D01*
X187091058Y-94527276D01*
X186966253Y-94443884D01*
X186966250Y-94443882D01*
X186860118Y-94337750D01*
X186776724Y-94212942D01*
X186719283Y-94074266D01*
X186690000Y-93927052D01*
X186690000Y-93776948D01*
X186719283Y-93629734D01*
X186776724Y-93491058D01*
X186860118Y-93366250D01*
X186966250Y-93260118D01*
X187091058Y-93176724D01*
X187229733Y-93119283D01*
X187315364Y-93102250D01*
X187376948Y-93090000D01*
X187527052Y-93090000D01*
X187588636Y-93102250D01*
X187588636Y-93102250D01*
G37*
G36*
X92883195Y-92845522D02*
X92932267Y-92855283D01*
X93070942Y-92912724D01*
X93195750Y-92996118D01*
X93301882Y-93102250D01*
X93385276Y-93227058D01*
X93442717Y-93365734D01*
X93472000Y-93512948D01*
X93472000Y-93663052D01*
X93442717Y-93810266D01*
X93385276Y-93948942D01*
X93301882Y-94073750D01*
X93195750Y-94179882D01*
X93195747Y-94179884D01*
X93070942Y-94263276D01*
X92932267Y-94320717D01*
X92883195Y-94330478D01*
X92785052Y-94350000D01*
X92634948Y-94350000D01*
X92536805Y-94330478D01*
X92487733Y-94320717D01*
X92349058Y-94263276D01*
X92224253Y-94179884D01*
X92224250Y-94179882D01*
X92118118Y-94073750D01*
X92034724Y-93948942D01*
X91977283Y-93810266D01*
X91948000Y-93663052D01*
X91948000Y-93512948D01*
X91977283Y-93365734D01*
X92034724Y-93227058D01*
X92118118Y-93102250D01*
X92224250Y-92996118D01*
X92349058Y-92912724D01*
X92487733Y-92855283D01*
X92536805Y-92845522D01*
X92634948Y-92826000D01*
X92785052Y-92826000D01*
X92883195Y-92845522D01*
X92883195Y-92845522D01*
G37*
G36*
X187588636Y-88402250D02*
X187674267Y-88419283D01*
X187812942Y-88476724D01*
X187937750Y-88560118D01*
X188043882Y-88666250D01*
X188127276Y-88791058D01*
X188184717Y-88929734D01*
X188214000Y-89076948D01*
X188214000Y-89227052D01*
X188184717Y-89374266D01*
X188127276Y-89512942D01*
X188043882Y-89637750D01*
X187937750Y-89743882D01*
X187937747Y-89743884D01*
X187812942Y-89827276D01*
X187674267Y-89884717D01*
X187625195Y-89894478D01*
X187527052Y-89914000D01*
X187376948Y-89914000D01*
X187278805Y-89894478D01*
X187229733Y-89884717D01*
X187091058Y-89827276D01*
X186966253Y-89743884D01*
X186966250Y-89743882D01*
X186860118Y-89637750D01*
X186776724Y-89512942D01*
X186719283Y-89374266D01*
X186690000Y-89227052D01*
X186690000Y-89076948D01*
X186719283Y-88929734D01*
X186776724Y-88791058D01*
X186860118Y-88666250D01*
X186966250Y-88560118D01*
X187091058Y-88476724D01*
X187229733Y-88419283D01*
X187315364Y-88402250D01*
X187376948Y-88390000D01*
X187527052Y-88390000D01*
X187588636Y-88402250D01*
X187588636Y-88402250D01*
G37*
G36*
X92883195Y-88145522D02*
X92932267Y-88155283D01*
X93070942Y-88212724D01*
X93195750Y-88296118D01*
X93301882Y-88402250D01*
X93385276Y-88527058D01*
X93442717Y-88665734D01*
X93472000Y-88812948D01*
X93472000Y-88963052D01*
X93442717Y-89110266D01*
X93385276Y-89248942D01*
X93301882Y-89373750D01*
X93195750Y-89479882D01*
X93195747Y-89479884D01*
X93070942Y-89563276D01*
X92932267Y-89620717D01*
X92883195Y-89630478D01*
X92785052Y-89650000D01*
X92634948Y-89650000D01*
X92536805Y-89630478D01*
X92487733Y-89620717D01*
X92349058Y-89563276D01*
X92224253Y-89479884D01*
X92224250Y-89479882D01*
X92118118Y-89373750D01*
X92034724Y-89248942D01*
X91977283Y-89110266D01*
X91948000Y-88963052D01*
X91948000Y-88812948D01*
X91977283Y-88665734D01*
X92034724Y-88527058D01*
X92118118Y-88402250D01*
X92224250Y-88296118D01*
X92349058Y-88212724D01*
X92487733Y-88155283D01*
X92536805Y-88145522D01*
X92634948Y-88126000D01*
X92785052Y-88126000D01*
X92883195Y-88145522D01*
X92883195Y-88145522D01*
G37*
M02*
